<?xml version="1.0" encoding="UTF-8"?>
<svg id="Layer_1" data-name="Layer 1" xmlns="http://www.w3.org/2000/svg" width="390" height="884" xmlns:xlink="http://www.w3.org/1999/xlink" viewBox="0 0 390 884">
  <defs>
    <radialGradient id="radial-gradient" cx="2790.02" cy="1379.14" fx="2790.02" fy="1379.14" r="1" gradientTransform="translate(-2017497.64 -3133134.81) rotate(69.52) scale(1304.95 -575.71)" gradientUnits="userSpaceOnUse">
      <stop offset="0" stop-color="#9000fe"/>
      <stop offset=".27" stop-color="#6900fe"/>
      <stop offset=".66" stop-color="#6900fe"/>
      <stop offset="1" stop-color="#9000fe"/>
    </radialGradient>
    <clipPath id="clippath">
      <rect width="390" height="884" fill="none"/>
    </clipPath>
    <radialGradient id="radial-gradient-2" cx="3276.27" cy="624.74" fx="3276.27" fy="624.74" r="1304.37" gradientTransform="translate(-590.68 102.41) scale(.24 .54)" gradientUnits="userSpaceOnUse">
      <stop offset=".32" stop-color="#6000fe" stop-opacity="0"/>
      <stop offset=".38" stop-color="#5d00fb" stop-opacity=".06"/>
      <stop offset=".49" stop-color="#5800f4" stop-opacity=".21"/>
      <stop offset=".64" stop-color="#4f00e9" stop-opacity=".46"/>
      <stop offset=".81" stop-color="#4200da" stop-opacity=".81"/>
      <stop offset=".9" stop-color="#3c00d2"/>
    </radialGradient>
  </defs>
  <rect width="390" height="884" fill="url(#radial-gradient)"/>
  <g opacity=".06">
    <g clip-path="url(#clippath)">
      <g>
        <g>
          <polygon points="-2.88 42.82 -11.2 55.32 -14.24 50.72 -23.3 50.72 -16.42 61.14 -6.02 61.14 6.18 42.82 -2.88 42.82" fill="#fff"/>
          <polygon points="-19.55 82.29 -11.23 69.8 -8.2 74.39 .87 74.39 -6.02 63.97 -16.41 63.97 -28.62 82.29 -19.55 82.29" fill="#fff"/>
          <polygon points="14.52 71.15 6.2 83.65 3.16 79.06 -5.9 79.06 .98 89.48 11.38 89.48 23.58 71.15 14.52 71.15" fill="#fff"/>
          <polygon points="-2.15 110.63 6.17 98.13 9.2 102.72 18.27 102.72 11.38 92.31 .99 92.31 -11.22 110.63 -2.15 110.63" fill="#fff"/>
          <polygon points="31.92 99.49 23.6 111.99 20.56 107.39 11.5 107.39 18.38 117.81 28.78 117.81 40.98 99.49 31.92 99.49" fill="#fff"/>
          <polygon points="15.25 138.96 23.57 126.47 26.6 131.06 35.67 131.06 28.78 120.64 18.39 120.64 6.18 138.96 15.25 138.96" fill="#fff"/>
          <polygon points="49.32 127.82 41 140.32 37.96 135.73 28.9 135.73 35.79 146.15 46.18 146.15 58.38 127.82 49.32 127.82" fill="#fff"/>
          <polygon points="32.65 167.3 40.97 154.8 44 159.39 53.07 159.39 46.18 148.97 35.79 148.97 23.58 167.3 32.65 167.3" fill="#fff"/>
          <polygon points="66.72 156.16 58.4 168.65 55.36 164.06 46.3 164.06 53.19 174.48 63.58 174.48 75.78 156.16 66.72 156.16" fill="#fff"/>
          <polygon points="50.05 195.63 58.37 183.13 61.4 187.73 70.47 187.73 63.58 177.31 53.19 177.31 40.98 195.63 50.05 195.63" fill="#fff"/>
          <polygon points="11.86 -3.27 3.54 9.22 .5 4.63 -8.56 4.63 -1.67 15.05 8.72 15.05 20.93 -3.27 11.86 -3.27" fill="#fff"/>
          <polygon points="-4.81 36.2 3.51 23.7 6.55 28.3 15.61 28.3 8.72 17.88 -1.67 17.88 -13.88 36.2 -4.81 36.2" fill="#fff"/>
          <polygon points="29.26 25.06 20.94 37.56 17.9 32.96 8.84 32.96 15.73 43.38 26.12 43.38 38.33 25.06 29.26 25.06" fill="#fff"/>
          <polygon points="12.59 64.54 20.91 52.04 23.95 56.63 33.01 56.63 26.12 46.21 15.73 46.21 3.52 64.54 12.59 64.54" fill="#fff"/>
          <polygon points="46.66 53.39 38.34 65.89 35.3 61.3 26.24 61.3 33.13 71.72 43.52 71.72 55.73 53.39 46.66 53.39" fill="#fff"/>
          <polygon points="29.99 92.87 38.31 80.37 41.35 84.97 50.41 84.97 43.52 74.55 33.13 74.55 20.93 92.87 29.99 92.87" fill="#fff"/>
          <polygon points="64.06 81.73 55.74 94.23 52.7 89.63 43.64 89.63 50.53 100.05 60.92 100.05 73.13 81.73 64.06 81.73" fill="#fff"/>
          <polygon points="47.39 121.2 55.71 108.71 58.75 113.3 67.81 113.3 60.92 102.88 50.53 102.88 38.33 121.2 47.39 121.2" fill="#fff"/>
          <polygon points="81.46 110.06 73.14 122.56 70.1 117.97 61.04 117.97 67.93 128.39 78.32 128.39 90.53 110.06 81.46 110.06" fill="#fff"/>
          <polygon points="64.79 149.54 73.11 137.04 76.15 141.63 85.21 141.63 78.32 131.22 67.93 131.22 55.73 149.54 64.79 149.54" fill="#fff"/>
          <polygon points="98.86 138.4 90.54 150.9 87.51 146.3 78.44 146.3 85.33 156.72 95.72 156.72 107.93 138.4 98.86 138.4" fill="#fff"/>
          <polygon points="82.19 177.87 90.51 165.38 93.55 169.97 102.61 169.97 95.72 159.55 85.33 159.55 73.13 177.87 82.19 177.87" fill="#fff"/>
          <polygon points="26 20.49 34.32 7.99 37.36 12.58 46.42 12.58 39.54 2.16 29.14 2.16 16.94 20.49 26 20.49" fill="#fff"/>
          <polygon points="60.08 9.35 51.75 21.84 48.72 17.25 39.65 17.25 46.54 27.67 56.93 27.67 69.14 9.35 60.08 9.35" fill="#fff"/>
          <polygon points="43.4 48.82 51.72 36.32 54.76 40.92 63.82 40.92 56.94 30.5 46.54 30.5 34.34 48.82 43.4 48.82" fill="#fff"/>
          <polygon points="77.48 37.68 69.15 50.18 66.12 45.59 57.05 45.59 63.94 56 74.33 56 86.54 37.68 77.48 37.68" fill="#fff"/>
          <polygon points="60.8 77.16 69.12 64.66 72.16 69.25 81.22 69.25 74.34 58.83 63.94 58.83 51.74 77.16 60.8 77.16" fill="#fff"/>
          <polygon points="94.88 66.02 86.55 78.51 83.52 73.92 74.46 73.92 81.34 84.34 91.73 84.34 103.94 66.02 94.88 66.02" fill="#fff"/>
          <polygon points="78.2 105.49 86.52 92.99 89.56 97.59 98.62 97.59 91.74 87.17 81.34 87.17 69.14 105.49 78.2 105.49" fill="#fff"/>
          <polygon points="112.28 94.35 103.95 106.85 100.92 102.25 91.86 102.25 98.74 112.67 109.13 112.67 121.34 94.35 112.28 94.35" fill="#fff"/>
          <polygon points="95.6 133.83 103.92 121.33 106.96 125.92 116.02 125.92 109.14 115.5 98.74 115.5 86.54 133.83 95.6 133.83" fill="#fff"/>
          <polygon points="129.68 122.68 121.35 135.18 118.32 130.59 109.26 130.59 116.14 141.01 126.54 141.01 138.74 122.68 129.68 122.68" fill="#fff"/>
          <polygon points="113 162.16 121.32 149.66 124.36 154.26 133.42 154.26 126.54 143.84 116.14 143.84 103.94 162.16 113 162.16" fill="#fff"/>
          <polygon points="58.14 2.73 66.47 -9.77 69.5 -5.18 78.56 -5.18 71.68 -15.59 61.28 -15.59 49.08 2.73 58.14 2.73" fill="#fff"/>
          <polygon points="92.22 -8.41 83.89 4.09 80.86 -.51 71.8 -.51 78.68 9.91 89.08 9.91 101.28 -8.41 92.22 -8.41" fill="#fff"/>
          <polygon points="75.54 31.06 83.87 18.57 86.9 23.16 95.96 23.16 89.08 12.74 78.68 12.74 66.48 31.06 75.54 31.06" fill="#fff"/>
          <polygon points="109.62 19.92 101.29 32.42 98.26 27.83 89.2 27.83 96.08 38.25 106.48 38.25 118.68 19.92 109.62 19.92" fill="#fff"/>
          <polygon points="92.94 59.4 101.27 46.9 104.3 51.49 113.36 51.49 106.48 41.07 96.08 41.07 83.88 59.4 92.94 59.4" fill="#fff"/>
          <polygon points="127.02 48.26 118.69 60.75 115.66 56.16 106.6 56.16 113.48 66.58 123.88 66.58 136.08 48.26 127.02 48.26" fill="#fff"/>
          <polygon points="110.34 87.73 118.67 75.23 121.7 79.83 130.76 79.83 123.88 69.41 113.48 69.41 101.28 87.73 110.34 87.73" fill="#fff"/>
          <polygon points="144.42 76.59 136.09 89.09 133.06 84.5 124 84.5 130.88 94.92 141.28 94.92 153.48 76.59 144.42 76.59" fill="#fff"/>
          <polygon points="127.74 116.07 136.07 103.57 139.1 108.16 148.16 108.16 141.28 97.74 130.88 97.74 118.68 116.07 127.74 116.07" fill="#fff"/>
          <polygon points="161.82 104.93 153.49 117.42 150.46 112.83 141.4 112.83 148.28 123.25 158.68 123.25 170.88 104.93 161.82 104.93" fill="#fff"/>
          <polygon points="145.14 144.4 153.47 131.9 156.5 136.5 165.56 136.5 158.68 126.08 148.28 126.08 136.08 144.4 145.14 144.4" fill="#fff"/>
          <polygon points="106.35 15.35 114.68 2.85 117.71 7.45 126.78 7.45 119.89 -2.97 109.5 -2.97 97.29 15.35 106.35 15.35" fill="#fff"/>
          <polygon points="140.43 4.21 132.11 16.71 129.07 12.11 120.01 12.11 126.89 22.53 137.29 22.53 149.49 4.21 140.43 4.21" fill="#fff"/>
          <polygon points="123.75 43.68 132.08 31.19 135.11 35.78 144.18 35.78 137.29 25.36 126.9 25.36 114.69 43.68 123.75 43.68" fill="#fff"/>
          <polygon points="157.83 32.54 149.51 45.04 146.47 40.45 137.41 40.45 144.29 50.87 154.69 50.87 166.89 32.54 157.83 32.54" fill="#fff"/>
          <polygon points="141.15 72.02 149.48 59.52 152.51 64.11 161.58 64.11 154.69 53.7 144.3 53.7 132.09 72.02 141.15 72.02" fill="#fff"/>
          <polygon points="175.23 60.88 166.91 73.38 163.87 68.78 154.81 68.78 161.69 79.2 172.09 79.2 184.29 60.88 175.23 60.88" fill="#fff"/>
          <polygon points="158.55 100.35 166.88 87.86 169.91 92.45 178.98 92.45 172.09 82.03 161.7 82.03 149.49 100.35 158.55 100.35" fill="#fff"/>
          <polygon points="192.63 89.21 184.31 101.71 181.27 97.12 172.21 97.12 179.09 107.54 189.49 107.54 201.69 89.21 192.63 89.21" fill="#fff"/>
          <polygon points="175.96 128.69 184.28 116.19 187.31 120.78 196.38 120.78 189.49 110.36 179.1 110.36 166.89 128.69 175.96 128.69" fill="#fff"/>
          <polygon points="172.57 -13.55 164.25 -1.05 161.21 -5.65 152.15 -5.65 159.04 4.77 169.43 4.77 181.63 -13.55 172.57 -13.55" fill="#fff"/>
          <polygon points="155.9 25.93 164.22 13.43 167.26 18.02 176.32 18.02 169.43 7.6 159.04 7.6 146.83 25.93 155.9 25.93" fill="#fff"/>
          <polygon points="189.97 14.79 181.65 27.28 178.61 22.69 169.55 22.69 176.44 33.11 186.83 33.11 199.03 14.79 189.97 14.79" fill="#fff"/>
          <polygon points="173.3 54.26 181.62 41.76 184.66 46.36 193.72 46.36 186.83 35.94 176.44 35.94 164.23 54.26 173.3 54.26" fill="#fff"/>
          <polygon points="207.37 43.12 199.05 55.62 196.01 51.02 186.95 51.02 193.84 61.44 204.23 61.44 216.43 43.12 207.37 43.12" fill="#fff"/>
          <polygon points="190.7 82.59 199.02 70.1 202.06 74.69 211.12 74.69 204.23 64.27 193.84 64.27 181.63 82.59 190.7 82.59" fill="#fff"/>
          <polygon points="224.77 71.45 216.45 83.95 213.41 79.36 204.35 79.36 211.24 89.78 221.63 89.78 233.84 71.45 224.77 71.45" fill="#fff"/>
          <polygon points="208.1 110.93 216.42 98.43 219.46 103.02 228.52 103.02 221.63 92.61 211.24 92.61 199.03 110.93 208.1 110.93" fill="#fff"/>
          <polygon points="186.71 10.21 195.03 -2.29 198.07 2.31 207.13 2.31 200.25 -8.11 189.85 -8.11 177.65 10.21 186.71 10.21" fill="#fff"/>
          <polygon points="220.78 -.93 212.46 11.57 209.43 6.98 200.36 6.98 207.25 17.4 217.64 17.4 229.85 -.93 220.78 -.93" fill="#fff"/>
          <polygon points="204.11 38.55 212.43 26.05 215.47 30.64 224.53 30.64 217.65 20.22 207.25 20.22 195.05 38.55 204.11 38.55" fill="#fff"/>
          <polygon points="238.19 27.41 229.86 39.9 226.83 35.31 217.76 35.31 224.65 45.73 235.04 45.73 247.25 27.41 238.19 27.41" fill="#fff"/>
          <polygon points="221.51 66.88 229.83 54.38 232.87 58.98 241.93 58.98 235.05 48.56 224.65 48.56 212.45 66.88 221.51 66.88" fill="#fff"/>
          <polygon points="255.59 55.74 247.26 68.24 244.23 63.65 235.16 63.65 242.05 74.06 252.44 74.06 264.65 55.74 255.59 55.74" fill="#fff"/>
          <polygon points="238.91 95.22 247.23 82.72 250.27 87.31 259.33 87.31 252.45 76.89 242.05 76.89 229.85 95.22 238.91 95.22" fill="#fff"/>
          <polygon points="236.25 20.79 244.57 8.29 247.61 12.88 256.67 12.88 249.79 2.46 239.39 2.46 227.19 20.79 236.25 20.79" fill="#fff"/>
          <polygon points="270.33 9.65 262 22.15 258.97 17.55 249.91 17.55 256.79 27.97 267.19 27.97 279.39 9.65 270.33 9.65" fill="#fff"/>
          <polygon points="253.65 49.12 261.97 36.63 265.01 41.22 274.07 41.22 267.19 30.8 256.79 30.8 244.59 49.12 253.65 49.12" fill="#fff"/>
          <polygon points="287.73 37.98 279.4 50.48 276.37 45.89 267.31 45.89 274.19 56.31 284.59 56.31 296.79 37.98 287.73 37.98" fill="#fff"/>
          <polygon points="271.05 77.46 279.38 64.96 282.41 69.55 291.47 69.55 284.59 59.13 274.19 59.13 261.99 77.46 271.05 77.46" fill="#fff"/>
          <polygon points="267.06 5.07 275.39 -7.42 278.42 -2.83 287.48 -2.83 280.6 -13.25 270.21 -13.25 258 5.07 267.06 5.07" fill="#fff"/>
          <polygon points="301.14 -6.07 292.82 6.43 289.78 1.84 280.72 1.84 287.6 12.26 298 12.26 310.2 -6.07 301.14 -6.07" fill="#fff"/>
          <polygon points="284.46 33.41 292.79 20.91 295.82 25.5 304.88 25.5 298 15.09 287.61 15.09 275.4 33.41 284.46 33.41" fill="#fff"/>
          <polygon points="318.54 22.27 310.22 34.77 307.18 30.17 298.12 30.17 305 40.59 315.4 40.59 327.6 22.27 318.54 22.27" fill="#fff"/>
          <polygon points="301.86 61.74 310.19 49.25 313.22 53.84 322.29 53.84 315.4 43.42 305.01 43.42 292.8 61.74 301.86 61.74" fill="#fff"/>
          <polygon points="316.61 15.65 324.93 3.15 327.96 7.75 337.03 7.75 330.14 -2.67 319.75 -2.67 307.54 15.65 316.61 15.65" fill="#fff"/>
          <polygon points="350.68 4.51 342.36 17.01 339.32 12.41 330.26 12.41 337.15 22.83 347.54 22.83 359.74 4.51 350.68 4.51" fill="#fff"/>
          <polygon points="334.01 43.99 342.33 31.49 345.36 36.08 354.43 36.08 347.54 25.66 337.15 25.66 324.94 43.99 334.01 43.99" fill="#fff"/>
          <polygon points="381.49 -11.2 373.17 1.29 370.14 -3.3 361.07 -3.3 367.96 7.12 378.35 7.12 390.56 -11.2 381.49 -11.2" fill="#fff"/>
          <polygon points="364.82 28.27 373.14 15.77 376.18 20.37 385.24 20.37 378.36 9.95 367.96 9.95 355.76 28.27 364.82 28.27" fill="#fff"/>
          <polygon points="396.96 10.51 405.28 -1.98 408.32 2.61 417.38 2.61 410.5 -7.81 400.1 -7.81 387.9 10.51 396.96 10.51" fill="#fff"/>
          <polygon points="84.91 185.54 76.58 198.04 73.55 193.44 64.49 193.44 71.37 203.86 81.77 203.86 93.97 185.54 84.91 185.54" fill="#fff"/>
          <polygon points="68.23 225.01 76.55 212.52 79.59 217.11 88.65 217.11 81.77 206.69 71.37 206.69 59.17 225.01 68.23 225.01" fill="#fff"/>
          <polygon points="102.31 213.87 93.98 226.37 90.95 221.78 81.89 221.78 88.77 232.2 99.17 232.2 111.37 213.87 102.31 213.87" fill="#fff"/>
          <polygon points="85.63 253.35 93.95 240.85 96.99 245.44 106.05 245.44 99.17 235.02 88.77 235.02 76.57 253.35 85.63 253.35" fill="#fff"/>
          <polygon points="119.71 242.21 111.38 254.71 108.35 250.11 99.29 250.11 106.17 260.53 116.57 260.53 128.77 242.21 119.71 242.21" fill="#fff"/>
          <polygon points="103.03 281.68 111.35 269.18 114.39 273.78 123.45 273.78 116.57 263.36 106.17 263.36 93.97 281.68 103.03 281.68" fill="#fff"/>
          <polygon points="137.11 270.54 128.78 283.04 125.75 278.45 116.69 278.45 123.57 288.87 133.97 288.87 146.17 270.54 137.11 270.54" fill="#fff"/>
          <polygon points="120.43 310.02 128.76 297.52 131.79 302.11 140.85 302.11 133.97 291.69 123.57 291.69 111.37 310.02 120.43 310.02" fill="#fff"/>
          <polygon points="154.51 298.88 146.18 311.37 143.15 306.78 134.09 306.78 140.97 317.2 151.37 317.2 163.57 298.88 154.51 298.88" fill="#fff"/>
          <polygon points="137.83 338.35 146.16 325.85 149.19 330.45 158.25 330.45 151.37 320.03 140.97 320.03 128.77 338.35 137.83 338.35" fill="#fff"/>
          <polygon points="171.91 327.21 163.58 339.71 160.55 335.12 151.49 335.12 158.37 345.53 168.77 345.53 180.97 327.21 171.91 327.21" fill="#fff"/>
          <polygon points="155.23 366.69 163.56 354.19 166.59 358.78 175.65 358.78 168.77 348.36 158.37 348.36 146.17 366.69 155.23 366.69" fill="#fff"/>
          <polygon points="189.31 355.55 180.98 368.04 177.95 363.45 168.89 363.45 175.77 373.87 186.17 373.87 198.37 355.55 189.31 355.55" fill="#fff"/>
          <polygon points="172.63 395.02 180.96 382.52 183.99 387.12 193.05 387.12 186.17 376.7 175.77 376.7 163.57 395.02 172.63 395.02" fill="#fff"/>
          <polygon points="206.71 383.88 198.38 396.38 195.35 391.78 186.29 391.78 193.17 402.2 203.57 402.2 215.77 383.88 206.71 383.88" fill="#fff"/>
          <polygon points="190.03 423.36 198.36 410.86 201.39 415.45 210.45 415.45 203.57 405.03 193.17 405.03 180.97 423.36 190.03 423.36" fill="#fff"/>
          <polygon points="224.11 412.21 215.78 424.71 212.75 420.12 203.69 420.12 210.57 430.54 220.97 430.54 233.17 412.21 224.11 412.21" fill="#fff"/>
          <polygon points="207.43 451.69 215.76 439.19 218.79 443.79 227.85 443.79 220.97 433.37 210.57 433.37 198.37 451.69 207.43 451.69" fill="#fff"/>
          <polygon points="117.05 167.78 108.72 180.28 105.69 175.68 96.63 175.68 103.51 186.1 113.91 186.1 126.11 167.78 117.05 167.78" fill="#fff"/>
          <polygon points="100.37 207.25 108.7 194.76 111.73 199.35 120.79 199.35 113.91 188.93 103.51 188.93 91.31 207.25 100.37 207.25" fill="#fff"/>
          <polygon points="134.45 196.11 126.13 208.61 123.09 204.02 114.03 204.02 120.91 214.44 131.31 214.44 143.51 196.11 134.45 196.11" fill="#fff"/>
          <polygon points="117.77 235.59 126.1 223.09 129.13 227.69 138.19 227.69 131.31 217.27 120.91 217.27 108.71 235.59 117.77 235.59" fill="#fff"/>
          <polygon points="151.85 224.45 143.53 236.95 140.49 232.35 131.43 232.35 138.31 242.77 148.71 242.77 160.91 224.45 151.85 224.45" fill="#fff"/>
          <polygon points="135.17 263.92 143.5 251.43 146.53 256.02 155.59 256.02 148.71 245.6 138.31 245.6 126.11 263.92 135.17 263.92" fill="#fff"/>
          <polygon points="169.25 252.78 160.93 265.28 157.89 260.69 148.83 260.69 155.71 271.11 166.11 271.11 178.31 252.78 169.25 252.78" fill="#fff"/>
          <polygon points="152.57 292.26 160.9 279.76 163.93 284.35 172.99 284.35 166.11 273.94 155.71 273.94 143.51 292.26 152.57 292.26" fill="#fff"/>
          <polygon points="186.65 281.12 178.33 293.62 175.29 289.02 166.23 289.02 173.11 299.44 183.51 299.44 195.71 281.12 186.65 281.12" fill="#fff"/>
          <polygon points="169.97 320.59 178.3 308.1 181.33 312.69 190.39 312.69 183.51 302.27 173.11 302.27 160.91 320.59 169.97 320.59" fill="#fff"/>
          <polygon points="204.05 309.45 195.73 321.95 192.69 317.36 183.63 317.36 190.51 327.78 200.91 327.78 213.11 309.45 204.05 309.45" fill="#fff"/>
          <polygon points="187.37 348.93 195.7 336.43 198.73 341.02 207.79 341.02 200.91 330.6 190.52 330.6 178.31 348.93 187.37 348.93" fill="#fff"/>
          <polygon points="221.45 337.79 213.13 350.28 210.09 345.69 201.03 345.69 207.91 356.11 218.31 356.11 230.51 337.79 221.45 337.79" fill="#fff"/>
          <polygon points="204.77 377.26 213.1 364.76 216.13 369.36 225.19 369.36 218.31 358.94 207.92 358.94 195.71 377.26 204.77 377.26" fill="#fff"/>
          <polygon points="238.85 366.12 230.53 378.62 227.49 374.03 218.43 374.03 225.31 384.45 235.71 384.45 247.91 366.12 238.85 366.12" fill="#fff"/>
          <polygon points="222.17 405.6 230.5 393.1 233.53 397.69 242.6 397.69 235.71 387.27 225.32 387.27 213.11 405.6 222.17 405.6" fill="#fff"/>
          <polygon points="256.25 394.46 247.93 406.95 244.89 402.36 235.83 402.36 242.71 412.78 253.11 412.78 265.31 394.46 256.25 394.46" fill="#fff"/>
          <polygon points="239.57 433.93 247.9 421.43 250.93 426.03 260 426.03 253.11 415.61 242.72 415.61 230.51 433.93 239.57 433.93" fill="#fff"/>
          <polygon points="147.86 152.07 139.54 164.56 136.5 159.97 127.44 159.97 134.32 170.39 144.72 170.39 156.92 152.07 147.86 152.07" fill="#fff"/>
          <polygon points="131.19 191.54 139.51 179.04 142.54 183.64 151.61 183.64 144.72 173.22 134.33 173.22 122.12 191.54 131.19 191.54" fill="#fff"/>
          <polygon points="165.26 180.4 156.94 192.9 153.9 188.31 144.84 188.31 151.72 198.72 162.12 198.72 174.32 180.4 165.26 180.4" fill="#fff"/>
          <polygon points="148.59 219.88 156.91 207.38 159.94 211.97 169.01 211.97 162.12 201.55 151.73 201.55 139.52 219.88 148.59 219.88" fill="#fff"/>
          <polygon points="182.66 208.74 174.34 221.23 171.3 216.64 162.24 216.64 169.12 227.06 179.52 227.06 191.72 208.74 182.66 208.74" fill="#fff"/>
          <polygon points="165.99 248.21 174.31 235.71 177.34 240.31 186.41 240.31 179.52 229.89 169.13 229.89 156.92 248.21 165.99 248.21" fill="#fff"/>
          <polygon points="200.06 237.07 191.74 249.57 188.7 244.97 179.64 244.97 186.53 255.39 196.92 255.39 209.12 237.07 200.06 237.07" fill="#fff"/>
          <polygon points="183.39 276.55 191.71 264.05 194.74 268.64 203.81 268.64 196.92 258.22 186.53 258.22 174.32 276.55 183.39 276.55" fill="#fff"/>
          <polygon points="217.46 265.4 209.14 277.9 206.1 273.31 197.04 273.31 203.93 283.73 214.32 283.73 226.52 265.4 217.46 265.4" fill="#fff"/>
          <polygon points="200.79 304.88 209.11 292.38 212.14 296.98 221.21 296.98 214.32 286.56 203.93 286.56 191.72 304.88 200.79 304.88" fill="#fff"/>
          <polygon points="234.86 293.74 226.54 306.24 223.5 301.64 214.44 301.64 221.33 312.06 231.72 312.06 243.92 293.74 234.86 293.74" fill="#fff"/>
          <polygon points="218.19 333.21 226.51 320.72 229.55 325.31 238.61 325.31 231.72 314.89 221.33 314.89 209.12 333.21 218.19 333.21" fill="#fff"/>
          <polygon points="252.26 322.07 243.94 334.57 240.9 329.98 231.84 329.98 238.73 340.4 249.12 340.4 261.32 322.07 252.26 322.07" fill="#fff"/>
          <polygon points="235.59 361.55 243.91 349.05 246.95 353.64 256.01 353.64 249.12 343.23 238.73 343.23 226.52 361.55 235.59 361.55" fill="#fff"/>
          <polygon points="269.66 350.41 261.34 362.91 258.3 358.31 249.24 358.31 256.13 368.73 266.52 368.73 278.72 350.41 269.66 350.41" fill="#fff"/>
          <polygon points="252.99 389.88 261.31 377.39 264.35 381.98 273.41 381.98 266.52 371.56 256.13 371.56 243.92 389.88 252.99 389.88" fill="#fff"/>
          <polygon points="287.06 378.74 278.74 391.24 275.7 386.65 266.64 386.65 273.53 397.07 283.92 397.07 296.12 378.74 287.06 378.74" fill="#fff"/>
          <polygon points="270.39 418.22 278.71 405.72 281.75 410.31 290.81 410.31 283.92 399.89 273.53 399.89 261.32 418.22 270.39 418.22" fill="#fff"/>
          <polygon points="180 134.31 171.68 146.81 168.64 142.21 159.58 142.21 166.47 152.63 176.86 152.63 189.07 134.31 180 134.31" fill="#fff"/>
          <polygon points="163.33 173.78 171.65 161.29 174.69 165.88 183.75 165.88 176.86 155.46 166.47 155.46 154.26 173.78 163.33 173.78" fill="#fff"/>
          <polygon points="197.4 162.64 189.08 175.14 186.04 170.55 176.98 170.55 183.87 180.97 194.26 180.97 206.47 162.64 197.4 162.64" fill="#fff"/>
          <polygon points="180.73 202.12 189.05 189.62 192.09 194.21 201.15 194.21 194.26 183.79 183.87 183.79 171.67 202.12 180.73 202.12" fill="#fff"/>
          <polygon points="214.8 190.98 206.48 203.47 203.44 198.88 194.38 198.88 201.27 209.3 211.66 209.3 223.87 190.98 214.8 190.98" fill="#fff"/>
          <polygon points="198.13 230.45 206.45 217.95 209.49 222.55 218.55 222.55 211.66 212.13 201.27 212.13 189.07 230.45 198.13 230.45" fill="#fff"/>
          <polygon points="232.2 219.31 223.88 231.81 220.84 227.22 211.78 227.22 218.67 237.63 229.06 237.63 241.27 219.31 232.2 219.31" fill="#fff"/>
          <polygon points="215.53 258.79 223.85 246.29 226.89 250.88 235.95 250.88 229.06 240.46 218.67 240.46 206.47 258.79 215.53 258.79" fill="#fff"/>
          <polygon points="249.6 247.65 241.28 260.14 238.24 255.55 229.18 255.55 236.07 265.97 246.46 265.97 258.67 247.65 249.6 247.65" fill="#fff"/>
          <polygon points="232.93 287.12 241.25 274.62 244.29 279.22 253.35 279.22 246.46 268.8 236.07 268.8 223.87 287.12 232.93 287.12" fill="#fff"/>
          <polygon points="267 275.98 258.68 288.48 255.65 283.88 246.58 283.88 253.47 294.3 263.86 294.3 276.07 275.98 267 275.98" fill="#fff"/>
          <polygon points="250.33 315.46 258.65 302.96 261.69 307.55 270.75 307.55 263.86 297.13 253.47 297.13 241.27 315.46 250.33 315.46" fill="#fff"/>
          <polygon points="284.4 304.32 276.08 316.81 273.05 312.22 263.98 312.22 270.87 322.64 281.26 322.64 293.47 304.32 284.4 304.32" fill="#fff"/>
          <polygon points="267.73 343.79 276.05 331.29 279.09 335.89 288.15 335.89 281.26 325.47 270.87 325.47 258.67 343.79 267.73 343.79" fill="#fff"/>
          <polygon points="301.8 332.65 293.48 345.15 290.45 340.55 281.38 340.55 288.27 350.97 298.66 350.97 310.87 332.65 301.8 332.65" fill="#fff"/>
          <polygon points="285.13 372.12 293.45 359.63 296.49 364.22 305.55 364.22 298.67 353.8 288.27 353.8 276.07 372.12 285.13 372.12" fill="#fff"/>
          <polygon points="319.2 360.98 310.88 373.48 307.85 368.89 298.78 368.89 305.67 379.31 316.06 379.31 328.27 360.98 319.2 360.98" fill="#fff"/>
          <polygon points="302.53 400.46 310.85 387.96 313.89 392.56 322.95 392.56 316.07 382.14 305.67 382.14 293.47 400.46 302.53 400.46" fill="#fff"/>
          <polygon points="210.82 118.59 202.49 131.09 199.46 126.5 190.39 126.5 197.28 136.92 207.67 136.92 219.88 118.59 210.82 118.59" fill="#fff"/>
          <polygon points="194.14 158.07 202.46 145.57 205.5 150.17 214.56 150.17 207.68 139.75 197.28 139.75 185.08 158.07 194.14 158.07" fill="#fff"/>
          <polygon points="228.22 146.93 219.89 159.43 216.86 154.83 207.79 154.83 214.68 165.25 225.07 165.25 237.28 146.93 228.22 146.93" fill="#fff"/>
          <polygon points="211.54 186.4 219.86 173.91 222.9 178.5 231.96 178.5 225.08 168.08 214.68 168.08 202.48 186.4 211.54 186.4" fill="#fff"/>
          <polygon points="245.62 175.26 237.29 187.76 234.26 183.17 225.19 183.17 232.08 193.59 242.47 193.59 254.68 175.26 245.62 175.26" fill="#fff"/>
          <polygon points="228.94 214.74 237.26 202.24 240.3 206.83 249.36 206.83 242.48 196.42 232.08 196.42 219.88 214.74 228.94 214.74" fill="#fff"/>
          <polygon points="263.02 203.6 254.69 216.1 251.66 211.5 242.6 211.5 249.48 221.92 259.87 221.92 272.08 203.6 263.02 203.6" fill="#fff"/>
          <polygon points="246.34 243.07 254.66 230.58 257.7 235.17 266.76 235.17 259.88 224.75 249.48 224.75 237.28 243.07 246.34 243.07" fill="#fff"/>
          <polygon points="280.42 231.93 272.09 244.43 269.06 239.84 260 239.84 266.88 250.26 277.27 250.26 289.48 231.93 280.42 231.93" fill="#fff"/>
          <polygon points="263.74 271.41 272.06 258.91 275.1 263.5 284.16 263.5 277.28 253.08 266.88 253.08 254.68 271.41 263.74 271.41" fill="#fff"/>
          <polygon points="297.82 260.27 289.49 272.76 286.46 268.17 277.4 268.17 284.28 278.59 294.68 278.59 306.88 260.27 297.82 260.27" fill="#fff"/>
          <polygon points="281.14 299.74 289.46 287.24 292.5 291.84 301.56 291.84 294.68 281.42 284.28 281.42 272.08 299.74 281.14 299.74" fill="#fff"/>
          <polygon points="315.22 288.6 306.89 301.1 303.86 296.51 294.8 296.51 301.68 306.93 312.08 306.93 324.28 288.6 315.22 288.6" fill="#fff"/>
          <polygon points="298.54 328.08 306.86 315.58 309.9 320.17 318.96 320.17 312.08 309.75 301.68 309.75 289.48 328.08 298.54 328.08" fill="#fff"/>
          <polygon points="332.62 316.94 324.29 329.43 321.26 324.84 312.2 324.84 319.08 335.26 329.48 335.26 341.68 316.94 332.62 316.94" fill="#fff"/>
          <polygon points="315.94 356.41 324.26 343.91 327.3 348.51 336.36 348.51 329.48 338.09 319.08 338.09 306.88 356.41 315.94 356.41" fill="#fff"/>
          <polygon points="350.02 345.27 341.69 357.77 338.66 353.18 329.6 353.18 336.48 363.59 346.88 363.59 359.08 345.27 350.02 345.27" fill="#fff"/>
          <polygon points="333.34 384.75 341.66 372.25 344.7 376.84 353.76 376.84 346.88 366.42 336.48 366.42 324.28 384.75 333.34 384.75" fill="#fff"/>
          <polygon points="242.96 100.84 234.63 113.33 231.6 108.74 222.54 108.74 229.42 119.16 239.82 119.16 252.02 100.84 242.96 100.84" fill="#fff"/>
          <polygon points="226.28 140.31 234.61 127.81 237.64 132.41 246.7 132.41 239.82 121.99 229.42 121.99 217.22 140.31 226.28 140.31" fill="#fff"/>
          <polygon points="260.36 129.17 252.03 141.67 249 137.07 239.94 137.07 246.82 147.49 257.22 147.49 269.42 129.17 260.36 129.17" fill="#fff"/>
          <polygon points="243.68 168.65 252.01 156.15 255.04 160.74 264.1 160.74 257.22 150.32 246.82 150.32 234.62 168.65 243.68 168.65" fill="#fff"/>
          <polygon points="277.76 157.5 269.43 170 266.4 165.41 257.34 165.41 264.22 175.83 274.62 175.83 286.82 157.5 277.76 157.5" fill="#fff"/>
          <polygon points="261.08 196.98 269.41 184.48 272.44 189.08 281.5 189.08 274.62 178.66 264.22 178.66 252.02 196.98 261.08 196.98" fill="#fff"/>
          <polygon points="295.16 185.84 286.83 198.34 283.8 193.74 274.74 193.74 281.62 204.16 292.02 204.16 304.22 185.84 295.16 185.84" fill="#fff"/>
          <polygon points="278.48 225.31 286.81 212.82 289.84 217.41 298.9 217.41 292.02 206.99 281.62 206.99 269.42 225.31 278.48 225.31" fill="#fff"/>
          <polygon points="312.56 214.17 304.23 226.67 301.2 222.08 292.14 222.08 299.02 232.5 309.42 232.5 321.62 214.17 312.56 214.17" fill="#fff"/>
          <polygon points="295.88 253.65 304.21 241.15 307.24 245.74 316.3 245.74 309.42 235.33 299.02 235.33 286.82 253.65 295.88 253.65" fill="#fff"/>
          <polygon points="329.96 242.51 321.63 255.01 318.6 250.41 309.54 250.41 316.42 260.83 326.82 260.83 339.02 242.51 329.96 242.51" fill="#fff"/>
          <polygon points="313.28 281.98 321.61 269.49 324.64 274.08 333.7 274.08 326.82 263.66 316.42 263.66 304.22 281.98 313.28 281.98" fill="#fff"/>
          <polygon points="347.36 270.84 339.03 283.34 336 278.75 326.94 278.75 333.82 289.17 344.22 289.17 356.42 270.84 347.36 270.84" fill="#fff"/>
          <polygon points="330.68 310.32 339.01 297.82 342.04 302.41 351.1 302.41 344.22 291.99 333.82 291.99 321.62 310.32 330.68 310.32" fill="#fff"/>
          <polygon points="364.76 299.18 356.44 311.68 353.4 307.08 344.34 307.08 351.22 317.5 361.62 317.5 373.82 299.18 364.76 299.18" fill="#fff"/>
          <polygon points="348.08 338.65 356.41 326.16 359.44 330.75 368.5 330.75 361.62 320.33 351.22 320.33 339.02 338.65 348.08 338.65" fill="#fff"/>
          <polygon points="382.16 327.51 373.84 340.01 370.8 335.42 361.74 335.42 368.62 345.84 379.02 345.84 391.22 327.51 382.16 327.51" fill="#fff"/>
          <polygon points="365.48 366.99 373.81 354.49 376.84 359.08 385.9 359.08 379.02 348.66 368.62 348.66 356.42 366.99 365.48 366.99" fill="#fff"/>
          <polygon points="273.77 85.12 265.45 97.62 262.41 93.03 253.35 93.03 260.23 103.45 270.63 103.45 282.83 85.12 273.77 85.12" fill="#fff"/>
          <polygon points="257.09 124.6 265.42 112.1 268.45 116.69 277.52 116.69 270.63 106.27 260.24 106.27 248.03 124.6 257.09 124.6" fill="#fff"/>
          <polygon points="291.17 113.46 282.85 125.95 279.81 121.36 270.75 121.36 277.63 131.78 288.03 131.78 300.23 113.46 291.17 113.46" fill="#fff"/>
          <polygon points="274.49 152.93 282.82 140.43 285.85 145.03 294.92 145.03 288.03 134.61 277.64 134.61 265.43 152.93 274.49 152.93" fill="#fff"/>
          <polygon points="308.57 141.79 300.25 154.29 297.21 149.7 288.15 149.7 295.03 160.11 305.43 160.11 317.63 141.79 308.57 141.79" fill="#fff"/>
          <polygon points="291.89 181.27 300.22 168.77 303.25 173.36 312.32 173.36 305.43 162.94 295.04 162.94 282.83 181.27 291.89 181.27" fill="#fff"/>
          <polygon points="325.97 170.13 317.65 182.62 314.61 178.03 305.55 178.03 312.43 188.45 322.83 188.45 335.03 170.13 325.97 170.13" fill="#fff"/>
          <polygon points="309.29 209.6 317.62 197.1 320.65 201.7 329.72 201.7 322.83 191.28 312.44 191.28 300.23 209.6 309.29 209.6" fill="#fff"/>
          <polygon points="343.37 198.46 335.05 210.96 332.01 206.36 322.95 206.36 329.83 216.78 340.23 216.78 352.43 198.46 343.37 198.46" fill="#fff"/>
          <polygon points="326.69 237.94 335.02 225.44 338.05 230.03 347.12 230.03 340.23 219.61 329.84 219.61 317.63 237.94 326.69 237.94" fill="#fff"/>
          <polygon points="360.77 226.8 352.45 239.29 349.41 234.7 340.35 234.7 347.23 245.12 357.63 245.12 369.83 226.8 360.77 226.8" fill="#fff"/>
          <polygon points="344.1 266.27 352.42 253.77 355.45 258.37 364.52 258.37 357.63 247.95 347.24 247.95 335.03 266.27 344.1 266.27" fill="#fff"/>
          <polygon points="378.17 255.13 369.85 267.63 366.81 263.03 357.75 263.03 364.63 273.45 375.03 273.45 387.23 255.13 378.17 255.13" fill="#fff"/>
          <polygon points="361.5 294.6 369.82 282.11 372.85 286.7 381.92 286.7 375.03 276.28 364.64 276.28 352.43 294.6 361.5 294.6" fill="#fff"/>
          <polygon points="395.57 283.46 387.25 295.96 384.21 291.37 375.15 291.37 382.03 301.79 392.43 301.79 404.63 283.46 395.57 283.46" fill="#fff"/>
          <polygon points="378.9 322.94 387.22 310.44 390.25 315.04 399.32 315.04 392.43 304.62 382.04 304.62 369.83 322.94 378.9 322.94" fill="#fff"/>
          <polygon points="396.3 351.27 404.62 338.78 407.65 343.37 416.72 343.37 409.83 332.95 399.44 332.95 387.23 351.27 396.3 351.27" fill="#fff"/>
          <polygon points="305.91 67.36 297.59 79.86 294.55 75.27 285.49 75.27 292.38 85.69 302.77 85.69 314.97 67.36 305.91 67.36" fill="#fff"/>
          <polygon points="289.24 106.84 297.56 94.34 300.59 98.93 309.66 98.93 302.77 88.52 292.38 88.52 280.17 106.84 289.24 106.84" fill="#fff"/>
          <polygon points="323.31 95.7 314.99 108.2 311.95 103.6 302.89 103.6 309.78 114.02 320.17 114.02 332.37 95.7 323.31 95.7" fill="#fff"/>
          <polygon points="306.64 135.17 314.96 122.68 318 127.27 327.06 127.27 320.17 116.85 309.78 116.85 297.57 135.17 306.64 135.17" fill="#fff"/>
          <polygon points="340.71 124.03 332.39 136.53 329.35 131.94 320.29 131.94 327.18 142.36 337.57 142.36 349.77 124.03 340.71 124.03" fill="#fff"/>
          <polygon points="324.04 163.51 332.36 151.01 335.4 155.6 344.46 155.6 337.57 145.18 327.18 145.18 314.97 163.51 324.04 163.51" fill="#fff"/>
          <polygon points="358.11 152.37 349.79 164.87 346.75 160.27 337.69 160.27 344.58 170.69 354.97 170.69 367.17 152.37 358.11 152.37" fill="#fff"/>
          <polygon points="341.44 191.84 349.76 179.34 352.8 183.94 361.86 183.94 354.97 173.52 344.58 173.52 332.37 191.84 341.44 191.84" fill="#fff"/>
          <polygon points="375.51 180.7 367.19 193.2 364.15 188.61 355.09 188.61 361.98 199.03 372.37 199.03 384.57 180.7 375.51 180.7" fill="#fff"/>
          <polygon points="358.84 220.18 367.16 207.68 370.2 212.27 379.26 212.27 372.37 201.85 361.98 201.85 349.77 220.18 358.84 220.18" fill="#fff"/>
          <polygon points="392.91 209.04 384.59 221.53 381.55 216.94 372.49 216.94 379.38 227.36 389.77 227.36 401.98 209.04 392.91 209.04" fill="#fff"/>
          <polygon points="376.24 248.51 384.56 236.01 387.6 240.61 396.66 240.61 389.77 230.19 379.38 230.19 367.17 248.51 376.24 248.51" fill="#fff"/>
          <polygon points="410.31 237.37 401.99 249.87 398.95 245.28 389.89 245.28 396.78 255.69 407.17 255.69 419.38 237.37 410.31 237.37" fill="#fff"/>
          <polygon points="393.64 276.85 401.96 264.35 405 268.94 414.06 268.94 407.17 258.52 396.78 258.52 384.57 276.85 393.64 276.85" fill="#fff"/>
          <polygon points="336.72 51.65 328.4 64.15 325.37 59.55 316.3 59.55 323.19 69.97 333.58 69.97 345.79 51.65 336.72 51.65" fill="#fff"/>
          <polygon points="320.05 91.13 328.37 78.63 331.41 83.22 340.47 83.22 333.59 72.8 323.19 72.8 310.99 91.13 320.05 91.13" fill="#fff"/>
          <polygon points="354.12 79.98 345.8 92.48 342.77 87.89 333.7 87.89 340.59 98.31 350.98 98.31 363.19 79.98 354.12 79.98" fill="#fff"/>
          <polygon points="337.45 119.46 345.77 106.96 348.81 111.56 357.87 111.56 350.99 101.14 340.59 101.14 328.39 119.46 337.45 119.46" fill="#fff"/>
          <polygon points="371.52 108.32 363.2 120.82 360.17 116.22 351.1 116.22 357.99 126.64 368.38 126.64 380.59 108.32 371.52 108.32" fill="#fff"/>
          <polygon points="354.85 147.79 363.17 135.3 366.21 139.89 375.27 139.89 368.39 129.47 357.99 129.47 345.79 147.79 354.85 147.79" fill="#fff"/>
          <polygon points="388.93 136.65 380.6 149.15 377.57 144.56 368.5 144.56 375.39 154.98 385.78 154.98 397.99 136.65 388.93 136.65" fill="#fff"/>
          <polygon points="372.25 176.13 380.57 163.63 383.61 168.22 392.67 168.22 385.79 157.81 375.39 157.81 363.19 176.13 372.25 176.13" fill="#fff"/>
          <polygon points="406.33 164.99 398 177.49 394.97 172.89 385.9 172.89 392.79 183.31 403.18 183.31 415.39 164.99 406.33 164.99" fill="#fff"/>
          <polygon points="389.65 204.46 397.97 191.97 401.01 196.56 410.07 196.56 403.19 186.14 392.79 186.14 380.59 204.46 389.65 204.46" fill="#fff"/>
          <polygon points="368.87 33.89 360.54 46.39 357.51 41.8 348.45 41.8 355.33 52.21 365.72 52.21 377.93 33.89 368.87 33.89" fill="#fff"/>
          <polygon points="352.19 73.37 360.51 60.87 363.55 65.46 372.61 65.46 365.73 55.04 355.33 55.04 343.13 73.37 352.19 73.37" fill="#fff"/>
          <polygon points="386.27 62.23 377.94 74.72 374.91 70.13 365.85 70.13 372.73 80.55 383.13 80.55 395.33 62.23 386.27 62.23" fill="#fff"/>
          <polygon points="369.59 101.7 377.91 89.2 380.95 93.8 390.01 93.8 383.13 83.38 372.73 83.38 360.53 101.7 369.59 101.7" fill="#fff"/>
          <polygon points="403.67 90.56 395.34 103.06 392.31 98.47 383.25 98.47 390.13 108.88 400.53 108.88 412.73 90.56 403.67 90.56" fill="#fff"/>
          <polygon points="386.99 130.04 395.31 117.54 398.35 122.13 407.41 122.13 400.53 111.71 390.13 111.71 377.93 130.04 386.99 130.04" fill="#fff"/>
          <polygon points="399.68 18.18 391.36 30.68 388.32 26.08 379.26 26.08 386.14 36.5 396.54 36.5 408.74 18.18 399.68 18.18" fill="#fff"/>
          <polygon points="383 57.65 391.33 45.16 394.36 49.75 403.42 49.75 396.54 39.33 386.14 39.33 373.94 57.65 383 57.65" fill="#fff"/>
        </g>
        <g>
          <polygon points="241.51 440.86 233.18 453.36 230.15 448.76 221.09 448.76 227.97 459.18 238.37 459.18 250.57 440.86 241.51 440.86" fill="#fff"/>
          <polygon points="224.83 480.33 233.16 467.84 236.19 472.43 245.25 472.43 238.37 462.01 227.97 462.01 215.77 480.33 224.83 480.33" fill="#fff"/>
          <polygon points="258.91 469.19 250.58 481.69 247.55 477.1 238.49 477.1 245.37 487.52 255.77 487.52 267.97 469.19 258.91 469.19" fill="#fff"/>
          <polygon points="242.23 508.67 250.56 496.17 253.59 500.76 262.65 500.76 255.77 490.35 245.37 490.35 233.17 508.67 242.23 508.67" fill="#fff"/>
          <polygon points="276.31 497.53 267.99 510.03 264.95 505.43 255.89 505.43 262.77 515.85 273.17 515.85 285.37 497.53 276.31 497.53" fill="#fff"/>
          <polygon points="259.63 537 267.96 524.51 270.99 529.1 280.05 529.1 273.17 518.68 262.77 518.68 250.57 537 259.63 537" fill="#fff"/>
          <polygon points="293.71 525.86 285.39 538.36 282.35 533.77 273.29 533.77 280.17 544.19 290.57 544.19 302.77 525.86 293.71 525.86" fill="#fff"/>
          <polygon points="277.03 565.34 285.36 552.84 288.39 557.43 297.45 557.43 290.57 547.02 280.17 547.02 267.97 565.34 277.03 565.34" fill="#fff"/>
          <polygon points="311.11 554.2 302.79 566.7 299.75 562.1 290.69 562.1 297.57 572.52 307.97 572.52 320.17 554.2 311.11 554.2" fill="#fff"/>
          <polygon points="294.43 593.67 302.76 581.18 305.79 585.77 314.85 585.77 307.97 575.35 297.57 575.35 285.37 593.67 294.43 593.67" fill="#fff"/>
          <polygon points="328.51 582.53 320.19 595.03 317.15 590.44 308.09 590.44 314.97 600.86 325.37 600.86 337.57 582.53 328.51 582.53" fill="#fff"/>
          <polygon points="311.83 622.01 320.16 609.51 323.19 614.1 332.25 614.1 325.37 603.68 314.97 603.68 302.77 622.01 311.83 622.01" fill="#fff"/>
          <polygon points="345.91 610.87 337.59 623.36 334.55 618.77 325.49 618.77 332.37 629.19 342.77 629.19 354.97 610.87 345.91 610.87" fill="#fff"/>
          <polygon points="329.23 650.34 337.56 637.84 340.59 642.44 349.65 642.44 342.77 632.02 332.38 632.02 320.17 650.34 329.23 650.34" fill="#fff"/>
          <polygon points="363.31 639.2 354.99 651.7 351.95 647.11 342.89 647.11 349.77 657.52 360.17 657.52 372.37 639.2 363.31 639.2" fill="#fff"/>
          <polygon points="346.63 678.68 354.96 666.18 357.99 670.77 367.05 670.77 360.17 660.35 349.78 660.35 337.57 678.68 346.63 678.68" fill="#fff"/>
          <polygon points="380.71 667.54 372.39 680.03 369.35 675.44 360.29 675.44 367.17 685.86 377.57 685.86 389.77 667.54 380.71 667.54" fill="#fff"/>
          <polygon points="364.03 707.01 372.36 694.51 375.39 699.11 384.46 699.11 377.57 688.69 367.18 688.69 354.97 707.01 364.03 707.01" fill="#fff"/>
          <polygon points="273.65 423.1 265.33 435.6 262.29 431.01 253.23 431.01 260.11 441.42 270.51 441.42 282.71 423.1 273.65 423.1" fill="#fff"/>
          <polygon points="256.97 462.58 265.3 450.08 268.33 454.67 277.4 454.67 270.51 444.25 260.12 444.25 247.91 462.58 256.97 462.58" fill="#fff"/>
          <polygon points="291.05 451.44 282.73 463.93 279.69 459.34 270.63 459.34 277.51 469.76 287.91 469.76 300.11 451.44 291.05 451.44" fill="#fff"/>
          <polygon points="274.37 490.91 282.7 478.41 285.73 483.01 294.8 483.01 287.91 472.59 277.52 472.59 265.31 490.91 274.37 490.91" fill="#fff"/>
          <polygon points="308.45 479.77 300.13 492.27 297.09 487.67 288.03 487.67 294.91 498.09 305.31 498.09 317.51 479.77 308.45 479.77" fill="#fff"/>
          <polygon points="291.77 519.25 300.1 506.75 303.13 511.34 312.2 511.34 305.31 500.92 294.92 500.92 282.71 519.25 291.77 519.25" fill="#fff"/>
          <polygon points="325.85 508.1 317.53 520.6 314.49 516.01 305.43 516.01 312.31 526.43 322.71 526.43 334.91 508.1 325.85 508.1" fill="#fff"/>
          <polygon points="309.17 547.58 317.5 535.08 320.53 539.68 329.6 539.68 322.71 529.26 312.32 529.26 300.11 547.58 309.17 547.58" fill="#fff"/>
          <polygon points="343.25 536.44 334.93 548.94 331.89 544.34 322.83 544.34 329.71 554.76 340.11 554.76 352.31 536.44 343.25 536.44" fill="#fff"/>
          <polygon points="326.58 575.91 334.9 563.42 337.93 568.01 347 568.01 340.11 557.59 329.72 557.59 317.51 575.91 326.58 575.91" fill="#fff"/>
          <polygon points="360.65 564.77 352.33 577.27 349.29 572.68 340.23 572.68 347.11 583.1 357.51 583.1 369.71 564.77 360.65 564.77" fill="#fff"/>
          <polygon points="343.98 604.25 352.3 591.75 355.33 596.34 364.4 596.34 357.51 585.93 347.12 585.93 334.91 604.25 343.98 604.25" fill="#fff"/>
          <polygon points="378.05 593.11 369.73 605.61 366.69 601.01 357.63 601.01 364.51 611.43 374.91 611.43 387.11 593.11 378.05 593.11" fill="#fff"/>
          <polygon points="361.38 632.58 369.7 620.09 372.73 624.68 381.8 624.68 374.91 614.26 364.52 614.26 352.31 632.58 361.38 632.58" fill="#fff"/>
          <polygon points="395.45 621.44 387.13 633.94 384.09 629.35 375.03 629.35 381.91 639.77 392.31 639.77 404.51 621.44 395.45 621.44" fill="#fff"/>
          <polygon points="378.78 660.92 387.1 648.42 390.13 653.01 399.2 653.01 392.31 642.59 381.92 642.59 369.71 660.92 378.78 660.92" fill="#fff"/>
          <polygon points="396.18 689.25 404.5 676.75 407.53 681.35 416.6 681.35 409.71 670.93 399.32 670.93 387.11 689.25 396.18 689.25" fill="#fff"/>
          <polygon points="304.46 407.39 296.14 419.89 293.1 415.29 284.04 415.29 290.93 425.71 301.32 425.71 313.53 407.39 304.46 407.39" fill="#fff"/>
          <polygon points="287.79 446.86 296.11 434.36 299.15 438.96 308.21 438.96 301.32 428.54 290.93 428.54 278.72 446.86 287.79 446.86" fill="#fff"/>
          <polygon points="321.86 435.72 313.54 448.22 310.5 443.63 301.44 443.63 308.33 454.05 318.72 454.05 330.93 435.72 321.86 435.72" fill="#fff"/>
          <polygon points="305.19 475.2 313.51 462.7 316.55 467.29 325.61 467.29 318.72 456.87 308.33 456.87 296.12 475.2 305.19 475.2" fill="#fff"/>
          <polygon points="339.26 464.06 330.94 476.55 327.9 471.96 318.84 471.96 325.73 482.38 336.12 482.38 348.33 464.06 339.26 464.06" fill="#fff"/>
          <polygon points="322.59 503.53 330.91 491.03 333.95 495.63 343.01 495.63 336.12 485.21 325.73 485.21 313.53 503.53 322.59 503.53" fill="#fff"/>
          <polygon points="356.66 492.39 348.34 504.89 345.3 500.3 336.24 500.3 343.13 510.71 353.52 510.71 365.73 492.39 356.66 492.39" fill="#fff"/>
          <polygon points="339.99 531.87 348.31 519.37 351.35 523.96 360.41 523.96 353.52 513.54 343.13 513.54 330.93 531.87 339.99 531.87" fill="#fff"/>
          <polygon points="374.06 520.73 365.74 533.22 362.7 528.63 353.64 528.63 360.53 539.05 370.92 539.05 383.13 520.73 374.06 520.73" fill="#fff"/>
          <polygon points="357.39 560.2 365.71 547.7 368.75 552.3 377.81 552.3 370.92 541.88 360.53 541.88 348.33 560.2 357.39 560.2" fill="#fff"/>
          <polygon points="391.46 549.06 383.14 561.56 380.1 556.96 371.04 556.96 377.93 567.38 388.32 567.38 400.53 549.06 391.46 549.06" fill="#fff"/>
          <polygon points="374.79 588.54 383.11 576.04 386.15 580.63 395.21 580.63 388.32 570.21 377.93 570.21 365.73 588.54 374.79 588.54" fill="#fff"/>
          <polygon points="408.86 577.39 400.54 589.89 397.51 585.3 388.44 585.3 395.33 595.72 405.72 595.72 417.93 577.39 408.86 577.39" fill="#fff"/>
          <polygon points="392.19 616.87 400.51 604.37 403.55 608.97 412.61 608.97 405.72 598.55 395.33 598.55 383.13 616.87 392.19 616.87" fill="#fff"/>
          <polygon points="336.6 389.63 328.28 402.13 325.25 397.53 316.18 397.53 323.07 407.95 333.46 407.95 345.67 389.63 336.6 389.63" fill="#fff"/>
          <polygon points="319.93 429.1 328.25 416.61 331.29 421.2 340.35 421.2 333.47 410.78 323.07 410.78 310.87 429.1 319.93 429.1" fill="#fff"/>
          <polygon points="354 417.96 345.68 430.46 342.65 425.87 333.58 425.87 340.47 436.29 350.86 436.29 363.07 417.96 354 417.96" fill="#fff"/>
          <polygon points="337.33 457.44 345.65 444.94 348.69 449.53 357.75 449.53 350.87 439.12 340.47 439.12 328.27 457.44 337.33 457.44" fill="#fff"/>
          <polygon points="371.41 446.3 363.08 458.8 360.05 454.2 350.98 454.2 357.87 464.62 368.26 464.62 380.47 446.3 371.41 446.3" fill="#fff"/>
          <polygon points="354.73 485.77 363.05 473.28 366.09 477.87 375.15 477.87 368.27 467.45 357.87 467.45 345.67 485.77 354.73 485.77" fill="#fff"/>
          <polygon points="388.81 474.63 380.48 487.13 377.45 482.54 368.38 482.54 375.27 492.96 385.66 492.96 397.87 474.63 388.81 474.63" fill="#fff"/>
          <polygon points="372.13 514.11 380.45 501.61 383.49 506.2 392.55 506.2 385.67 495.78 375.27 495.78 363.07 514.11 372.13 514.11" fill="#fff"/>
          <polygon points="406.21 502.97 397.88 515.46 394.85 510.87 385.78 510.87 392.67 521.29 403.06 521.29 415.27 502.97 406.21 502.97" fill="#fff"/>
          <polygon points="389.53 542.44 397.85 529.94 400.89 534.54 409.95 534.54 403.07 524.12 392.67 524.12 380.47 542.44 389.53 542.44" fill="#fff"/>
          <polygon points="367.42 373.92 359.09 386.41 356.06 381.82 347 381.82 353.88 392.24 364.28 392.24 376.48 373.92 367.42 373.92" fill="#fff"/>
          <polygon points="350.74 413.39 359.07 400.89 362.1 405.49 371.16 405.49 364.28 395.07 353.88 395.07 341.68 413.39 350.74 413.39" fill="#fff"/>
          <polygon points="384.82 402.25 376.49 414.75 373.46 410.15 364.4 410.15 371.28 420.57 381.68 420.57 393.88 402.25 384.82 402.25" fill="#fff"/>
          <polygon points="368.14 441.73 376.47 429.23 379.5 433.82 388.56 433.82 381.68 423.4 371.28 423.4 359.08 441.73 368.14 441.73" fill="#fff"/>
          <polygon points="402.22 430.58 393.89 443.08 390.86 438.49 381.8 438.49 388.68 448.91 399.08 448.91 411.28 430.58 402.22 430.58" fill="#fff"/>
          <polygon points="385.54 470.06 393.87 457.56 396.9 462.16 405.96 462.16 399.08 451.74 388.68 451.74 376.48 470.06 385.54 470.06" fill="#fff"/>
          <polygon points="399.56 356.16 391.24 368.65 388.2 364.06 379.14 364.06 386.02 374.48 396.42 374.48 408.62 356.16 399.56 356.16" fill="#fff"/>
          <polygon points="382.88 395.63 391.21 383.13 394.24 387.73 403.3 387.73 396.42 377.31 386.02 377.31 373.82 395.63 382.88 395.63" fill="#fff"/>
          <polygon points="398.89 696.92 390.57 709.42 387.54 704.82 378.47 704.82 385.36 715.24 395.75 715.24 407.96 696.92 398.89 696.92" fill="#fff"/>
          <polygon points="382.22 736.39 390.54 723.9 393.58 728.49 402.64 728.49 395.76 718.07 385.36 718.07 373.16 736.39 382.22 736.39" fill="#fff"/>
        </g>
        <g>
          <polygon points="3.89 190.21 -4.44 202.71 -7.47 198.12 -16.53 198.12 -9.65 208.54 .75 208.54 12.95 190.21 3.89 190.21" fill="#fff"/>
          <polygon points="-12.79 229.69 -4.46 217.19 -1.43 221.78 7.63 221.78 .75 211.36 -9.65 211.36 -21.85 229.69 -12.79 229.69" fill="#fff"/>
          <polygon points="21.29 218.55 12.96 231.04 9.93 226.45 .87 226.45 7.75 236.87 18.15 236.87 30.35 218.55 21.29 218.55" fill="#fff"/>
          <polygon points="4.61 258.02 12.94 245.52 15.97 250.12 25.03 250.12 18.15 239.7 7.75 239.7 -4.45 258.02 4.61 258.02" fill="#fff"/>
          <polygon points="1.23 115.78 -7.09 128.28 -10.13 123.69 -19.19 123.69 -12.31 134.11 -1.91 134.11 10.29 115.78 1.23 115.78" fill="#fff"/>
          <polygon points="-15.45 155.26 -7.12 142.76 -4.09 147.36 4.97 147.36 -1.91 136.94 -12.31 136.94 -24.51 155.26 -15.45 155.26" fill="#fff"/>
          <polygon points="18.63 144.12 10.31 156.62 7.27 152.02 -1.79 152.02 5.09 162.44 15.49 162.44 27.69 144.12 18.63 144.12" fill="#fff"/>
          <polygon points="1.95 183.59 10.28 171.1 13.31 175.69 22.37 175.69 15.49 165.27 5.09 165.27 -7.11 183.59 1.95 183.59" fill="#fff"/>
          <polygon points="36.03 172.45 27.71 184.95 24.67 180.36 15.61 180.36 22.49 190.78 32.89 190.78 45.09 172.45 36.03 172.45" fill="#fff"/>
          <polygon points="19.35 211.93 27.68 199.43 30.71 204.02 39.77 204.02 32.89 193.61 22.49 193.61 10.29 211.93 19.35 211.93" fill="#fff"/>
          <polygon points="53.43 200.79 45.11 213.29 42.07 208.69 33.01 208.69 39.89 219.11 50.29 219.11 62.49 200.79 53.43 200.79" fill="#fff"/>
          <polygon points="36.75 240.26 45.08 227.77 48.11 232.36 57.17 232.36 50.29 221.94 39.89 221.94 27.69 240.26 36.75 240.26" fill="#fff"/>
          <polygon points="4.55 528.93 -3.77 541.43 -6.81 536.83 -15.87 536.83 -8.98 547.25 1.41 547.25 13.61 528.93 4.55 528.93" fill="#fff"/>
          <polygon points="-12.12 568.4 -3.8 555.91 -.77 560.5 8.3 560.5 1.41 550.08 -8.98 550.08 -21.19 568.4 -12.12 568.4" fill="#fff"/>
          <polygon points="21.95 557.26 13.63 569.76 10.59 565.17 1.53 565.17 8.42 575.59 18.81 575.59 31.01 557.26 21.95 557.26" fill="#fff"/>
          <polygon points="5.28 596.74 13.6 584.24 16.64 588.83 25.7 588.83 18.81 578.41 8.42 578.41 -3.79 596.74 5.28 596.74" fill="#fff"/>
          <polygon points=".56 456.55 -7.76 469.04 -10.79 464.45 -19.86 464.45 -12.97 474.87 -2.58 474.87 9.63 456.55 .56 456.55" fill="#fff"/>
          <polygon points="-16.11 496.02 -7.79 483.52 -4.75 488.12 4.31 488.12 -2.58 477.7 -12.97 477.7 -25.17 496.02 -16.11 496.02" fill="#fff"/>
          <polygon points="17.96 484.88 9.64 497.38 6.61 492.78 -2.46 492.78 4.43 503.2 14.82 503.2 27.03 484.88 17.96 484.88" fill="#fff"/>
          <polygon points="1.29 524.36 9.61 511.86 12.65 516.45 21.71 516.45 14.83 506.03 4.43 506.03 -7.77 524.36 1.29 524.36" fill="#fff"/>
          <polygon points="35.36 513.21 27.04 525.71 24.01 521.12 14.94 521.12 21.83 531.54 32.22 531.54 44.43 513.21 35.36 513.21" fill="#fff"/>
          <polygon points="18.69 552.69 27.01 540.19 30.05 544.79 39.11 544.79 32.23 534.37 21.83 534.37 9.63 552.69 18.69 552.69" fill="#fff"/>
          <polygon points="52.76 541.55 44.44 554.05 41.41 549.45 32.34 549.45 39.23 559.87 49.62 559.87 61.83 541.55 52.76 541.55" fill="#fff"/>
          <polygon points="36.09 581.02 44.41 568.53 47.45 573.12 56.51 573.12 49.63 562.7 39.23 562.7 27.03 581.02 36.09 581.02" fill="#fff"/>
          <polygon points="-2.09 382.12 -10.42 394.62 -13.45 390.02 -22.52 390.02 -15.63 400.44 -5.24 400.44 6.97 382.12 -2.09 382.12" fill="#fff"/>
          <polygon points="-18.77 421.59 -10.45 409.09 -7.41 413.69 1.65 413.69 -5.23 403.27 -15.63 403.27 -27.83 421.59 -18.77 421.59" fill="#fff"/>
          <polygon points="15.31 410.45 6.98 422.95 3.95 418.36 -5.12 418.36 1.77 428.78 12.16 428.78 24.37 410.45 15.31 410.45" fill="#fff"/>
          <polygon points="-1.37 449.93 6.95 437.43 9.99 442.02 19.05 442.02 12.17 431.6 1.77 431.6 -10.43 449.93 -1.37 449.93" fill="#fff"/>
          <polygon points="32.71 438.79 24.38 451.28 21.35 446.69 12.28 446.69 19.17 457.11 29.56 457.11 41.77 438.79 32.71 438.79" fill="#fff"/>
          <polygon points="16.03 478.26 24.35 465.76 27.39 470.36 36.45 470.36 29.57 459.94 19.17 459.94 6.97 478.26 16.03 478.26" fill="#fff"/>
          <polygon points="50.11 467.12 41.78 479.62 38.75 475.03 29.69 475.03 36.57 485.44 46.96 485.44 59.17 467.12 50.11 467.12" fill="#fff"/>
          <polygon points="33.43 506.6 41.75 494.1 44.79 498.69 53.85 498.69 46.97 488.27 36.57 488.27 24.37 506.6 33.43 506.6" fill="#fff"/>
          <polygon points="67.51 495.46 59.18 507.95 56.15 503.36 47.09 503.36 53.97 513.78 64.37 513.78 76.57 495.46 67.51 495.46" fill="#fff"/>
          <polygon points="50.83 534.93 59.15 522.43 62.19 527.03 71.25 527.03 64.37 516.61 53.97 516.61 41.77 534.93 50.83 534.93" fill="#fff"/>
          <polygon points="84.91 523.79 76.58 536.29 73.55 531.69 64.49 531.69 71.37 542.11 81.77 542.11 93.97 523.79 84.91 523.79" fill="#fff"/>
          <polygon points="68.23 563.27 76.55 550.77 79.59 555.36 88.65 555.36 81.77 544.94 71.37 544.94 59.17 563.27 68.23 563.27" fill="#fff"/>
          <polygon points="-6.08 309.73 -14.41 322.23 -17.44 317.64 -26.5 317.64 -19.62 328.06 -9.22 328.06 2.98 309.73 -6.08 309.73" fill="#fff"/>
          <polygon points="11.32 338.07 2.99 350.57 -.04 345.97 -9.1 345.97 -2.22 356.39 8.18 356.39 20.38 338.07 11.32 338.07" fill="#fff"/>
          <polygon points="-5.36 377.54 2.97 365.05 6 369.64 15.06 369.64 8.18 359.22 -2.22 359.22 -14.42 377.54 -5.36 377.54" fill="#fff"/>
          <polygon points="28.72 366.4 20.39 378.9 17.36 374.31 8.3 374.31 15.18 384.73 25.58 384.73 37.78 366.4 28.72 366.4" fill="#fff"/>
          <polygon points="12.04 405.88 20.37 393.38 23.4 397.97 32.46 397.97 25.58 387.56 15.18 387.56 2.98 405.88 12.04 405.88" fill="#fff"/>
          <polygon points="46.12 394.74 37.79 407.24 34.76 402.64 25.7 402.64 32.58 413.06 42.98 413.06 55.18 394.74 46.12 394.74" fill="#fff"/>
          <polygon points="29.44 434.21 37.77 421.72 40.8 426.31 49.86 426.31 42.98 415.89 32.58 415.89 20.38 434.21 29.44 434.21" fill="#fff"/>
          <polygon points="63.52 423.07 55.2 435.57 52.16 430.98 43.1 430.98 49.98 441.4 60.38 441.4 72.58 423.07 63.52 423.07" fill="#fff"/>
          <polygon points="46.84 462.55 55.17 450.05 58.2 454.64 67.26 454.64 60.38 444.23 49.98 444.23 37.78 462.55 46.84 462.55" fill="#fff"/>
          <polygon points="80.92 451.41 72.6 463.91 69.56 459.31 60.5 459.31 67.38 469.73 77.78 469.73 89.98 451.41 80.92 451.41" fill="#fff"/>
          <polygon points="64.24 490.88 72.57 478.39 75.6 482.98 84.66 482.98 77.78 472.56 67.38 472.56 55.18 490.88 64.24 490.88" fill="#fff"/>
          <polygon points="98.32 479.74 90 492.24 86.96 487.65 77.9 487.65 84.78 498.07 95.18 498.07 107.38 479.74 98.32 479.74" fill="#fff"/>
          <polygon points="81.64 519.22 89.97 506.72 93 511.31 102.06 511.31 95.18 500.89 84.78 500.89 72.58 519.22 81.64 519.22" fill="#fff"/>
          <polygon points="115.72 508.08 107.4 520.57 104.36 515.98 95.3 515.98 102.18 526.4 112.58 526.4 124.78 508.08 115.72 508.08" fill="#fff"/>
          <polygon points="99.04 547.55 107.37 535.05 110.4 539.65 119.46 539.65 112.58 529.23 102.18 529.23 89.98 547.55 99.04 547.55" fill="#fff"/>
          <polygon points="8.66 263.64 .34 276.14 -2.7 271.55 -11.76 271.55 -4.88 281.97 5.52 281.97 17.72 263.64 8.66 263.64" fill="#fff"/>
          <polygon points="-8.02 303.12 .31 290.62 3.34 295.21 12.4 295.21 5.52 284.79 -4.87 284.79 -17.08 303.12 -8.02 303.12" fill="#fff"/>
          <polygon points="26.06 291.98 17.74 304.47 14.7 299.88 5.64 299.88 12.52 310.3 22.92 310.3 35.12 291.98 26.06 291.98" fill="#fff"/>
          <polygon points="9.38 331.45 17.71 318.95 20.74 323.55 29.81 323.55 22.92 313.13 12.53 313.13 .32 331.45 9.38 331.45" fill="#fff"/>
          <polygon points="43.46 320.31 35.14 332.81 32.1 328.22 23.04 328.22 29.92 338.63 40.32 338.63 52.52 320.31 43.46 320.31" fill="#fff"/>
          <polygon points="26.78 359.79 35.11 347.29 38.14 351.88 47.21 351.88 40.32 341.46 29.93 341.46 17.72 359.79 26.78 359.79" fill="#fff"/>
          <polygon points="60.86 348.65 52.54 361.14 49.5 356.55 40.44 356.55 47.32 366.97 57.72 366.97 69.92 348.65 60.86 348.65" fill="#fff"/>
          <polygon points="44.18 388.12 52.51 375.62 55.54 380.22 64.61 380.22 57.72 369.8 47.33 369.8 35.12 388.12 44.18 388.12" fill="#fff"/>
          <polygon points="78.26 376.98 69.94 389.48 66.9 384.88 57.84 384.88 64.72 395.3 75.12 395.3 87.32 376.98 78.26 376.98" fill="#fff"/>
          <polygon points="61.58 416.46 69.91 403.96 72.94 408.55 82.01 408.55 75.12 398.13 64.73 398.13 52.52 416.46 61.58 416.46" fill="#fff"/>
          <polygon points="95.66 405.31 87.34 417.81 84.3 413.22 75.24 413.22 82.12 423.64 92.52 423.64 104.72 405.31 95.66 405.31" fill="#fff"/>
          <polygon points="78.98 444.79 87.31 432.29 90.34 436.89 99.41 436.89 92.52 426.47 82.13 426.47 69.92 444.79 78.98 444.79" fill="#fff"/>
          <polygon points="113.06 433.65 104.74 446.15 101.7 441.55 92.64 441.55 99.52 451.97 109.92 451.97 122.12 433.65 113.06 433.65" fill="#fff"/>
          <polygon points="96.38 473.12 104.71 460.63 107.74 465.22 116.81 465.22 109.92 454.8 99.53 454.8 87.32 473.12 96.38 473.12" fill="#fff"/>
          <polygon points="130.46 461.98 122.14 474.48 119.1 469.89 110.04 469.89 116.92 480.31 127.32 480.31 139.52 461.98 130.46 461.98" fill="#fff"/>
          <polygon points="113.79 501.46 122.11 488.96 125.14 493.55 134.21 493.55 127.32 483.14 116.93 483.14 104.72 501.46 113.79 501.46" fill="#fff"/>
          <polygon points="147.86 490.32 139.54 502.82 136.5 498.22 127.44 498.22 134.32 508.64 144.72 508.64 156.92 490.32 147.86 490.32" fill="#fff"/>
          <polygon points="131.19 529.79 139.51 517.3 142.54 521.89 151.61 521.89 144.72 511.47 134.33 511.47 122.12 529.79 131.19 529.79" fill="#fff"/>
          <polygon points="39.47 247.93 31.15 260.43 28.11 255.83 19.05 255.83 25.94 266.25 36.33 266.25 48.53 247.93 39.47 247.93" fill="#fff"/>
          <polygon points="22.8 287.4 31.12 274.91 34.16 279.5 43.22 279.5 36.33 269.08 25.94 269.08 13.73 287.4 22.8 287.4" fill="#fff"/>
          <polygon points="56.87 276.26 48.55 288.76 45.51 284.17 36.45 284.17 43.34 294.59 53.73 294.59 65.93 276.26 56.87 276.26" fill="#fff"/>
          <polygon points="40.2 315.74 48.52 303.24 51.56 307.83 60.62 307.83 53.73 297.41 43.34 297.41 31.13 315.74 40.2 315.74" fill="#fff"/>
          <polygon points="74.27 304.6 65.95 317.1 62.91 312.5 53.85 312.5 60.74 322.92 71.13 322.92 83.33 304.6 74.27 304.6" fill="#fff"/>
          <polygon points="57.6 344.07 65.92 331.57 68.96 336.17 78.02 336.17 71.13 325.75 60.74 325.75 48.53 344.07 57.6 344.07" fill="#fff"/>
          <polygon points="91.67 332.93 83.35 345.43 80.31 340.84 71.25 340.84 78.14 351.26 88.53 351.26 100.74 332.93 91.67 332.93" fill="#fff"/>
          <polygon points="75 372.41 83.32 359.91 86.36 364.5 95.42 364.5 88.53 354.08 78.14 354.08 65.93 372.41 75 372.41" fill="#fff"/>
          <polygon points="109.07 361.27 100.75 373.76 97.71 369.17 88.65 369.17 95.54 379.59 105.93 379.59 118.14 361.27 109.07 361.27" fill="#fff"/>
          <polygon points="92.4 400.74 100.72 388.24 103.76 392.84 112.82 392.84 105.93 382.42 95.54 382.42 83.33 400.74 92.4 400.74" fill="#fff"/>
          <polygon points="126.47 389.6 118.15 402.1 115.11 397.51 106.05 397.51 112.94 407.92 123.33 407.92 135.54 389.6 126.47 389.6" fill="#fff"/>
          <polygon points="109.8 429.08 118.12 416.58 121.16 421.17 130.22 421.17 123.33 410.75 112.94 410.75 100.74 429.08 109.8 429.08" fill="#fff"/>
          <polygon points="143.87 417.94 135.55 430.43 132.51 425.84 123.45 425.84 130.34 436.26 140.73 436.26 152.94 417.94 143.87 417.94" fill="#fff"/>
          <polygon points="127.2 457.41 135.52 444.91 138.56 449.51 147.62 449.51 140.73 439.09 130.34 439.09 118.14 457.41 127.2 457.41" fill="#fff"/>
          <polygon points="161.27 446.27 152.95 458.77 149.91 454.17 140.85 454.17 147.74 464.59 158.13 464.59 170.34 446.27 161.27 446.27" fill="#fff"/>
          <polygon points="144.6 485.75 152.92 473.25 155.96 477.84 165.02 477.84 158.13 467.42 147.74 467.42 135.54 485.75 144.6 485.75" fill="#fff"/>
          <polygon points="178.67 474.6 170.35 487.1 167.31 482.51 158.25 482.51 165.14 492.93 175.53 492.93 187.74 474.6 178.67 474.6" fill="#fff"/>
          <polygon points="162 514.08 170.32 501.58 173.36 506.18 182.42 506.18 175.53 495.76 165.14 495.76 152.94 514.08 162 514.08" fill="#fff"/>
          <polygon points="71.61 230.17 63.29 242.67 60.26 238.07 51.19 238.07 58.08 248.49 68.47 248.49 80.68 230.17 71.61 230.17" fill="#fff"/>
          <polygon points="54.94 269.64 63.26 257.15 66.3 261.74 75.36 261.74 68.47 251.32 58.08 251.32 45.88 269.64 54.94 269.64" fill="#fff"/>
          <polygon points="89.01 258.5 80.69 271 77.66 266.41 68.59 266.41 75.48 276.83 85.87 276.83 98.08 258.5 89.01 258.5" fill="#fff"/>
          <polygon points="72.34 297.98 80.66 285.48 83.7 290.08 92.76 290.08 85.88 279.66 75.48 279.66 63.28 297.98 72.34 297.98" fill="#fff"/>
          <polygon points="106.41 286.84 98.09 299.34 95.06 294.74 85.99 294.74 92.88 305.16 103.27 305.16 115.48 286.84 106.41 286.84" fill="#fff"/>
          <polygon points="89.74 326.31 98.06 313.82 101.1 318.41 110.16 318.41 103.28 307.99 92.88 307.99 80.68 326.31 89.74 326.31" fill="#fff"/>
          <polygon points="123.81 315.17 115.49 327.67 112.46 323.08 103.39 323.08 110.28 333.5 120.67 333.5 132.88 315.17 123.81 315.17" fill="#fff"/>
          <polygon points="107.14 354.65 115.46 342.15 118.5 346.74 127.56 346.74 120.68 336.33 110.28 336.33 98.08 354.65 107.14 354.65" fill="#fff"/>
          <polygon points="141.21 343.51 132.89 356.01 129.86 351.41 120.79 351.41 127.68 361.83 138.07 361.83 150.28 343.51 141.21 343.51" fill="#fff"/>
          <polygon points="124.54 382.98 132.86 370.49 135.9 375.08 144.96 375.08 138.08 364.66 127.68 364.66 115.48 382.98 124.54 382.98" fill="#fff"/>
          <polygon points="158.61 371.84 150.29 384.34 147.26 379.75 138.19 379.75 145.08 390.17 155.47 390.17 167.68 371.84 158.61 371.84" fill="#fff"/>
          <polygon points="141.94 411.32 150.26 398.82 153.3 403.41 162.36 403.41 155.48 392.99 145.08 392.99 132.88 411.32 141.94 411.32" fill="#fff"/>
          <polygon points="176.02 400.18 167.69 412.67 164.66 408.08 155.59 408.08 162.48 418.5 172.87 418.5 185.08 400.18 176.02 400.18" fill="#fff"/>
          <polygon points="159.34 439.65 167.66 427.15 170.7 431.75 179.76 431.75 172.88 421.33 162.48 421.33 150.28 439.65 159.34 439.65" fill="#fff"/>
          <polygon points="193.42 428.51 185.09 441.01 182.06 436.42 172.99 436.42 179.88 446.84 190.27 446.84 202.48 428.51 193.42 428.51" fill="#fff"/>
          <polygon points="176.74 467.99 185.06 455.49 188.1 460.08 197.16 460.08 190.28 449.66 179.88 449.66 167.68 467.99 176.74 467.99" fill="#fff"/>
          <polygon points="210.82 456.85 202.49 469.34 199.46 464.75 190.39 464.75 197.28 475.17 207.67 475.17 219.88 456.85 210.82 456.85" fill="#fff"/>
          <polygon points="194.14 496.32 202.46 483.82 205.5 488.42 214.56 488.42 207.68 478 197.28 478 185.08 496.32 194.14 496.32" fill="#fff"/>
        </g>
        <g>
          <polygon points="1.44 870.62 -6.88 883.12 -9.92 878.52 -18.98 878.52 -12.1 888.94 -1.7 888.94 10.5 870.62 1.44 870.62" fill="#fff"/>
          <polygon points="-1.22 796.19 -9.54 808.69 -12.58 804.1 -21.64 804.1 -14.75 814.52 -4.36 814.52 7.85 796.19 -1.22 796.19" fill="#fff"/>
          <polygon points="-17.89 835.67 -9.57 823.17 -6.53 827.76 2.53 827.76 -4.36 817.34 -14.75 817.34 -26.96 835.67 -17.89 835.67" fill="#fff"/>
          <polygon points="16.18 824.53 7.86 837.03 4.82 832.43 -4.24 832.43 2.65 842.85 13.04 842.85 25.25 824.53 16.18 824.53" fill="#fff"/>
          <polygon points="-.49 864 7.83 851.5 10.87 856.1 19.93 856.1 13.04 845.68 2.65 845.68 -9.56 864 -.49 864" fill="#fff"/>
          <polygon points="33.58 852.86 25.26 865.36 22.22 860.77 13.16 860.77 20.05 871.19 30.44 871.19 42.65 852.86 33.58 852.86" fill="#fff"/>
          <polygon points="16.91 892.34 25.23 879.84 28.27 884.43 37.33 884.43 30.44 874.01 20.05 874.01 7.85 892.34 16.91 892.34" fill="#fff"/>
          <polygon points="50.98 881.2 42.66 893.69 39.62 889.1 30.56 889.1 37.45 899.52 47.84 899.52 60.05 881.2 50.98 881.2" fill="#fff"/>
          <polygon points="-5.2 723.81 -13.53 736.31 -16.56 731.71 -25.63 731.71 -18.74 742.13 -8.35 742.13 3.86 723.81 -5.2 723.81" fill="#fff"/>
          <polygon points="12.2 752.14 3.87 764.64 .84 760.05 -8.23 760.05 -1.34 770.47 9.05 770.47 21.26 752.14 12.2 752.14" fill="#fff"/>
          <polygon points="-4.48 791.62 3.84 779.12 6.88 783.72 15.94 783.72 9.06 773.3 -1.34 773.3 -13.54 791.62 -4.48 791.62" fill="#fff"/>
          <polygon points="29.6 780.48 21.27 792.98 18.24 788.38 9.17 788.38 16.06 798.8 26.45 798.8 38.66 780.48 29.6 780.48" fill="#fff"/>
          <polygon points="12.92 819.95 21.24 807.46 24.28 812.05 33.34 812.05 26.46 801.63 16.06 801.63 3.86 819.95 12.92 819.95" fill="#fff"/>
          <polygon points="47 808.81 38.67 821.31 35.64 816.72 26.57 816.72 33.46 827.14 43.85 827.14 56.06 808.81 47 808.81" fill="#fff"/>
          <polygon points="30.32 848.29 38.64 835.79 41.68 840.38 50.74 840.38 43.86 829.97 33.46 829.97 21.26 848.29 30.32 848.29" fill="#fff"/>
          <polygon points="64.4 837.15 56.07 849.65 53.04 845.05 43.97 845.05 50.86 855.47 61.25 855.47 73.46 837.15 64.4 837.15" fill="#fff"/>
          <polygon points="47.72 876.62 56.04 864.13 59.08 868.72 68.14 868.72 61.26 858.3 50.86 858.3 38.66 876.62 47.72 876.62" fill="#fff"/>
          <polygon points="81.8 865.48 73.47 877.98 70.44 873.39 61.37 873.39 68.26 883.81 78.65 883.81 90.86 865.48 81.8 865.48" fill="#fff"/>
          <polygon points="-7.86 649.38 -16.19 661.88 -19.22 657.29 -28.28 657.29 -21.4 667.71 -11 667.71 1.2 649.38 -7.86 649.38" fill="#fff"/>
          <polygon points="9.54 677.72 1.21 690.21 -1.82 685.62 -10.88 685.62 -4 696.04 6.4 696.04 18.6 677.72 9.54 677.72" fill="#fff"/>
          <polygon points="-7.14 717.19 1.18 704.69 4.22 709.29 13.28 709.29 6.4 698.87 -4 698.87 -16.2 717.19 -7.14 717.19" fill="#fff"/>
          <polygon points="26.94 706.05 18.61 718.55 15.58 713.96 6.52 713.96 13.4 724.37 23.8 724.37 36 706.05 26.94 706.05" fill="#fff"/>
          <polygon points="10.26 745.53 18.58 733.03 21.62 737.62 30.68 737.62 23.8 727.2 13.4 727.2 1.2 745.53 10.26 745.53" fill="#fff"/>
          <polygon points="44.34 734.39 36.01 746.88 32.98 742.29 23.92 742.29 30.8 752.71 41.2 752.71 53.4 734.39 44.34 734.39" fill="#fff"/>
          <polygon points="27.66 773.86 35.98 761.36 39.02 765.96 48.08 765.96 41.2 755.54 30.8 755.54 18.6 773.86 27.66 773.86" fill="#fff"/>
          <polygon points="61.74 762.72 53.41 775.22 50.38 770.63 41.32 770.63 48.2 781.04 58.6 781.04 70.8 762.72 61.74 762.72" fill="#fff"/>
          <polygon points="45.06 802.2 53.39 789.7 56.42 794.29 65.48 794.29 58.6 783.87 48.2 783.87 36 802.2 45.06 802.2" fill="#fff"/>
          <polygon points="79.14 791.06 70.81 803.55 67.78 798.96 58.72 798.96 65.6 809.38 76 809.38 88.2 791.06 79.14 791.06" fill="#fff"/>
          <polygon points="62.46 830.53 70.79 818.03 73.82 822.63 82.88 822.63 76 812.21 65.6 812.21 53.4 830.53 62.46 830.53" fill="#fff"/>
          <polygon points="96.54 819.39 88.21 831.89 85.18 827.29 76.12 827.29 83 837.71 93.4 837.71 105.6 819.39 96.54 819.39" fill="#fff"/>
          <polygon points="79.86 858.87 88.19 846.37 91.22 850.96 100.28 850.96 93.4 840.54 83 840.54 70.8 858.87 79.86 858.87" fill="#fff"/>
          <polygon points="113.94 847.72 105.61 860.22 102.58 855.63 93.52 855.63 100.4 866.05 110.8 866.05 123 847.72 113.94 847.72" fill="#fff"/>
          <polygon points="97.26 887.2 105.59 874.7 108.62 879.3 117.68 879.3 110.8 868.88 100.4 868.88 88.2 887.2 97.26 887.2" fill="#fff"/>
          <polygon points="5.55 605.33 -2.77 617.83 -5.81 613.24 -14.87 613.24 -7.99 623.66 2.41 623.66 14.61 605.33 5.55 605.33" fill="#fff"/>
          <polygon points="-11.13 644.81 -2.8 632.31 .23 636.91 9.29 636.91 2.41 626.49 -7.99 626.49 -20.19 644.81 -11.13 644.81" fill="#fff"/>
          <polygon points="22.95 633.67 14.63 646.17 11.59 641.57 2.53 641.57 9.41 651.99 19.81 651.99 32.01 633.67 22.95 633.67" fill="#fff"/>
          <polygon points="6.27 673.14 14.6 660.65 17.63 665.24 26.69 665.24 19.81 654.82 9.41 654.82 -2.79 673.14 6.27 673.14" fill="#fff"/>
          <polygon points="40.35 662 32.03 674.5 28.99 669.91 19.93 669.91 26.81 680.33 37.21 680.33 49.41 662 40.35 662" fill="#fff"/>
          <polygon points="23.67 701.48 32 688.98 35.03 693.57 44.09 693.57 37.21 683.16 26.81 683.16 14.61 701.48 23.67 701.48" fill="#fff"/>
          <polygon points="57.75 690.34 49.43 702.84 46.39 698.24 37.33 698.24 44.21 708.66 54.61 708.66 66.81 690.34 57.75 690.34" fill="#fff"/>
          <polygon points="41.07 729.81 49.4 717.32 52.43 721.91 61.49 721.91 54.61 711.49 44.22 711.49 32.01 729.81 41.07 729.81" fill="#fff"/>
          <polygon points="75.15 718.67 66.83 731.17 63.79 726.58 54.73 726.58 61.61 737 72.01 737 84.21 718.67 75.15 718.67" fill="#fff"/>
          <polygon points="58.47 758.15 66.8 745.65 69.83 750.24 78.89 750.24 72.01 739.82 61.62 739.82 49.41 758.15 58.47 758.15" fill="#fff"/>
          <polygon points="92.55 747.01 84.23 759.51 81.19 754.91 72.13 754.91 79.01 765.33 89.41 765.33 101.61 747.01 92.55 747.01" fill="#fff"/>
          <polygon points="75.87 786.48 84.2 773.98 87.23 778.58 96.3 778.58 89.41 768.16 79.02 768.16 66.81 786.48 75.87 786.48" fill="#fff"/>
          <polygon points="109.95 775.34 101.63 787.84 98.59 783.25 89.53 783.25 96.41 793.67 106.81 793.67 119.01 775.34 109.95 775.34" fill="#fff"/>
          <polygon points="93.27 814.82 101.6 802.32 104.63 806.91 113.7 806.91 106.81 796.49 96.42 796.49 84.21 814.82 93.27 814.82" fill="#fff"/>
          <polygon points="127.35 803.68 119.03 816.17 115.99 811.58 106.93 811.58 113.81 822 124.21 822 136.41 803.68 127.35 803.68" fill="#fff"/>
          <polygon points="110.67 843.15 119 830.65 122.03 835.25 131.1 835.25 124.21 824.83 113.82 824.83 101.61 843.15 110.67 843.15" fill="#fff"/>
          <polygon points="144.75 832.01 136.43 844.51 133.39 839.92 124.33 839.92 131.21 850.33 141.61 850.33 153.81 832.01 144.75 832.01" fill="#fff"/>
          <polygon points="128.07 871.49 136.4 858.99 139.43 863.58 148.5 863.58 141.61 853.16 131.22 853.16 119.01 871.49 128.07 871.49" fill="#fff"/>
          <polygon points="37.69 587.58 29.37 600.07 26.33 595.48 17.27 595.48 24.15 605.9 34.55 605.9 46.75 587.58 37.69 587.58" fill="#fff"/>
          <polygon points="21.01 627.05 29.34 614.55 32.37 619.15 41.44 619.15 34.55 608.73 24.16 608.73 11.95 627.05 21.01 627.05" fill="#fff"/>
          <polygon points="55.09 615.91 46.77 628.41 43.73 623.81 34.67 623.81 41.55 634.23 51.95 634.23 64.15 615.91 55.09 615.91" fill="#fff"/>
          <polygon points="38.42 655.39 46.74 642.89 49.77 647.48 58.84 647.48 51.95 637.06 41.56 637.06 29.35 655.39 38.42 655.39" fill="#fff"/>
          <polygon points="72.49 644.24 64.17 656.74 61.13 652.15 52.07 652.15 58.95 662.57 69.35 662.57 81.55 644.24 72.49 644.24" fill="#fff"/>
          <polygon points="55.82 683.72 64.14 671.22 67.17 675.82 76.24 675.82 69.35 665.4 58.96 665.4 46.75 683.72 55.82 683.72" fill="#fff"/>
          <polygon points="89.89 672.58 81.57 685.08 78.53 680.48 69.47 680.48 76.35 690.9 86.75 690.9 98.95 672.58 89.89 672.58" fill="#fff"/>
          <polygon points="73.22 712.05 81.54 699.56 84.57 704.15 93.64 704.15 86.75 693.73 76.36 693.73 64.15 712.05 73.22 712.05" fill="#fff"/>
          <polygon points="107.29 700.91 98.97 713.41 95.93 708.82 86.87 708.82 93.75 719.24 104.15 719.24 116.35 700.91 107.29 700.91" fill="#fff"/>
          <polygon points="90.62 740.39 98.94 727.89 101.97 732.48 111.04 732.48 104.15 722.07 93.76 722.07 81.55 740.39 90.62 740.39" fill="#fff"/>
          <polygon points="124.69 729.25 116.37 741.75 113.33 737.15 104.27 737.15 111.16 747.57 121.55 747.57 133.75 729.25 124.69 729.25" fill="#fff"/>
          <polygon points="108.02 768.72 116.34 756.23 119.37 760.82 128.44 760.82 121.55 750.4 111.16 750.4 98.95 768.72 108.02 768.72" fill="#fff"/>
          <polygon points="142.09 757.58 133.77 770.08 130.73 765.49 121.67 765.49 128.56 775.91 138.95 775.91 151.15 757.58 142.09 757.58" fill="#fff"/>
          <polygon points="125.42 797.06 133.74 784.56 136.77 789.15 145.84 789.15 138.95 778.74 128.56 778.74 116.35 797.06 125.42 797.06" fill="#fff"/>
          <polygon points="159.49 785.92 151.17 798.42 148.13 793.82 139.07 793.82 145.96 804.24 156.35 804.24 168.55 785.92 159.49 785.92" fill="#fff"/>
          <polygon points="142.82 825.39 151.14 812.9 154.18 817.49 163.24 817.49 156.35 807.07 145.96 807.07 133.75 825.39 142.82 825.39" fill="#fff"/>
          <polygon points="176.89 814.25 168.57 826.75 165.53 822.16 156.47 822.16 163.36 832.58 173.75 832.58 185.95 814.25 176.89 814.25" fill="#fff"/>
          <polygon points="160.22 853.73 168.54 841.23 171.58 845.82 180.64 845.82 173.75 835.4 163.36 835.4 151.15 853.73 160.22 853.73" fill="#fff"/>
          <polygon points="68.5 571.86 60.18 584.36 57.14 579.77 48.08 579.77 54.97 590.19 65.36 590.19 77.57 571.86 68.5 571.86" fill="#fff"/>
          <polygon points="51.83 611.34 60.15 598.84 63.19 603.43 72.25 603.43 65.36 593.01 54.97 593.01 42.77 611.34 51.83 611.34" fill="#fff"/>
          <polygon points="85.9 600.2 77.58 612.69 74.54 608.1 65.48 608.1 72.37 618.52 82.76 618.52 94.97 600.2 85.9 600.2" fill="#fff"/>
          <polygon points="69.23 639.67 77.55 627.17 80.59 631.77 89.65 631.77 82.76 621.35 72.37 621.35 60.17 639.67 69.23 639.67" fill="#fff"/>
          <polygon points="103.3 628.53 94.98 641.03 91.94 636.44 82.88 636.44 89.77 646.85 100.16 646.85 112.37 628.53 103.3 628.53" fill="#fff"/>
          <polygon points="86.63 668.01 94.95 655.51 97.99 660.1 107.05 660.1 100.16 649.68 89.77 649.68 77.57 668.01 86.63 668.01" fill="#fff"/>
          <polygon points="120.7 656.87 112.38 669.36 109.35 664.77 100.28 664.77 107.17 675.19 117.56 675.19 129.77 656.87 120.7 656.87" fill="#fff"/>
          <polygon points="104.03 696.34 112.35 683.84 115.39 688.44 124.45 688.44 117.56 678.02 107.17 678.02 94.97 696.34 104.03 696.34" fill="#fff"/>
          <polygon points="138.1 685.2 129.78 697.7 126.75 693.11 117.68 693.11 124.57 703.52 134.96 703.52 147.17 685.2 138.1 685.2" fill="#fff"/>
          <polygon points="121.43 724.68 129.75 712.18 132.79 716.77 141.85 716.77 134.96 706.35 124.57 706.35 112.37 724.68 121.43 724.68" fill="#fff"/>
          <polygon points="155.5 713.54 147.18 726.03 144.15 721.44 135.08 721.44 141.97 731.86 152.36 731.86 164.57 713.54 155.5 713.54" fill="#fff"/>
          <polygon points="138.83 753.01 147.15 740.51 150.19 745.11 159.25 745.11 152.37 734.69 141.97 734.69 129.77 753.01 138.83 753.01" fill="#fff"/>
          <polygon points="172.9 741.87 164.58 754.37 161.55 749.77 152.48 749.77 159.37 760.19 169.76 760.19 181.97 741.87 172.9 741.87" fill="#fff"/>
          <polygon points="156.23 781.35 164.55 768.85 167.59 773.44 176.65 773.44 169.77 763.02 159.37 763.02 147.17 781.35 156.23 781.35" fill="#fff"/>
          <polygon points="190.3 770.2 181.98 782.7 178.95 778.11 169.88 778.11 176.77 788.53 187.16 788.53 199.37 770.2 190.3 770.2" fill="#fff"/>
          <polygon points="173.63 809.68 181.95 797.18 184.99 801.78 194.05 801.78 187.17 791.36 176.77 791.36 164.57 809.68 173.63 809.68" fill="#fff"/>
          <polygon points="207.7 798.54 199.38 811.04 196.35 806.44 187.28 806.44 194.17 816.86 204.56 816.86 216.77 798.54 207.7 798.54" fill="#fff"/>
          <polygon points="191.03 838.01 199.35 825.52 202.39 830.11 211.45 830.11 204.57 819.69 194.17 819.69 181.97 838.01 191.03 838.01" fill="#fff"/>
          <polygon points="100.65 554.1 92.32 566.6 89.29 562.01 80.22 562.01 87.11 572.43 97.5 572.43 109.71 554.1 100.65 554.1" fill="#fff"/>
          <polygon points="83.97 593.58 92.29 581.08 95.33 585.67 104.39 585.67 97.51 575.26 87.11 575.26 74.91 593.58 83.97 593.58" fill="#fff"/>
          <polygon points="118.05 582.44 109.72 594.94 106.69 590.34 97.62 590.34 104.51 600.76 114.9 600.76 127.11 582.44 118.05 582.44" fill="#fff"/>
          <polygon points="101.37 621.91 109.69 609.42 112.73 614.01 121.79 614.01 114.91 603.59 104.51 603.59 92.31 621.91 101.37 621.91" fill="#fff"/>
          <polygon points="135.45 610.77 127.12 623.27 124.09 618.68 115.02 618.68 121.91 629.1 132.3 629.1 144.51 610.77 135.45 610.77" fill="#fff"/>
          <polygon points="118.77 650.25 127.09 637.75 130.13 642.34 139.19 642.34 132.31 631.92 121.91 631.92 109.71 650.25 118.77 650.25" fill="#fff"/>
          <polygon points="152.85 639.11 144.52 651.61 141.49 647.01 132.42 647.01 139.31 657.43 149.7 657.43 161.91 639.11 152.85 639.11" fill="#fff"/>
          <polygon points="136.17 678.58 144.49 666.08 147.53 670.68 156.59 670.68 149.71 660.26 139.31 660.26 127.11 678.58 136.17 678.58" fill="#fff"/>
          <polygon points="170.25 667.44 161.92 679.94 158.89 675.35 149.82 675.35 156.71 685.77 167.1 685.77 179.31 667.44 170.25 667.44" fill="#fff"/>
          <polygon points="153.57 706.92 161.89 694.42 164.93 699.01 173.99 699.01 167.11 688.59 156.71 688.59 144.51 706.92 153.57 706.92" fill="#fff"/>
          <polygon points="187.65 695.78 179.32 708.27 176.29 703.68 167.23 703.68 174.11 714.1 184.5 714.1 196.71 695.78 187.65 695.78" fill="#fff"/>
          <polygon points="170.97 735.25 179.29 722.75 182.33 727.35 191.39 727.35 184.51 716.93 174.11 716.93 161.91 735.25 170.97 735.25" fill="#fff"/>
          <polygon points="205.05 724.11 196.72 736.61 193.69 732.02 184.63 732.02 191.51 742.43 201.9 742.43 214.11 724.11 205.05 724.11" fill="#fff"/>
          <polygon points="188.37 763.59 196.69 751.09 199.73 755.68 208.79 755.68 201.91 745.26 191.51 745.26 179.31 763.59 188.37 763.59" fill="#fff"/>
          <polygon points="222.45 752.45 214.12 764.94 211.09 760.35 202.03 760.35 208.91 770.77 219.31 770.77 231.51 752.45 222.45 752.45" fill="#fff"/>
          <polygon points="205.77 791.92 214.09 779.42 217.13 784.02 226.19 784.02 219.31 773.6 208.91 773.6 196.71 791.92 205.77 791.92" fill="#fff"/>
          <polygon points="239.85 780.78 231.52 793.28 228.49 788.68 219.43 788.68 226.31 799.1 236.71 799.1 248.91 780.78 239.85 780.78" fill="#fff"/>
          <polygon points="223.17 820.26 231.49 807.76 234.53 812.35 243.59 812.35 236.71 801.93 226.31 801.93 214.11 820.26 223.17 820.26" fill="#fff"/>
          <polygon points="131.46 538.39 123.13 550.89 120.1 546.29 111.04 546.29 117.92 556.71 128.32 556.71 140.52 538.39 131.46 538.39" fill="#fff"/>
          <polygon points="114.78 577.87 123.11 565.37 126.14 569.96 135.2 569.96 128.32 559.54 117.92 559.54 105.72 577.87 114.78 577.87" fill="#fff"/>
          <polygon points="148.86 566.72 140.53 579.22 137.5 574.63 128.44 574.63 135.32 585.05 145.72 585.05 157.92 566.72 148.86 566.72" fill="#fff"/>
          <polygon points="132.18 606.2 140.51 593.7 143.54 598.3 152.6 598.3 145.72 587.88 135.32 587.88 123.12 606.2 132.18 606.2" fill="#fff"/>
          <polygon points="166.26 595.06 157.93 607.56 154.9 602.96 145.84 602.96 152.72 613.38 163.12 613.38 175.32 595.06 166.26 595.06" fill="#fff"/>
          <polygon points="149.58 634.53 157.91 622.04 160.94 626.63 170 626.63 163.12 616.21 152.72 616.21 140.52 634.53 149.58 634.53" fill="#fff"/>
          <polygon points="183.66 623.39 175.33 635.89 172.3 631.3 163.24 631.3 170.12 641.72 180.52 641.72 192.72 623.39 183.66 623.39" fill="#fff"/>
          <polygon points="166.98 662.87 175.31 650.37 178.34 654.96 187.4 654.96 180.52 644.55 170.12 644.55 157.92 662.87 166.98 662.87" fill="#fff"/>
          <polygon points="201.06 651.73 192.73 664.23 189.7 659.63 180.64 659.63 187.52 670.05 197.92 670.05 210.12 651.73 201.06 651.73" fill="#fff"/>
          <polygon points="184.38 691.2 192.71 678.71 195.74 683.3 204.8 683.3 197.92 672.88 187.52 672.88 175.32 691.2 184.38 691.2" fill="#fff"/>
          <polygon points="218.46 680.06 210.14 692.56 207.1 687.97 198.04 687.97 204.92 698.39 215.32 698.39 227.52 680.06 218.46 680.06" fill="#fff"/>
          <polygon points="201.78 719.54 210.11 707.04 213.14 711.63 222.2 711.63 215.32 701.22 204.92 701.22 192.72 719.54 201.78 719.54" fill="#fff"/>
          <polygon points="235.86 708.4 227.54 720.9 224.5 716.3 215.44 716.3 222.32 726.72 232.72 726.72 244.92 708.4 235.86 708.4" fill="#fff"/>
          <polygon points="219.18 747.87 227.51 735.38 230.54 739.97 239.6 739.97 232.72 729.55 222.32 729.55 210.12 747.87 219.18 747.87" fill="#fff"/>
          <polygon points="253.26 736.73 244.94 749.23 241.9 744.64 232.84 744.64 239.72 755.06 250.12 755.06 262.32 736.73 253.26 736.73" fill="#fff"/>
          <polygon points="236.58 776.21 244.91 763.71 247.94 768.3 257 768.3 250.12 757.88 239.72 757.88 227.52 776.21 236.58 776.21" fill="#fff"/>
          <polygon points="270.66 765.07 262.34 777.56 259.3 772.97 250.24 772.97 257.12 783.39 267.52 783.39 279.72 765.07 270.66 765.07" fill="#fff"/>
          <polygon points="253.98 804.54 262.31 792.04 265.34 796.64 274.4 796.64 267.52 786.22 257.12 786.22 244.92 804.54 253.98 804.54" fill="#fff"/>
          <polygon points="163.6 520.63 155.28 533.13 152.24 528.54 143.18 528.54 150.06 538.96 160.46 538.96 172.66 520.63 163.6 520.63" fill="#fff"/>
          <polygon points="146.92 560.11 155.25 547.61 158.28 552.2 167.34 552.2 160.46 541.78 150.07 541.78 137.86 560.11 146.92 560.11" fill="#fff"/>
          <polygon points="181 548.97 172.68 561.46 169.64 556.87 160.58 556.87 167.46 567.29 177.86 567.29 190.06 548.97 181 548.97" fill="#fff"/>
          <polygon points="164.32 588.44 172.65 575.94 175.68 580.54 184.75 580.54 177.86 570.12 167.47 570.12 155.26 588.44 164.32 588.44" fill="#fff"/>
          <polygon points="198.4 577.3 190.08 589.8 187.04 585.21 177.98 585.21 184.86 595.62 195.26 595.62 207.46 577.3 198.4 577.3" fill="#fff"/>
          <polygon points="181.72 616.78 190.05 604.28 193.08 608.87 202.15 608.87 195.26 598.45 184.87 598.45 172.66 616.78 181.72 616.78" fill="#fff"/>
          <polygon points="215.8 605.64 207.48 618.13 204.44 613.54 195.38 613.54 202.26 623.96 212.66 623.96 224.86 605.64 215.8 605.64" fill="#fff"/>
          <polygon points="199.12 645.11 207.45 632.61 210.48 637.21 219.55 637.21 212.66 626.79 202.27 626.79 190.06 645.11 199.12 645.11" fill="#fff"/>
          <polygon points="233.2 633.97 224.88 646.47 221.84 641.87 212.78 641.87 219.66 652.29 230.06 652.29 242.26 633.97 233.2 633.97" fill="#fff"/>
          <polygon points="216.52 673.45 224.85 660.95 227.88 665.54 236.95 665.54 230.06 655.12 219.67 655.12 207.46 673.45 216.52 673.45" fill="#fff"/>
          <polygon points="250.6 662.3 242.28 674.8 239.24 670.21 230.18 670.21 237.06 680.63 247.46 680.63 259.66 662.3 250.6 662.3" fill="#fff"/>
          <polygon points="233.92 701.78 242.25 689.28 245.28 693.88 254.35 693.88 247.46 683.46 237.07 683.46 224.86 701.78 233.92 701.78" fill="#fff"/>
          <polygon points="268 690.64 259.68 703.14 256.64 698.54 247.58 698.54 254.46 708.96 264.86 708.96 277.06 690.64 268 690.64" fill="#fff"/>
          <polygon points="251.33 730.11 259.65 717.62 262.68 722.21 271.75 722.21 264.86 711.79 254.47 711.79 242.26 730.11 251.33 730.11" fill="#fff"/>
          <polygon points="285.4 718.97 277.08 731.47 274.04 726.88 264.98 726.88 271.86 737.3 282.26 737.3 294.46 718.97 285.4 718.97" fill="#fff"/>
          <polygon points="268.73 758.45 277.05 745.95 280.08 750.54 289.15 750.54 282.26 740.13 271.87 740.13 259.66 758.45 268.73 758.45" fill="#fff"/>
          <polygon points="302.8 747.31 294.48 759.81 291.44 755.21 282.38 755.21 289.26 765.63 299.66 765.63 311.86 747.31 302.8 747.31" fill="#fff"/>
          <polygon points="286.13 786.78 294.45 774.29 297.48 778.88 306.55 778.88 299.66 768.46 289.27 768.46 277.06 786.78 286.13 786.78" fill="#fff"/>
          <polygon points="194.41 504.92 186.09 517.42 183.05 512.82 173.99 512.82 180.88 523.24 191.27 523.24 203.47 504.92 194.41 504.92" fill="#fff"/>
          <polygon points="177.74 544.39 186.06 531.9 189.1 536.49 198.16 536.49 191.27 526.07 180.88 526.07 168.67 544.39 177.74 544.39" fill="#fff"/>
          <polygon points="211.81 533.25 203.49 545.75 200.45 541.16 191.39 541.16 198.28 551.58 208.67 551.58 220.87 533.25 211.81 533.25" fill="#fff"/>
          <polygon points="195.14 572.73 203.46 560.23 206.5 564.82 215.56 564.82 208.67 554.4 198.28 554.4 186.07 572.73 195.14 572.73" fill="#fff"/>
          <polygon points="229.21 561.59 220.89 574.09 217.85 569.49 208.79 569.49 215.68 579.91 226.07 579.91 238.27 561.59 229.21 561.59" fill="#fff"/>
          <polygon points="212.54 601.06 220.86 588.56 223.9 593.16 232.96 593.16 226.07 582.74 215.68 582.74 203.47 601.06 212.54 601.06" fill="#fff"/>
          <polygon points="246.61 589.92 238.29 602.42 235.25 597.83 226.19 597.83 233.08 608.25 243.47 608.25 255.68 589.92 246.61 589.92" fill="#fff"/>
          <polygon points="229.94 629.4 238.26 616.9 241.3 621.49 250.36 621.49 243.47 611.07 233.08 611.07 220.87 629.4 229.94 629.4" fill="#fff"/>
          <polygon points="264.01 618.26 255.69 630.75 252.65 626.16 243.59 626.16 250.48 636.58 260.87 636.58 273.08 618.26 264.01 618.26" fill="#fff"/>
          <polygon points="247.34 657.73 255.66 645.23 258.7 649.83 267.76 649.83 260.87 639.41 250.48 639.41 238.27 657.73 247.34 657.73" fill="#fff"/>
          <polygon points="281.41 646.59 273.09 659.09 270.05 654.5 260.99 654.5 267.88 664.91 278.27 664.91 290.48 646.59 281.41 646.59" fill="#fff"/>
          <polygon points="264.74 686.07 273.06 673.57 276.1 678.16 285.16 678.16 278.27 667.74 267.88 667.74 255.68 686.07 264.74 686.07" fill="#fff"/>
          <polygon points="298.81 674.93 290.49 687.42 287.45 682.83 278.39 682.83 285.28 693.25 295.67 693.25 307.88 674.93 298.81 674.93" fill="#fff"/>
          <polygon points="282.14 714.4 290.46 701.9 293.5 706.5 302.56 706.5 295.67 696.08 285.28 696.08 273.08 714.4 282.14 714.4" fill="#fff"/>
          <polygon points="316.21 703.26 307.89 715.76 304.85 711.16 295.79 711.16 302.68 721.58 313.07 721.58 325.28 703.26 316.21 703.26" fill="#fff"/>
          <polygon points="299.54 742.74 307.86 730.24 310.9 734.83 319.96 734.83 313.07 724.41 302.68 724.41 290.48 742.74 299.54 742.74" fill="#fff"/>
          <polygon points="333.61 731.59 325.29 744.09 322.26 739.5 313.19 739.5 320.08 749.92 330.47 749.92 342.68 731.59 333.61 731.59" fill="#fff"/>
          <polygon points="316.94 771.07 325.26 758.57 328.3 763.17 337.36 763.17 330.47 752.75 320.08 752.75 307.88 771.07 316.94 771.07" fill="#fff"/>
          <polygon points="226.55 487.16 218.23 499.66 215.2 495.06 206.13 495.06 213.02 505.48 223.41 505.48 235.62 487.16 226.55 487.16" fill="#fff"/>
          <polygon points="209.88 526.63 218.2 514.14 221.24 518.73 230.3 518.73 223.41 508.31 213.02 508.31 200.82 526.63 209.88 526.63" fill="#fff"/>
          <polygon points="243.95 515.49 235.63 527.99 232.6 523.4 223.53 523.4 230.42 533.82 240.81 533.82 253.02 515.49 243.95 515.49" fill="#fff"/>
          <polygon points="227.28 554.97 235.6 542.47 238.64 547.07 247.7 547.07 240.82 536.65 230.42 536.65 218.22 554.97 227.28 554.97" fill="#fff"/>
          <polygon points="261.35 543.83 253.03 556.33 250 551.73 240.93 551.73 247.82 562.15 258.21 562.15 270.42 543.83 261.35 543.83" fill="#fff"/>
          <polygon points="244.68 583.3 253 570.81 256.04 575.4 265.1 575.4 258.22 564.98 247.82 564.98 235.62 583.3 244.68 583.3" fill="#fff"/>
          <polygon points="278.75 572.16 270.43 584.66 267.4 580.07 258.33 580.07 265.22 590.49 275.61 590.49 287.82 572.16 278.75 572.16" fill="#fff"/>
          <polygon points="262.08 611.64 270.4 599.14 273.44 603.73 282.5 603.73 275.62 593.32 265.22 593.32 253.02 611.64 262.08 611.64" fill="#fff"/>
          <polygon points="296.15 600.5 287.83 613 284.8 608.4 275.73 608.4 282.62 618.82 293.01 618.82 305.22 600.5 296.15 600.5" fill="#fff"/>
          <polygon points="279.48 639.97 287.8 627.48 290.84 632.07 299.9 632.07 293.02 621.65 282.62 621.65 270.42 639.97 279.48 639.97" fill="#fff"/>
          <polygon points="313.56 628.83 305.23 641.33 302.2 636.74 293.13 636.74 300.02 647.16 310.41 647.16 322.62 628.83 313.56 628.83" fill="#fff"/>
          <polygon points="296.88 668.31 305.2 655.81 308.24 660.4 317.3 660.4 310.42 649.98 300.02 649.98 287.82 668.31 296.88 668.31" fill="#fff"/>
          <polygon points="330.96 657.17 322.63 669.66 319.6 665.07 310.53 665.07 317.42 675.49 327.81 675.49 340.02 657.17 330.96 657.17" fill="#fff"/>
          <polygon points="314.28 696.64 322.6 684.14 325.64 688.74 334.7 688.74 327.82 678.32 317.42 678.32 305.22 696.64 314.28 696.64" fill="#fff"/>
          <polygon points="348.36 685.5 340.03 698 337 693.41 327.93 693.41 334.82 703.83 345.21 703.83 357.42 685.5 348.36 685.5" fill="#fff"/>
          <polygon points="331.68 724.98 340 712.48 343.04 717.07 352.1 717.07 345.22 706.65 334.82 706.65 322.62 724.98 331.68 724.98" fill="#fff"/>
          <polygon points="365.76 713.84 357.43 726.33 354.4 721.74 345.33 721.74 352.22 732.16 362.61 732.16 374.82 713.84 365.76 713.84" fill="#fff"/>
          <polygon points="349.08 753.31 357.4 740.81 360.44 745.41 369.5 745.41 362.62 734.99 352.22 734.99 340.02 753.31 349.08 753.31" fill="#fff"/>
          <polygon points="132.12 877.11 123.8 889.6 120.76 885.01 111.7 885.01 118.59 895.43 128.98 895.43 141.18 877.11 132.12 877.11" fill="#fff"/>
          <polygon points="162.94 861.39 154.61 873.89 151.58 869.3 142.51 869.3 149.4 879.72 159.79 879.72 172 861.39 162.94 861.39" fill="#fff"/>
          <polygon points="146.26 900.87 154.58 888.37 157.62 892.96 166.68 892.96 159.8 882.54 149.4 882.54 137.2 900.87 146.26 900.87" fill="#fff"/>
          <polygon points="195.08 843.63 186.75 856.13 183.72 851.54 174.66 851.54 181.54 861.96 191.94 861.96 204.14 843.63 195.08 843.63" fill="#fff"/>
          <polygon points="178.4 883.11 186.72 870.61 189.76 875.2 198.82 875.2 191.94 864.79 181.54 864.79 169.34 883.11 178.4 883.11" fill="#fff"/>
          <polygon points="212.48 871.97 204.15 884.47 201.12 879.87 192.06 879.87 198.94 890.29 209.34 890.29 221.54 871.97 212.48 871.97" fill="#fff"/>
          <polygon points="225.89 827.92 217.57 840.42 214.53 835.82 205.47 835.82 212.35 846.24 222.75 846.24 234.95 827.92 225.89 827.92" fill="#fff"/>
          <polygon points="209.21 867.4 217.54 854.9 220.57 859.49 229.63 859.49 222.75 849.07 212.36 849.07 200.15 867.4 209.21 867.4" fill="#fff"/>
          <polygon points="243.29 856.26 234.97 868.75 231.93 864.16 222.87 864.16 229.75 874.58 240.15 874.58 252.35 856.26 243.29 856.26" fill="#fff"/>
          <polygon points="226.61 895.73 234.94 883.23 237.97 887.83 247.03 887.83 240.15 877.41 229.76 877.41 217.55 895.73 226.61 895.73" fill="#fff"/>
          <polygon points="258.03 810.16 249.71 822.66 246.67 818.07 237.61 818.07 244.49 828.49 254.89 828.49 267.09 810.16 258.03 810.16" fill="#fff"/>
          <polygon points="241.36 849.64 249.68 837.14 252.71 841.73 261.78 841.73 254.89 831.31 244.5 831.31 232.29 849.64 241.36 849.64" fill="#fff"/>
          <polygon points="275.43 838.5 267.11 850.99 264.07 846.4 255.01 846.4 261.89 856.82 272.29 856.82 284.49 838.5 275.43 838.5" fill="#fff"/>
          <polygon points="258.76 877.97 267.08 865.47 270.11 870.07 279.18 870.07 272.29 859.65 261.9 859.65 249.69 877.97 258.76 877.97" fill="#fff"/>
          <polygon points="292.83 866.83 284.51 879.33 281.47 874.74 272.41 874.74 279.3 885.15 289.69 885.15 301.89 866.83 292.83 866.83" fill="#fff"/>
          <polygon points="288.84 794.45 280.52 806.95 277.49 802.35 268.42 802.35 275.31 812.77 285.7 812.77 297.91 794.45 288.84 794.45" fill="#fff"/>
          <polygon points="272.17 833.92 280.49 821.43 283.53 826.02 292.59 826.02 285.7 815.6 275.31 815.6 263.11 833.92 272.17 833.92" fill="#fff"/>
          <polygon points="306.24 822.78 297.92 835.28 294.89 830.69 285.82 830.69 292.71 841.11 303.1 841.11 315.31 822.78 306.24 822.78" fill="#fff"/>
          <polygon points="289.57 862.26 297.89 849.76 300.93 854.35 309.99 854.35 303.1 843.93 292.71 843.93 280.51 862.26 289.57 862.26" fill="#fff"/>
          <polygon points="323.64 851.12 315.32 863.62 312.29 859.02 303.22 859.02 310.11 869.44 320.5 869.44 332.71 851.12 323.64 851.12" fill="#fff"/>
          <polygon points="306.97 890.59 315.29 878.1 318.33 882.69 327.39 882.69 320.51 872.27 310.11 872.27 297.91 890.59 306.97 890.59" fill="#fff"/>
          <polygon points="341.04 879.45 332.72 891.95 329.69 887.36 320.62 887.36 327.51 897.78 337.9 897.78 350.11 879.45 341.04 879.45" fill="#fff"/>
          <polygon points="320.99 776.69 312.66 789.19 309.63 784.59 300.56 784.59 307.45 795.01 317.84 795.01 330.05 776.69 320.99 776.69" fill="#fff"/>
          <polygon points="304.31 816.16 312.63 803.67 315.67 808.26 324.73 808.26 317.85 797.84 307.45 797.84 295.25 816.16 304.31 816.16" fill="#fff"/>
          <polygon points="338.39 805.02 330.06 817.52 327.03 812.93 317.96 812.93 324.85 823.35 335.24 823.35 347.45 805.02 338.39 805.02" fill="#fff"/>
          <polygon points="321.71 844.5 330.03 832 333.07 836.6 342.13 836.6 335.25 826.18 324.85 826.18 312.65 844.5 321.71 844.5" fill="#fff"/>
          <polygon points="355.79 833.36 347.46 845.86 344.43 841.26 335.37 841.26 342.25 851.68 352.64 851.68 364.85 833.36 355.79 833.36" fill="#fff"/>
          <polygon points="339.11 872.83 347.43 860.34 350.47 864.93 359.53 864.93 352.65 854.51 342.25 854.51 330.05 872.83 339.11 872.83" fill="#fff"/>
          <polygon points="373.19 861.69 364.86 874.19 361.83 869.6 352.77 869.6 359.65 880.02 370.05 880.02 382.25 861.69 373.19 861.69" fill="#fff"/>
          <polygon points="356.51 901.17 364.83 888.67 367.87 893.26 376.93 893.26 370.05 882.85 359.65 882.85 347.45 901.17 356.51 901.17" fill="#fff"/>
          <polygon points="351.8 760.98 343.47 773.47 340.44 768.88 331.38 768.88 338.26 779.3 348.66 779.3 360.86 760.98 351.8 760.98" fill="#fff"/>
          <polygon points="335.12 800.45 343.45 787.95 346.48 792.55 355.54 792.55 348.66 782.13 338.26 782.13 326.06 800.45 335.12 800.45" fill="#fff"/>
          <polygon points="369.2 789.31 360.87 801.81 357.84 797.22 348.78 797.22 355.66 807.63 366.06 807.63 378.26 789.31 369.2 789.31" fill="#fff"/>
          <polygon points="352.52 828.79 360.85 816.29 363.88 820.88 372.94 820.88 366.06 810.46 355.66 810.46 343.46 828.79 352.52 828.79" fill="#fff"/>
          <polygon points="386.6 817.65 378.28 830.14 375.24 825.55 366.18 825.55 373.06 835.97 383.46 835.97 395.66 817.65 386.6 817.65" fill="#fff"/>
          <polygon points="369.92 857.12 378.25 844.62 381.28 849.22 390.34 849.22 383.46 838.8 373.06 838.8 360.86 857.12 369.92 857.12" fill="#fff"/>
          <polygon points="404 845.98 395.68 858.48 392.64 853.88 383.58 853.88 390.46 864.3 400.86 864.3 413.06 845.98 404 845.98" fill="#fff"/>
          <polygon points="387.32 885.46 395.65 872.96 398.68 877.55 407.74 877.55 400.86 867.13 390.46 867.13 378.26 885.46 387.32 885.46" fill="#fff"/>
          <polygon points="383.94 743.22 375.62 755.72 372.58 751.12 363.52 751.12 370.4 761.54 380.8 761.54 393 743.22 383.94 743.22" fill="#fff"/>
          <polygon points="367.26 782.69 375.59 770.2 378.62 774.79 387.69 774.79 380.8 764.37 370.41 764.37 358.2 782.69 367.26 782.69" fill="#fff"/>
          <polygon points="401.34 771.55 393.02 784.05 389.98 779.46 380.92 779.46 387.8 789.88 398.2 789.88 410.4 771.55 401.34 771.55" fill="#fff"/>
          <polygon points="384.66 811.03 392.99 798.53 396.02 803.12 405.09 803.12 398.2 792.7 387.81 792.7 375.6 811.03 384.66 811.03" fill="#fff"/>
        </g>
      </g>
    </g>
  </g>
  <g>
    <path d="M220.27,382.19l-25.22,37.88-9.2-13.92h-27.46l20.86,31.57h31.5l36.98-55.53h-27.46Z" fill="#94d63a"/>
    <path d="M169.73,501.81l25.22-37.88,9.2,13.92h27.46l-20.86-31.57h-31.5l-36.98,55.53h27.46Z" fill="#fff"/>
  </g>
  <rect width="390" height="884" fill="url(#radial-gradient-2)"/>
</svg>