<?xml version="1.0" encoding="UTF-8"?>
<svg id="Layer_1" data-name="Layer 1" xmlns="http://www.w3.org/2000/svg" width="390" height="884" xmlns:xlink="http://www.w3.org/1999/xlink" viewBox="0 0 390 884">
  <defs>
    <radialGradient id="radial-gradient" cx="2354.09" cy="1379.85" fx="2354.09" fy="1379.85" r="1" gradientTransform="translate(-1818880.41 -687619.55) rotate(35.31) scale(559.39 -355.18) skewX(36.2)" gradientUnits="userSpaceOnUse">
      <stop offset="0" stop-color="#9000fe"/>
      <stop offset=".27" stop-color="#6900fe"/>
      <stop offset=".66" stop-color="#6900fe"/>
      <stop offset="1" stop-color="#9000fe"/>
    </radialGradient>
    <clipPath id="clippath">
      <rect width="390" height="233.78" fill="none"/>
    </clipPath>
    <radialGradient id="radial-gradient-2" cx="4658.52" cy="624.74" fx="4658.52" fy="624.74" r="1304.37" gradientTransform="translate(-922.16 27.08) scale(.24 .14)" gradientUnits="userSpaceOnUse">
      <stop offset=".32" stop-color="#6000fe" stop-opacity="0"/>
      <stop offset=".38" stop-color="#5d00fb" stop-opacity=".06"/>
      <stop offset=".49" stop-color="#5800f4" stop-opacity=".21"/>
      <stop offset=".64" stop-color="#4f00e9" stop-opacity=".46"/>
      <stop offset=".81" stop-color="#4200da" stop-opacity=".81"/>
      <stop offset=".9" stop-color="#3c00d2"/>
    </radialGradient>
    <clipPath id="clippath-1">
      <rect x="71.59" y="682" width="20" height="20" fill="none"/>
    </clipPath>
    <clipPath id="clippath-2">
      <rect x="247" y="682" width="20" height="20" fill="none"/>
    </clipPath>
  </defs>
  <rect width="390" height="233.78" fill="url(#radial-gradient)"/>
  <g opacity=".06">
    <g clip-path="url(#clippath)">
      <g>
        <g>
          <polygon points="-2.88 42.82 -11.2 55.32 -14.24 50.72 -23.3 50.72 -16.42 61.14 -6.02 61.14 6.18 42.82 -2.88 42.82" fill="#fff"/>
          <polygon points="-19.55 82.29 -11.23 69.8 -8.2 74.39 .87 74.39 -6.02 63.97 -16.41 63.97 -28.62 82.29 -19.55 82.29" fill="#fff"/>
          <polygon points="14.52 71.15 6.2 83.65 3.16 79.06 -5.9 79.06 .98 89.48 11.38 89.48 23.58 71.15 14.52 71.15" fill="#fff"/>
          <polygon points="-2.15 110.63 6.17 98.13 9.2 102.72 18.27 102.72 11.38 92.31 .99 92.31 -11.22 110.63 -2.15 110.63" fill="#fff"/>
          <polygon points="31.92 99.49 23.6 111.99 20.56 107.39 11.5 107.39 18.38 117.81 28.78 117.81 40.98 99.49 31.92 99.49" fill="#fff"/>
          <polygon points="15.25 138.96 23.57 126.47 26.6 131.06 35.67 131.06 28.78 120.64 18.39 120.64 6.18 138.96 15.25 138.96" fill="#fff"/>
          <polygon points="49.32 127.82 41 140.32 37.96 135.73 28.9 135.73 35.79 146.15 46.18 146.15 58.38 127.82 49.32 127.82" fill="#fff"/>
          <polygon points="32.65 167.3 40.97 154.8 44 159.39 53.07 159.39 46.18 148.97 35.79 148.97 23.58 167.3 32.65 167.3" fill="#fff"/>
          <polygon points="66.72 156.16 58.4 168.65 55.36 164.06 46.3 164.06 53.19 174.48 63.58 174.48 75.78 156.16 66.72 156.16" fill="#fff"/>
          <polygon points="50.05 195.63 58.37 183.13 61.4 187.73 70.47 187.73 63.58 177.31 53.19 177.31 40.98 195.63 50.05 195.63" fill="#fff"/>
          <polygon points="11.86 -3.27 3.54 9.22 .5 4.63 -8.56 4.63 -1.67 15.05 8.72 15.05 20.93 -3.27 11.86 -3.27" fill="#fff"/>
          <polygon points="-4.81 36.2 3.51 23.7 6.55 28.3 15.61 28.3 8.72 17.88 -1.67 17.88 -13.88 36.2 -4.81 36.2" fill="#fff"/>
          <polygon points="29.26 25.06 20.94 37.56 17.9 32.96 8.84 32.96 15.73 43.38 26.12 43.38 38.33 25.06 29.26 25.06" fill="#fff"/>
          <polygon points="12.59 64.54 20.91 52.04 23.95 56.63 33.01 56.63 26.12 46.21 15.73 46.21 3.52 64.54 12.59 64.54" fill="#fff"/>
          <polygon points="46.66 53.39 38.34 65.89 35.3 61.3 26.24 61.3 33.13 71.72 43.52 71.72 55.73 53.39 46.66 53.39" fill="#fff"/>
          <polygon points="29.99 92.87 38.31 80.37 41.35 84.97 50.41 84.97 43.52 74.55 33.13 74.55 20.93 92.87 29.99 92.87" fill="#fff"/>
          <polygon points="64.06 81.73 55.74 94.23 52.7 89.63 43.64 89.63 50.53 100.05 60.92 100.05 73.13 81.73 64.06 81.73" fill="#fff"/>
          <polygon points="47.39 121.2 55.71 108.71 58.75 113.3 67.81 113.3 60.92 102.88 50.53 102.88 38.33 121.2 47.39 121.2" fill="#fff"/>
          <polygon points="81.46 110.06 73.14 122.56 70.1 117.97 61.04 117.97 67.93 128.39 78.32 128.39 90.53 110.06 81.46 110.06" fill="#fff"/>
          <polygon points="64.79 149.54 73.11 137.04 76.15 141.63 85.21 141.63 78.32 131.22 67.93 131.22 55.73 149.54 64.79 149.54" fill="#fff"/>
          <polygon points="98.86 138.4 90.54 150.9 87.51 146.3 78.44 146.3 85.33 156.72 95.72 156.72 107.93 138.4 98.86 138.4" fill="#fff"/>
          <polygon points="82.19 177.87 90.51 165.38 93.55 169.97 102.61 169.97 95.72 159.55 85.33 159.55 73.13 177.87 82.19 177.87" fill="#fff"/>
          <polygon points="26 20.49 34.32 7.99 37.36 12.58 46.42 12.58 39.54 2.16 29.14 2.16 16.94 20.49 26 20.49" fill="#fff"/>
          <polygon points="60.08 9.35 51.75 21.84 48.72 17.25 39.65 17.25 46.54 27.67 56.93 27.67 69.14 9.35 60.08 9.35" fill="#fff"/>
          <polygon points="43.4 48.82 51.72 36.32 54.76 40.92 63.82 40.92 56.94 30.5 46.54 30.5 34.34 48.82 43.4 48.82" fill="#fff"/>
          <polygon points="77.48 37.68 69.15 50.18 66.12 45.59 57.05 45.59 63.94 56 74.33 56 86.54 37.68 77.48 37.68" fill="#fff"/>
          <polygon points="60.8 77.16 69.12 64.66 72.16 69.25 81.22 69.25 74.34 58.83 63.94 58.83 51.74 77.16 60.8 77.16" fill="#fff"/>
          <polygon points="94.88 66.02 86.55 78.51 83.52 73.92 74.46 73.92 81.34 84.34 91.73 84.34 103.94 66.02 94.88 66.02" fill="#fff"/>
          <polygon points="78.2 105.49 86.52 92.99 89.56 97.59 98.62 97.59 91.74 87.17 81.34 87.17 69.14 105.49 78.2 105.49" fill="#fff"/>
          <polygon points="112.28 94.35 103.95 106.85 100.92 102.25 91.86 102.25 98.74 112.67 109.13 112.67 121.34 94.35 112.28 94.35" fill="#fff"/>
          <polygon points="95.6 133.83 103.92 121.33 106.96 125.92 116.02 125.92 109.14 115.5 98.74 115.5 86.54 133.83 95.6 133.83" fill="#fff"/>
          <polygon points="129.68 122.68 121.35 135.18 118.32 130.59 109.26 130.59 116.14 141.01 126.54 141.01 138.74 122.68 129.68 122.68" fill="#fff"/>
          <polygon points="113 162.16 121.32 149.66 124.36 154.26 133.42 154.26 126.54 143.84 116.14 143.84 103.94 162.16 113 162.16" fill="#fff"/>
          <polygon points="58.14 2.73 66.47 -9.77 69.5 -5.18 78.56 -5.18 71.68 -15.59 61.28 -15.59 49.08 2.73 58.14 2.73" fill="#fff"/>
          <polygon points="92.22 -8.41 83.89 4.09 80.86 -.51 71.8 -.51 78.68 9.91 89.08 9.91 101.28 -8.41 92.22 -8.41" fill="#fff"/>
          <polygon points="75.54 31.06 83.87 18.57 86.9 23.16 95.96 23.16 89.08 12.74 78.68 12.74 66.48 31.06 75.54 31.06" fill="#fff"/>
          <polygon points="109.62 19.92 101.29 32.42 98.26 27.83 89.2 27.83 96.08 38.25 106.48 38.25 118.68 19.92 109.62 19.92" fill="#fff"/>
          <polygon points="92.94 59.4 101.27 46.9 104.3 51.49 113.36 51.49 106.48 41.07 96.08 41.07 83.88 59.4 92.94 59.4" fill="#fff"/>
          <polygon points="127.02 48.26 118.69 60.75 115.66 56.16 106.6 56.16 113.48 66.58 123.88 66.58 136.08 48.26 127.02 48.26" fill="#fff"/>
          <polygon points="110.34 87.73 118.67 75.23 121.7 79.83 130.76 79.83 123.88 69.41 113.48 69.41 101.28 87.73 110.34 87.73" fill="#fff"/>
          <polygon points="144.42 76.59 136.09 89.09 133.06 84.5 124 84.5 130.88 94.92 141.28 94.92 153.48 76.59 144.42 76.59" fill="#fff"/>
          <polygon points="127.74 116.07 136.07 103.57 139.1 108.16 148.16 108.16 141.28 97.74 130.88 97.74 118.68 116.07 127.74 116.07" fill="#fff"/>
          <polygon points="161.82 104.93 153.49 117.42 150.46 112.83 141.4 112.83 148.28 123.25 158.68 123.25 170.88 104.93 161.82 104.93" fill="#fff"/>
          <polygon points="145.14 144.4 153.47 131.9 156.5 136.5 165.56 136.5 158.68 126.08 148.28 126.08 136.08 144.4 145.14 144.4" fill="#fff"/>
          <polygon points="106.35 15.35 114.68 2.85 117.71 7.45 126.78 7.45 119.89 -2.97 109.5 -2.97 97.29 15.35 106.35 15.35" fill="#fff"/>
          <polygon points="140.43 4.21 132.11 16.71 129.07 12.11 120.01 12.11 126.89 22.53 137.29 22.53 149.49 4.21 140.43 4.21" fill="#fff"/>
          <polygon points="123.75 43.68 132.08 31.19 135.11 35.78 144.18 35.78 137.29 25.36 126.9 25.36 114.69 43.68 123.75 43.68" fill="#fff"/>
          <polygon points="157.83 32.54 149.51 45.04 146.47 40.45 137.41 40.45 144.29 50.87 154.69 50.87 166.89 32.54 157.83 32.54" fill="#fff"/>
          <polygon points="141.15 72.02 149.48 59.52 152.51 64.11 161.58 64.11 154.69 53.7 144.3 53.7 132.09 72.02 141.15 72.02" fill="#fff"/>
          <polygon points="175.23 60.88 166.91 73.38 163.87 68.78 154.81 68.78 161.69 79.2 172.09 79.2 184.29 60.88 175.23 60.88" fill="#fff"/>
          <polygon points="158.55 100.35 166.88 87.86 169.91 92.45 178.98 92.45 172.09 82.03 161.7 82.03 149.49 100.35 158.55 100.35" fill="#fff"/>
          <polygon points="192.63 89.21 184.31 101.71 181.27 97.12 172.21 97.12 179.09 107.54 189.49 107.54 201.69 89.21 192.63 89.21" fill="#fff"/>
          <polygon points="175.96 128.69 184.28 116.19 187.31 120.78 196.38 120.78 189.49 110.36 179.1 110.36 166.89 128.69 175.96 128.69" fill="#fff"/>
          <polygon points="172.57 -13.55 164.25 -1.05 161.21 -5.65 152.15 -5.65 159.04 4.77 169.43 4.77 181.63 -13.55 172.57 -13.55" fill="#fff"/>
          <polygon points="155.9 25.93 164.22 13.43 167.26 18.02 176.32 18.02 169.43 7.6 159.04 7.6 146.83 25.93 155.9 25.93" fill="#fff"/>
          <polygon points="189.97 14.79 181.65 27.28 178.61 22.69 169.55 22.69 176.44 33.11 186.83 33.11 199.03 14.79 189.97 14.79" fill="#fff"/>
          <polygon points="173.3 54.26 181.62 41.76 184.66 46.36 193.72 46.36 186.83 35.94 176.44 35.94 164.23 54.26 173.3 54.26" fill="#fff"/>
          <polygon points="207.37 43.12 199.05 55.62 196.01 51.02 186.95 51.02 193.84 61.44 204.23 61.44 216.43 43.12 207.37 43.12" fill="#fff"/>
          <polygon points="190.7 82.59 199.02 70.1 202.06 74.69 211.12 74.69 204.23 64.27 193.84 64.27 181.63 82.59 190.7 82.59" fill="#fff"/>
          <polygon points="224.77 71.45 216.45 83.95 213.41 79.36 204.35 79.36 211.24 89.78 221.63 89.78 233.84 71.45 224.77 71.45" fill="#fff"/>
          <polygon points="208.1 110.93 216.42 98.43 219.46 103.02 228.52 103.02 221.63 92.61 211.24 92.61 199.03 110.93 208.1 110.93" fill="#fff"/>
          <polygon points="186.71 10.21 195.03 -2.29 198.07 2.31 207.13 2.31 200.25 -8.11 189.85 -8.11 177.65 10.21 186.71 10.21" fill="#fff"/>
          <polygon points="220.78 -.93 212.46 11.57 209.43 6.98 200.36 6.98 207.25 17.4 217.64 17.4 229.85 -.93 220.78 -.93" fill="#fff"/>
          <polygon points="204.11 38.55 212.43 26.05 215.47 30.64 224.53 30.64 217.65 20.22 207.25 20.22 195.05 38.55 204.11 38.55" fill="#fff"/>
          <polygon points="238.19 27.41 229.86 39.9 226.83 35.31 217.76 35.31 224.65 45.73 235.04 45.73 247.25 27.41 238.19 27.41" fill="#fff"/>
          <polygon points="221.51 66.88 229.83 54.38 232.87 58.98 241.93 58.98 235.05 48.56 224.65 48.56 212.45 66.88 221.51 66.88" fill="#fff"/>
          <polygon points="255.59 55.74 247.26 68.24 244.23 63.65 235.16 63.65 242.05 74.06 252.44 74.06 264.65 55.74 255.59 55.74" fill="#fff"/>
          <polygon points="238.91 95.22 247.23 82.72 250.27 87.31 259.33 87.31 252.45 76.89 242.05 76.89 229.85 95.22 238.91 95.22" fill="#fff"/>
          <polygon points="236.25 20.79 244.57 8.29 247.61 12.88 256.67 12.88 249.79 2.46 239.39 2.46 227.19 20.79 236.25 20.79" fill="#fff"/>
          <polygon points="270.33 9.65 262 22.15 258.97 17.55 249.91 17.55 256.79 27.97 267.19 27.97 279.39 9.65 270.33 9.65" fill="#fff"/>
          <polygon points="253.65 49.12 261.97 36.63 265.01 41.22 274.07 41.22 267.19 30.8 256.79 30.8 244.59 49.12 253.65 49.12" fill="#fff"/>
          <polygon points="287.73 37.98 279.4 50.48 276.37 45.89 267.31 45.89 274.19 56.31 284.59 56.31 296.79 37.98 287.73 37.98" fill="#fff"/>
          <polygon points="271.05 77.46 279.38 64.96 282.41 69.55 291.47 69.55 284.59 59.13 274.19 59.13 261.99 77.46 271.05 77.46" fill="#fff"/>
          <polygon points="267.06 5.07 275.39 -7.42 278.42 -2.83 287.48 -2.83 280.6 -13.25 270.21 -13.25 258 5.07 267.06 5.07" fill="#fff"/>
          <polygon points="301.14 -6.07 292.82 6.43 289.78 1.84 280.72 1.84 287.6 12.26 298 12.26 310.2 -6.07 301.14 -6.07" fill="#fff"/>
          <polygon points="284.46 33.41 292.79 20.91 295.82 25.5 304.88 25.5 298 15.09 287.61 15.09 275.4 33.41 284.46 33.41" fill="#fff"/>
          <polygon points="318.54 22.27 310.22 34.77 307.18 30.17 298.12 30.17 305 40.59 315.4 40.59 327.6 22.27 318.54 22.27" fill="#fff"/>
          <polygon points="301.86 61.74 310.19 49.25 313.22 53.84 322.29 53.84 315.4 43.42 305.01 43.42 292.8 61.74 301.86 61.74" fill="#fff"/>
          <polygon points="316.61 15.65 324.93 3.15 327.96 7.75 337.03 7.75 330.14 -2.67 319.75 -2.67 307.54 15.65 316.61 15.65" fill="#fff"/>
          <polygon points="350.68 4.51 342.36 17.01 339.32 12.41 330.26 12.41 337.15 22.83 347.54 22.83 359.74 4.51 350.68 4.51" fill="#fff"/>
          <polygon points="334.01 43.99 342.33 31.49 345.36 36.08 354.43 36.08 347.54 25.66 337.15 25.66 324.94 43.99 334.01 43.99" fill="#fff"/>
          <polygon points="381.49 -11.2 373.17 1.29 370.14 -3.3 361.07 -3.3 367.96 7.12 378.35 7.12 390.56 -11.2 381.49 -11.2" fill="#fff"/>
          <polygon points="364.82 28.27 373.14 15.77 376.18 20.37 385.24 20.37 378.36 9.95 367.96 9.95 355.76 28.27 364.82 28.27" fill="#fff"/>
          <polygon points="396.96 10.51 405.28 -1.98 408.32 2.61 417.38 2.61 410.5 -7.81 400.1 -7.81 387.9 10.51 396.96 10.51" fill="#fff"/>
          <polygon points="84.91 185.54 76.58 198.04 73.55 193.44 64.49 193.44 71.37 203.86 81.77 203.86 93.97 185.54 84.91 185.54" fill="#fff"/>
          <polygon points="68.23 225.01 76.55 212.52 79.59 217.11 88.65 217.11 81.77 206.69 71.37 206.69 59.17 225.01 68.23 225.01" fill="#fff"/>
          <polygon points="102.31 213.87 93.98 226.37 90.95 221.78 81.89 221.78 88.77 232.2 99.17 232.2 111.37 213.87 102.31 213.87" fill="#fff"/>
          <polygon points="85.63 253.35 93.95 240.85 96.99 245.44 106.05 245.44 99.17 235.02 88.77 235.02 76.57 253.35 85.63 253.35" fill="#fff"/>
          <polygon points="119.71 242.21 111.38 254.71 108.35 250.11 99.29 250.11 106.17 260.53 116.57 260.53 128.77 242.21 119.71 242.21" fill="#fff"/>
          <polygon points="103.03 281.68 111.35 269.18 114.39 273.78 123.45 273.78 116.57 263.36 106.17 263.36 93.97 281.68 103.03 281.68" fill="#fff"/>
          <polygon points="117.05 167.78 108.72 180.28 105.69 175.68 96.63 175.68 103.51 186.1 113.91 186.1 126.11 167.78 117.05 167.78" fill="#fff"/>
          <polygon points="100.37 207.25 108.7 194.76 111.73 199.35 120.79 199.35 113.91 188.93 103.51 188.93 91.31 207.25 100.37 207.25" fill="#fff"/>
          <polygon points="134.45 196.11 126.13 208.61 123.09 204.02 114.03 204.02 120.91 214.44 131.31 214.44 143.51 196.11 134.45 196.11" fill="#fff"/>
          <polygon points="117.77 235.59 126.1 223.09 129.13 227.69 138.19 227.69 131.31 217.27 120.91 217.27 108.71 235.59 117.77 235.59" fill="#fff"/>
          <polygon points="151.85 224.45 143.53 236.95 140.49 232.35 131.43 232.35 138.31 242.77 148.71 242.77 160.91 224.45 151.85 224.45" fill="#fff"/>
          <polygon points="135.17 263.92 143.5 251.43 146.53 256.02 155.59 256.02 148.71 245.6 138.31 245.6 126.11 263.92 135.17 263.92" fill="#fff"/>
          <polygon points="169.25 252.78 160.93 265.28 157.89 260.69 148.83 260.69 155.71 271.11 166.11 271.11 178.31 252.78 169.25 252.78" fill="#fff"/>
          <polygon points="147.86 152.07 139.54 164.56 136.5 159.97 127.44 159.97 134.32 170.39 144.72 170.39 156.92 152.07 147.86 152.07" fill="#fff"/>
          <polygon points="131.19 191.54 139.51 179.04 142.54 183.64 151.61 183.64 144.72 173.22 134.33 173.22 122.12 191.54 131.19 191.54" fill="#fff"/>
          <polygon points="165.26 180.4 156.94 192.9 153.9 188.31 144.84 188.31 151.72 198.72 162.12 198.72 174.32 180.4 165.26 180.4" fill="#fff"/>
          <polygon points="148.59 219.88 156.91 207.38 159.94 211.97 169.01 211.97 162.12 201.55 151.73 201.55 139.52 219.88 148.59 219.88" fill="#fff"/>
          <polygon points="182.66 208.74 174.34 221.23 171.3 216.64 162.24 216.64 169.12 227.06 179.52 227.06 191.72 208.74 182.66 208.74" fill="#fff"/>
          <polygon points="165.99 248.21 174.31 235.71 177.34 240.31 186.41 240.31 179.52 229.89 169.13 229.89 156.92 248.21 165.99 248.21" fill="#fff"/>
          <polygon points="200.06 237.07 191.74 249.57 188.7 244.97 179.64 244.97 186.53 255.39 196.92 255.39 209.12 237.07 200.06 237.07" fill="#fff"/>
          <polygon points="183.39 276.55 191.71 264.05 194.74 268.64 203.81 268.64 196.92 258.22 186.53 258.22 174.32 276.55 183.39 276.55" fill="#fff"/>
          <polygon points="217.46 265.4 209.14 277.9 206.1 273.31 197.04 273.31 203.93 283.73 214.32 283.73 226.52 265.4 217.46 265.4" fill="#fff"/>
          <polygon points="180 134.31 171.68 146.81 168.64 142.21 159.58 142.21 166.47 152.63 176.86 152.63 189.07 134.31 180 134.31" fill="#fff"/>
          <polygon points="163.33 173.78 171.65 161.29 174.69 165.88 183.75 165.88 176.86 155.46 166.47 155.46 154.26 173.78 163.33 173.78" fill="#fff"/>
          <polygon points="197.4 162.64 189.08 175.14 186.04 170.55 176.98 170.55 183.87 180.97 194.26 180.97 206.47 162.64 197.4 162.64" fill="#fff"/>
          <polygon points="180.73 202.12 189.05 189.62 192.09 194.21 201.15 194.21 194.26 183.79 183.87 183.79 171.67 202.12 180.73 202.12" fill="#fff"/>
          <polygon points="214.8 190.98 206.48 203.47 203.44 198.88 194.38 198.88 201.27 209.3 211.66 209.3 223.87 190.98 214.8 190.98" fill="#fff"/>
          <polygon points="198.13 230.45 206.45 217.95 209.49 222.55 218.55 222.55 211.66 212.13 201.27 212.13 189.07 230.45 198.13 230.45" fill="#fff"/>
          <polygon points="232.2 219.31 223.88 231.81 220.84 227.22 211.78 227.22 218.67 237.63 229.06 237.63 241.27 219.31 232.2 219.31" fill="#fff"/>
          <polygon points="215.53 258.79 223.85 246.29 226.89 250.88 235.95 250.88 229.06 240.46 218.67 240.46 206.47 258.79 215.53 258.79" fill="#fff"/>
          <polygon points="249.6 247.65 241.28 260.14 238.24 255.55 229.18 255.55 236.07 265.97 246.46 265.97 258.67 247.65 249.6 247.65" fill="#fff"/>
          <polygon points="232.93 287.12 241.25 274.62 244.29 279.22 253.35 279.22 246.46 268.8 236.07 268.8 223.87 287.12 232.93 287.12" fill="#fff"/>
          <polygon points="210.82 118.59 202.49 131.09 199.46 126.5 190.39 126.5 197.28 136.92 207.67 136.92 219.88 118.59 210.82 118.59" fill="#fff"/>
          <polygon points="194.14 158.07 202.46 145.57 205.5 150.17 214.56 150.17 207.68 139.75 197.28 139.75 185.08 158.07 194.14 158.07" fill="#fff"/>
          <polygon points="228.22 146.93 219.89 159.43 216.86 154.83 207.79 154.83 214.68 165.25 225.07 165.25 237.28 146.93 228.22 146.93" fill="#fff"/>
          <polygon points="211.54 186.4 219.86 173.91 222.9 178.5 231.96 178.5 225.08 168.08 214.68 168.08 202.48 186.4 211.54 186.4" fill="#fff"/>
          <polygon points="245.62 175.26 237.29 187.76 234.26 183.17 225.19 183.17 232.08 193.59 242.47 193.59 254.68 175.26 245.62 175.26" fill="#fff"/>
          <polygon points="228.94 214.74 237.26 202.24 240.3 206.83 249.36 206.83 242.48 196.42 232.08 196.42 219.88 214.74 228.94 214.74" fill="#fff"/>
          <polygon points="263.02 203.6 254.69 216.1 251.66 211.5 242.6 211.5 249.48 221.92 259.87 221.92 272.08 203.6 263.02 203.6" fill="#fff"/>
          <polygon points="246.34 243.07 254.66 230.58 257.7 235.17 266.76 235.17 259.88 224.75 249.48 224.75 237.28 243.07 246.34 243.07" fill="#fff"/>
          <polygon points="280.42 231.93 272.09 244.43 269.06 239.84 260 239.84 266.88 250.26 277.27 250.26 289.48 231.93 280.42 231.93" fill="#fff"/>
          <polygon points="263.74 271.41 272.06 258.91 275.1 263.5 284.16 263.5 277.28 253.08 266.88 253.08 254.68 271.41 263.74 271.41" fill="#fff"/>
          <polygon points="297.82 260.27 289.49 272.76 286.46 268.17 277.4 268.17 284.28 278.59 294.68 278.59 306.88 260.27 297.82 260.27" fill="#fff"/>
          <polygon points="242.96 100.84 234.63 113.33 231.6 108.74 222.54 108.74 229.42 119.16 239.82 119.16 252.02 100.84 242.96 100.84" fill="#fff"/>
          <polygon points="226.28 140.31 234.61 127.81 237.64 132.41 246.7 132.41 239.82 121.99 229.42 121.99 217.22 140.31 226.28 140.31" fill="#fff"/>
          <polygon points="260.36 129.17 252.03 141.67 249 137.07 239.94 137.07 246.82 147.49 257.22 147.49 269.42 129.17 260.36 129.17" fill="#fff"/>
          <polygon points="243.68 168.65 252.01 156.15 255.04 160.74 264.1 160.74 257.22 150.32 246.82 150.32 234.62 168.65 243.68 168.65" fill="#fff"/>
          <polygon points="277.76 157.5 269.43 170 266.4 165.41 257.34 165.41 264.22 175.83 274.62 175.83 286.82 157.5 277.76 157.5" fill="#fff"/>
          <polygon points="261.08 196.98 269.41 184.48 272.44 189.08 281.5 189.08 274.62 178.66 264.22 178.66 252.02 196.98 261.08 196.98" fill="#fff"/>
          <polygon points="295.16 185.84 286.83 198.34 283.8 193.74 274.74 193.74 281.62 204.16 292.02 204.16 304.22 185.84 295.16 185.84" fill="#fff"/>
          <polygon points="278.48 225.31 286.81 212.82 289.84 217.41 298.9 217.41 292.02 206.99 281.62 206.99 269.42 225.31 278.48 225.31" fill="#fff"/>
          <polygon points="312.56 214.17 304.23 226.67 301.2 222.08 292.14 222.08 299.02 232.5 309.42 232.5 321.62 214.17 312.56 214.17" fill="#fff"/>
          <polygon points="295.88 253.65 304.21 241.15 307.24 245.74 316.3 245.74 309.42 235.33 299.02 235.33 286.82 253.65 295.88 253.65" fill="#fff"/>
          <polygon points="329.96 242.51 321.63 255.01 318.6 250.41 309.54 250.41 316.42 260.83 326.82 260.83 339.02 242.51 329.96 242.51" fill="#fff"/>
          <polygon points="313.28 281.98 321.61 269.49 324.64 274.08 333.7 274.08 326.82 263.66 316.42 263.66 304.22 281.98 313.28 281.98" fill="#fff"/>
          <polygon points="273.77 85.12 265.45 97.62 262.41 93.03 253.35 93.03 260.23 103.45 270.63 103.45 282.83 85.12 273.77 85.12" fill="#fff"/>
          <polygon points="257.09 124.6 265.42 112.1 268.45 116.69 277.52 116.69 270.63 106.27 260.24 106.27 248.03 124.6 257.09 124.6" fill="#fff"/>
          <polygon points="291.17 113.46 282.85 125.95 279.81 121.36 270.75 121.36 277.63 131.78 288.03 131.78 300.23 113.46 291.17 113.46" fill="#fff"/>
          <polygon points="274.49 152.93 282.82 140.43 285.85 145.03 294.92 145.03 288.03 134.61 277.64 134.61 265.43 152.93 274.49 152.93" fill="#fff"/>
          <polygon points="308.57 141.79 300.25 154.29 297.21 149.7 288.15 149.7 295.03 160.11 305.43 160.11 317.63 141.79 308.57 141.79" fill="#fff"/>
          <polygon points="291.89 181.27 300.22 168.77 303.25 173.36 312.32 173.36 305.43 162.94 295.04 162.94 282.83 181.27 291.89 181.27" fill="#fff"/>
          <polygon points="325.97 170.13 317.65 182.62 314.61 178.03 305.55 178.03 312.43 188.45 322.83 188.45 335.03 170.13 325.97 170.13" fill="#fff"/>
          <polygon points="309.29 209.6 317.62 197.1 320.65 201.7 329.72 201.7 322.83 191.28 312.44 191.28 300.23 209.6 309.29 209.6" fill="#fff"/>
          <polygon points="343.37 198.46 335.05 210.96 332.01 206.36 322.95 206.36 329.83 216.78 340.23 216.78 352.43 198.46 343.37 198.46" fill="#fff"/>
          <polygon points="326.69 237.94 335.02 225.44 338.05 230.03 347.12 230.03 340.23 219.61 329.84 219.61 317.63 237.94 326.69 237.94" fill="#fff"/>
          <polygon points="360.77 226.8 352.45 239.29 349.41 234.7 340.35 234.7 347.23 245.12 357.63 245.12 369.83 226.8 360.77 226.8" fill="#fff"/>
          <polygon points="344.1 266.27 352.42 253.77 355.45 258.37 364.52 258.37 357.63 247.95 347.24 247.95 335.03 266.27 344.1 266.27" fill="#fff"/>
          <polygon points="378.17 255.13 369.85 267.63 366.81 263.03 357.75 263.03 364.63 273.45 375.03 273.45 387.23 255.13 378.17 255.13" fill="#fff"/>
          <polygon points="305.91 67.36 297.59 79.86 294.55 75.27 285.49 75.27 292.38 85.69 302.77 85.69 314.97 67.36 305.91 67.36" fill="#fff"/>
          <polygon points="289.24 106.84 297.56 94.34 300.59 98.93 309.66 98.93 302.77 88.52 292.38 88.52 280.17 106.84 289.24 106.84" fill="#fff"/>
          <polygon points="323.31 95.7 314.99 108.2 311.95 103.6 302.89 103.6 309.78 114.02 320.17 114.02 332.37 95.7 323.31 95.7" fill="#fff"/>
          <polygon points="306.64 135.17 314.96 122.68 318 127.27 327.06 127.27 320.17 116.85 309.78 116.85 297.57 135.17 306.64 135.17" fill="#fff"/>
          <polygon points="340.71 124.03 332.39 136.53 329.35 131.94 320.29 131.94 327.18 142.36 337.57 142.36 349.77 124.03 340.71 124.03" fill="#fff"/>
          <polygon points="324.04 163.51 332.36 151.01 335.4 155.6 344.46 155.6 337.57 145.18 327.18 145.18 314.97 163.51 324.04 163.51" fill="#fff"/>
          <polygon points="358.11 152.37 349.79 164.87 346.75 160.27 337.69 160.27 344.58 170.69 354.97 170.69 367.17 152.37 358.11 152.37" fill="#fff"/>
          <polygon points="341.44 191.84 349.76 179.34 352.8 183.94 361.86 183.94 354.97 173.52 344.58 173.52 332.37 191.84 341.44 191.84" fill="#fff"/>
          <polygon points="375.51 180.7 367.19 193.2 364.15 188.61 355.09 188.61 361.98 199.03 372.37 199.03 384.57 180.7 375.51 180.7" fill="#fff"/>
          <polygon points="358.84 220.18 367.16 207.68 370.2 212.27 379.26 212.27 372.37 201.85 361.98 201.85 349.77 220.18 358.84 220.18" fill="#fff"/>
          <polygon points="392.91 209.04 384.59 221.53 381.55 216.94 372.49 216.94 379.38 227.36 389.77 227.36 401.98 209.04 392.91 209.04" fill="#fff"/>
          <polygon points="376.24 248.51 384.56 236.01 387.6 240.61 396.66 240.61 389.77 230.19 379.38 230.19 367.17 248.51 376.24 248.51" fill="#fff"/>
          <polygon points="410.31 237.37 401.99 249.87 398.95 245.28 389.89 245.28 396.78 255.69 407.17 255.69 419.38 237.37 410.31 237.37" fill="#fff"/>
          <polygon points="393.64 276.85 401.96 264.35 405 268.94 414.06 268.94 407.17 258.52 396.78 258.52 384.57 276.85 393.64 276.85" fill="#fff"/>
          <polygon points="336.72 51.65 328.4 64.15 325.37 59.55 316.3 59.55 323.19 69.97 333.58 69.97 345.79 51.65 336.72 51.65" fill="#fff"/>
          <polygon points="320.05 91.13 328.37 78.63 331.41 83.22 340.47 83.22 333.59 72.8 323.19 72.8 310.99 91.13 320.05 91.13" fill="#fff"/>
          <polygon points="354.12 79.98 345.8 92.48 342.77 87.89 333.7 87.89 340.59 98.31 350.98 98.31 363.19 79.98 354.12 79.98" fill="#fff"/>
          <polygon points="337.45 119.46 345.77 106.96 348.81 111.56 357.87 111.56 350.99 101.14 340.59 101.14 328.39 119.46 337.45 119.46" fill="#fff"/>
          <polygon points="371.52 108.32 363.2 120.82 360.17 116.22 351.1 116.22 357.99 126.64 368.38 126.64 380.59 108.32 371.52 108.32" fill="#fff"/>
          <polygon points="354.85 147.79 363.17 135.3 366.21 139.89 375.27 139.89 368.39 129.47 357.99 129.47 345.79 147.79 354.85 147.79" fill="#fff"/>
          <polygon points="388.93 136.65 380.6 149.15 377.57 144.56 368.5 144.56 375.39 154.98 385.78 154.98 397.99 136.65 388.93 136.65" fill="#fff"/>
          <polygon points="372.25 176.13 380.57 163.63 383.61 168.22 392.67 168.22 385.79 157.81 375.39 157.81 363.19 176.13 372.25 176.13" fill="#fff"/>
          <polygon points="406.33 164.99 398 177.49 394.97 172.89 385.9 172.89 392.79 183.31 403.18 183.31 415.39 164.99 406.33 164.99" fill="#fff"/>
          <polygon points="389.65 204.46 397.97 191.97 401.01 196.56 410.07 196.56 403.19 186.14 392.79 186.14 380.59 204.46 389.65 204.46" fill="#fff"/>
          <polygon points="368.87 33.89 360.54 46.39 357.51 41.8 348.45 41.8 355.33 52.21 365.72 52.21 377.93 33.89 368.87 33.89" fill="#fff"/>
          <polygon points="352.19 73.37 360.51 60.87 363.55 65.46 372.61 65.46 365.73 55.04 355.33 55.04 343.13 73.37 352.19 73.37" fill="#fff"/>
          <polygon points="386.27 62.23 377.94 74.72 374.91 70.13 365.85 70.13 372.73 80.55 383.13 80.55 395.33 62.23 386.27 62.23" fill="#fff"/>
          <polygon points="369.59 101.7 377.91 89.2 380.95 93.8 390.01 93.8 383.13 83.38 372.73 83.38 360.53 101.7 369.59 101.7" fill="#fff"/>
          <polygon points="403.67 90.56 395.34 103.06 392.31 98.47 383.25 98.47 390.13 108.88 400.53 108.88 412.73 90.56 403.67 90.56" fill="#fff"/>
          <polygon points="386.99 130.04 395.31 117.54 398.35 122.13 407.41 122.13 400.53 111.71 390.13 111.71 377.93 130.04 386.99 130.04" fill="#fff"/>
          <polygon points="399.68 18.18 391.36 30.68 388.32 26.08 379.26 26.08 386.14 36.5 396.54 36.5 408.74 18.18 399.68 18.18" fill="#fff"/>
          <polygon points="383 57.65 391.33 45.16 394.36 49.75 403.42 49.75 396.54 39.33 386.14 39.33 373.94 57.65 383 57.65" fill="#fff"/>
        </g>
        <g>
          <polygon points="3.89 190.21 -4.44 202.71 -7.47 198.12 -16.53 198.12 -9.65 208.54 .75 208.54 12.95 190.21 3.89 190.21" fill="#fff"/>
          <polygon points="-12.79 229.69 -4.46 217.19 -1.43 221.78 7.63 221.78 .75 211.36 -9.65 211.36 -21.85 229.69 -12.79 229.69" fill="#fff"/>
          <polygon points="21.29 218.55 12.96 231.04 9.93 226.45 .87 226.45 7.75 236.87 18.15 236.87 30.35 218.55 21.29 218.55" fill="#fff"/>
          <polygon points="4.61 258.02 12.94 245.52 15.97 250.12 25.03 250.12 18.15 239.7 7.75 239.7 -4.45 258.02 4.61 258.02" fill="#fff"/>
          <polygon points="1.23 115.78 -7.09 128.28 -10.13 123.69 -19.19 123.69 -12.31 134.11 -1.91 134.11 10.29 115.78 1.23 115.78" fill="#fff"/>
          <polygon points="-15.45 155.26 -7.12 142.76 -4.09 147.36 4.97 147.36 -1.91 136.94 -12.31 136.94 -24.51 155.26 -15.45 155.26" fill="#fff"/>
          <polygon points="18.63 144.12 10.31 156.62 7.27 152.02 -1.79 152.02 5.09 162.44 15.49 162.44 27.69 144.12 18.63 144.12" fill="#fff"/>
          <polygon points="1.95 183.59 10.28 171.1 13.31 175.69 22.37 175.69 15.49 165.27 5.09 165.27 -7.11 183.59 1.95 183.59" fill="#fff"/>
          <polygon points="36.03 172.45 27.71 184.95 24.67 180.36 15.61 180.36 22.49 190.78 32.89 190.78 45.09 172.45 36.03 172.45" fill="#fff"/>
          <polygon points="19.35 211.93 27.68 199.43 30.71 204.02 39.77 204.02 32.89 193.61 22.49 193.61 10.29 211.93 19.35 211.93" fill="#fff"/>
          <polygon points="53.43 200.79 45.11 213.29 42.07 208.69 33.01 208.69 39.89 219.11 50.29 219.11 62.49 200.79 53.43 200.79" fill="#fff"/>
          <polygon points="36.75 240.26 45.08 227.77 48.11 232.36 57.17 232.36 50.29 221.94 39.89 221.94 27.69 240.26 36.75 240.26" fill="#fff"/>
          <polygon points="8.66 263.64 .34 276.14 -2.7 271.55 -11.76 271.55 -4.88 281.97 5.52 281.97 17.72 263.64 8.66 263.64" fill="#fff"/>
          <polygon points="39.47 247.93 31.15 260.43 28.11 255.83 19.05 255.83 25.94 266.25 36.33 266.25 48.53 247.93 39.47 247.93" fill="#fff"/>
          <polygon points="22.8 287.4 31.12 274.91 34.16 279.5 43.22 279.5 36.33 269.08 25.94 269.08 13.73 287.4 22.8 287.4" fill="#fff"/>
          <polygon points="71.61 230.17 63.29 242.67 60.26 238.07 51.19 238.07 58.08 248.49 68.47 248.49 80.68 230.17 71.61 230.17" fill="#fff"/>
          <polygon points="54.94 269.64 63.26 257.15 66.3 261.74 75.36 261.74 68.47 251.32 58.08 251.32 45.88 269.64 54.94 269.64" fill="#fff"/>
          <polygon points="89.01 258.5 80.69 271 77.66 266.41 68.59 266.41 75.48 276.83 85.87 276.83 98.08 258.5 89.01 258.5" fill="#fff"/>
        </g>
      </g>
    </g>
  </g>
  <rect y="0" width="390" height="233.78" fill="url(#radial-gradient-2)"/>
  <path d="M30,199.09h330c16.56,0,30,13.44,30,30v654.91H0V229.09C0,212.53,13.44,199.09,30,199.09Z" fill="#fff"/>
  <g>
    <g shape-rendering="crispEdges">
      <rect x="33" y="670" width="153" height="44" rx="9.5" ry="9.5" fill="#fff"/>
      <path d="M176.5,670.5c4.96,0,9,4.04,9,9v25c0,4.96-4.04,9-9,9H42.5c-4.96,0-9-4.04-9-9v-25c0-4.96,4.04-9,9-9h134M176.5,669.5H42.5c-5.52,0-10,4.48-10,10v25c0,5.52,4.48,10,10,10h134c5.52,0,10-4.48,10-10v-25c0-5.52-4.48-10-10-10h0Z" fill="#e5e7eb"/>
    </g>
    <g clip-path="url(#clippath-1)">
      <g>
        <path d="M90.39,692.21c0-.65-.06-1.28-.17-1.88h-8.63v3.55h4.93c-.22,1.14-.87,2.11-1.84,2.76v2.31h2.98c1.73-1.6,2.73-3.95,2.73-6.74h0" fill="#4285f4"/>
        <path d="M81.59,701.17c2.48,0,4.55-.82,6.07-2.22l-2.98-2.31c-.82.55-1.86.88-3.09.88-2.38,0-4.41-1.61-5.13-3.78h-3.05v2.37c1.51,2.99,4.6,5.05,8.18,5.05h0" fill="#34a853"/>
        <path d="M76.46,693.74c-.18-.55-.29-1.13-.29-1.74s.11-1.19.29-1.74v-2.37h-3.05c-.62,1.23-.98,2.62-.98,4.11s.36,2.88.98,4.11l2.38-1.85.67-.52h0" fill="#fbbc05"/>
        <path d="M81.59,686.48c1.35,0,2.55.47,3.51,1.37l2.62-2.62c-1.59-1.48-3.66-2.39-6.13-2.39-3.58,0-6.67,2.06-8.18,5.06l3.05,2.37c.73-2.17,2.75-3.78,5.13-3.78h0" fill="#ea4335"/>
      </g>
    </g>
    <path d="M105,697.14c-.92,0-1.73-.21-2.42-.64-.7-.42-1.24-1.03-1.63-1.81-.39-.78-.58-1.71-.58-2.78s.2-2.02.59-2.8c.39-.78.94-1.38,1.62-1.8.69-.42,1.47-.63,2.35-.63.55,0,1.06.08,1.54.24.48.16.9.39,1.28.69.38.3.68.65.93,1.07.24.41.41.86.49,1.36h-1.6c-.09-.3-.22-.57-.38-.81-.16-.24-.35-.44-.57-.61-.22-.17-.47-.3-.75-.39-.28-.09-.59-.13-.92-.13-.57,0-1.09.15-1.55.44-.46.29-.82.72-1.09,1.29-.27.57-.4,1.26-.4,2.09s.13,1.51.4,2.08c.27.57.63,1,1.1,1.29.47.29,1,.44,1.6.44.55,0,1.02-.11,1.43-.33.41-.22.73-.54.95-.95.22-.41.34-.89.34-1.45l.41.07h-2.9v-1.28h4.02v1.17c0,.86-.18,1.6-.55,2.23-.37.63-.87,1.11-1.51,1.45s-1.37.51-2.2.51ZM114.28,697.16c-.72,0-1.34-.16-1.88-.49-.53-.33-.95-.79-1.24-1.38-.29-.59-.44-1.28-.44-2.06s.15-1.49.44-2.08c.3-.59.71-1.05,1.24-1.38.53-.33,1.16-.49,1.88-.49s1.35.16,1.89.49c.53.33.95.79,1.25,1.38.3.59.44,1.29.44,2.08s-.15,1.47-.44,2.06c-.29.59-.71,1.05-1.25,1.38-.54.33-1.16.49-1.89.49ZM114.28,695.89c.47,0,.85-.12,1.15-.37.3-.24.53-.57.68-.97.15-.4.22-.85.22-1.33s-.07-.93-.22-1.34c-.15-.41-.37-.73-.68-.98-.3-.24-.69-.37-1.15-.37s-.84.12-1.14.37c-.3.24-.52.57-.67.97-.15.41-.22.85-.22,1.34s.07.93.22,1.33c.15.4.37.73.67.97.3.24.68.37,1.14.37ZM122.74,697.16c-.72,0-1.34-.16-1.88-.49-.53-.33-.95-.79-1.24-1.38-.29-.59-.44-1.28-.44-2.06s.15-1.49.44-2.08c.3-.59.71-1.05,1.24-1.38.53-.33,1.16-.49,1.88-.49s1.35.16,1.89.49c.54.33.95.79,1.25,1.38.3.59.44,1.29.44,2.08s-.15,1.47-.44,2.06c-.29.59-.71,1.05-1.25,1.38-.54.33-1.16.49-1.89.49ZM122.74,695.89c.47,0,.85-.12,1.15-.37.3-.24.53-.57.68-.97.15-.4.22-.85.22-1.33s-.07-.93-.22-1.34c-.15-.41-.37-.73-.68-.98-.3-.24-.69-.37-1.15-.37s-.84.12-1.14.37c-.3.24-.52.57-.67.97-.15.41-.22.85-.22,1.34s.07.93.22,1.33c.15.4.37.73.67.97.3.24.68.37,1.14.37ZM131.18,700.02c-.59,0-1.1-.07-1.53-.22-.43-.15-.79-.35-1.07-.6-.28-.25-.49-.53-.64-.84l1.25-.59c.1.14.22.3.37.46.15.16.36.3.62.41s.59.17,1,.17c.58,0,1.05-.14,1.42-.41.36-.28.54-.71.54-1.29v-1.49h-.13c-.09.17-.21.35-.38.54-.16.2-.39.37-.68.51-.29.14-.67.21-1.13.21-.6,0-1.14-.14-1.62-.42-.48-.28-.86-.7-1.15-1.26-.28-.55-.42-1.24-.42-2.05s.14-1.51.42-2.09c.28-.58.66-1.03,1.15-1.34s1.03-.46,1.64-.46c.47,0,.85.08,1.15.23.29.16.52.34.69.55.17.21.29.4.38.55h.1v-1.24h1.47v7.75c0,.67-.15,1.22-.46,1.65-.3.43-.72.75-1.24.95-.52.21-1.11.31-1.76.31ZM131.17,695.63c.43,0,.79-.1,1.08-.3.29-.2.52-.49.67-.86.15-.38.23-.82.23-1.35s-.07-.96-.22-1.35c-.15-.39-.37-.69-.67-.91-.29-.22-.66-.33-1.09-.33s-.81.11-1.11.34-.52.54-.67.93c-.15.39-.22.83-.22,1.31s.08.93.23,1.31c.15.38.38.67.67.88.3.21.66.31,1.1.31ZM138.16,686.82v10.19h-1.5v-10.19h1.5ZM143.48,697.16c-.75,0-1.4-.16-1.95-.49-.54-.33-.96-.78-1.26-1.37-.29-.59-.44-1.28-.44-2.07s.14-1.47.43-2.07c.29-.6.7-1.06,1.23-1.4.53-.34,1.15-.5,1.86-.5.44,0,.86.07,1.27.21.41.14.77.37,1.1.67.32.31.58.7.77,1.19.19.49.28,1.07.28,1.76v.53h-6.09v-1.12h5.32l-.7.37c0-.47-.07-.88-.22-1.24-.15-.36-.36-.64-.65-.84-.29-.2-.64-.3-1.07-.3s-.79.1-1.09.31c-.3.21-.53.48-.69.81-.16.33-.24.7-.24,1.1v.76c0,.52.09.97.27,1.33.18.36.43.64.76.82.33.18.7.28,1.13.28.28,0,.53-.04.76-.12.23-.08.43-.2.59-.36.17-.16.29-.36.38-.6l1.41.33c-.12.4-.33.74-.62,1.04-.29.3-.65.53-1.08.7-.43.17-.92.25-1.47.25Z" fill="#374151"/>
  </g>
  <g>
    <g shape-rendering="crispEdges">
      <rect x="204" y="670" width="153" height="44" rx="9.5" ry="9.5" fill="#fff"/>
      <path d="M347.5,670.5c4.96,0,9,4.04,9,9v25c0,4.96-4.04,9-9,9h-134c-4.96,0-9-4.04-9-9v-25c0-4.96,4.04-9,9-9h134M347.5,669.5h-134c-5.52,0-10,4.48-10,10v25c0,5.52,4.48,10,10,10h134c5.52,0,10-4.48,10-10v-25c0-5.52-4.48-10-10-10h0Z" fill="#e5e7eb"/>
    </g>
    <g clip-path="url(#clippath-2)">
      <path d="M261.21,698.9c-.82.79-1.71.73-2.57.29-.91-.47-1.74-.4-2.57.29-.87.72-1.81.77-2.56.16-2.06-1.66-3.53-5.02-1.9-8.06.72-1.36,2.04-1.92,3.41-1.71.96.15,1.72.64,2.3.64.52,0,1.47-.66,2.6-.59,1.84.11,2.8,1.17,2.8,1.17,0,0-1.57.96-1.4,2.94.17,2.01,2.08,2.66,2.08,2.66-.06.21-.09.62-.4,1.32-.54,1.23-1.31,2.06-1.8,2.55v-1.67M257.03,688.04c-.12-1.89,1.37-3.37,3.11-3.54.22,2.03-1.83,3.63-3.11,3.54h0"/>
    </g>
    <path d="M275.35,697l3.63-10.19h1.91l3.69,10.19h-1.68l-1.98-5.67c-.15-.46-.32-1-.51-1.63-.18-.62-.4-1.37-.64-2.25h.32c-.24.88-.45,1.64-.63,2.27-.18.63-.34,1.17-.49,1.6l-1.92,5.67h-1.69ZM277.32,694.32v-1.3h5.3v1.3h-5.3ZM285.94,699.86v-10.5h1.47v1.24h.12c.09-.16.21-.34.38-.55.16-.21.39-.39.68-.55.29-.16.67-.24,1.15-.24.61,0,1.16.15,1.64.46.48.31.86.76,1.14,1.35.28.59.42,1.3.42,2.12s-.14,1.53-.41,2.12c-.27.59-.65,1.04-1.13,1.36-.48.32-1.03.47-1.65.47-.46,0-.84-.08-1.13-.24-.29-.16-.52-.34-.69-.55-.17-.21-.29-.4-.38-.56h-.09v4.05h-1.5ZM289.4,695.87c.44,0,.8-.12,1.1-.35.29-.24.52-.56.67-.96.15-.41.23-.86.23-1.37s-.07-.95-.22-1.35c-.15-.4-.37-.71-.66-.95-.29-.23-.66-.35-1.1-.35s-.79.11-1.09.33c-.3.22-.52.53-.67.92-.15.39-.23.86-.23,1.39s.08,1,.23,1.4c.15.4.38.72.67.95.3.23.66.34,1.08.34ZM294.6,699.86v-10.5h1.47v1.24h.12c.09-.16.21-.34.38-.55.16-.21.39-.39.68-.55.29-.16.67-.24,1.15-.24.61,0,1.16.15,1.64.46.48.31.86.76,1.14,1.35.28.59.42,1.3.42,2.12s-.14,1.53-.41,2.12c-.27.59-.65,1.04-1.13,1.36-.48.32-1.03.47-1.65.47-.46,0-.84-.08-1.13-.24-.29-.16-.52-.34-.69-.55-.17-.21-.29-.4-.38-.56h-.09v4.05h-1.5ZM298.06,695.87c.44,0,.8-.12,1.1-.35.29-.24.52-.56.67-.96.15-.41.22-.86.22-1.37s-.07-.95-.22-1.35c-.15-.4-.37-.71-.66-.95-.3-.23-.66-.35-1.11-.35s-.79.11-1.09.33c-.29.22-.52.53-.67.92-.15.39-.23.86-.23,1.39s.08,1,.23,1.4c.15.4.38.72.67.95.3.23.66.34,1.08.34ZM304.76,686.82v10.19h-1.5v-10.19h1.5ZM310.07,697.16c-.75,0-1.4-.16-1.95-.49-.54-.33-.96-.78-1.26-1.37-.29-.59-.44-1.28-.44-2.07s.15-1.47.43-2.07c.29-.6.7-1.06,1.23-1.4.53-.34,1.15-.5,1.86-.5.44,0,.86.07,1.27.21.41.14.77.37,1.1.67.32.31.58.7.77,1.19.19.49.28,1.07.28,1.76v.53h-6.09v-1.12h5.32l-.7.37c0-.47-.07-.88-.22-1.24-.15-.36-.36-.64-.65-.84-.29-.2-.64-.3-1.07-.3s-.79.1-1.09.31c-.3.21-.53.48-.69.81-.16.33-.24.7-.24,1.1v.76c0,.52.09.97.27,1.33.18.36.43.64.76.82.32.18.7.28,1.13.28.28,0,.53-.04.76-.12.23-.08.43-.2.59-.36.17-.16.29-.36.38-.6l1.41.33c-.12.4-.32.74-.61,1.04-.29.3-.65.53-1.08.7-.43.17-.92.25-1.47.25Z" fill="#374151"/>
  </g>
  <rect x="24" y="499" width="342" height="56" rx="10" ry="10" fill="#6000fe"/>
  <g>
    <rect x="24.5" y="300.5" width="341" height="52" rx="9.5" ry="9.5" fill="#f9fafb" stroke="#e5e7eb"/>
    <text transform="translate(69.35 331.89)" fill="#9ca3af" font-family="Poppins-Regular, Poppins" font-size="16"><tspan x="0" y="0">Email</tspan></text>
    <path d="M55,323.18v-1.68l-6.68,4.18-6.68-4.18v1.68l6.68,4.14,6.68-4.14h0M55,319.82c.44,0,.83.17,1.15.51.33.34.49.73.49,1.17v10c0,.44-.16.83-.49,1.17-.33.34-.71.51-1.15.51h-13.36c-.44,0-.83-.17-1.15-.51-.33-.34-.49-.73-.49-1.17v-10c0-.44.16-.83.49-1.17.33-.34.71-.51,1.15-.51h13.36" fill="#9ca3af"/>
    <text transform="translate(27.88 292.07)" fill="#9ca3af" font-family="Poppins-Regular, Poppins" font-size="14"><tspan x="0" y="0">Email Address</tspan></text>
  </g>
  <g>
    <rect x="24.5" y="388.49" width="341" height="52" rx="9.5" ry="9.5" fill="#f9fafb" stroke="#e5e7eb"/>
    <text transform="translate(69.35 419.88)" fill="#9ca3af" font-family="Poppins-Regular, Poppins" font-size="16"><tspan x="0" y="0">Password</tspan></text>
    <path d="M55,411.17v-1.68l-6.68,4.18-6.68-4.18v1.68l6.68,4.14,6.68-4.14h0M55,407.81c.44,0,.83.17,1.15.51.33.34.49.73.49,1.17v10c0,.44-.16.83-.49,1.17-.33.34-.71.51-1.15.51h-13.36c-.44,0-.83-.17-1.15-.51-.33-.34-.49-.73-.49-1.17v-10c0-.44.16-.83.49-1.17.33-.34.71-.51,1.15-.51h13.36" fill="#9ca3af"/>
    <text transform="translate(27.88 380.06)" fill="#9ca3af" font-family="Poppins-Regular, Poppins" font-size="14"><tspan x="0" y="0">Password</tspan></text>
  </g>
  <text transform="translate(242.36 468.82)" fill="#6000fe" font-family="Poppins-Regular, Poppins" font-size="14"><tspan x="0" y="0">Forgot Password?</tspan></text>
  <text transform="translate(174.89 534)" fill="#fff" font-family="Poppins-Bold, Poppins" font-size="18" font-weight="700"><tspan x="0" y="0">First</tspan></text>
  <rect x="32" y="607.45" width="86.78" height="1.1" fill="#e5e7eb"/>
  <rect x="271.22" y="627.45" width="86.78" height="1.1" fill="#e5e7eb"/>
  <text transform="translate(137.95 632.14)" fill="#9ca3af" font-family="Poppins-Medium, Poppins" font-size="12" font-weight="500"><tspan x="0" y="0">OR CONTINUE WITH</tspan></text>
  <g>
    <text transform="translate(81.99 762.99)" fill="#9ca3af" font-family="Poppins-Medium, Poppins" font-size="14" font-weight="500"><tspan x="0" y="0">Don’t have an account?</tspan></text>
    <text transform="translate(255.06 762.99)" fill="#6000fe" font-family="Poppins-Medium, Poppins" font-size="14" font-weight="500"><tspan x="0" y="0">Sign up</tspan></text>
  </g>
  <text transform="translate(106.43 156.74)" fill="#fff" font-family="Poppins-Regular, Poppins" font-size="16"><tspan x="0" y="0">Welcome to the XiriGo</tspan></text>
  <g>
    <g>
      <g>
        <path d="M166.75,85.56v25.32h-7.76v-25.32h7.76Z" fill="#fff"/>
        <path d="M183.54,86.49c1.36-.8,2.87-1.2,4.54-1.2v8.21h-2.13c-1.94,0-3.39.42-4.36,1.25-.97.83-1.45,2.29-1.45,4.38v11.75h-7.76v-25.32h7.76v4.22c.91-1.39,2.04-2.49,3.4-3.29Z" fill="#fff"/>
        <path d="M199.59,85.56v25.32h-7.76v-25.32h7.76Z" fill="#fff"/>
        <path d="M225.81,89.09c-.58-1.06-1.4-1.87-2.47-2.43-1.07-.56-2.34-.84-3.79-.84-2.51,0-4.52.82-6.04,2.47-1.51,1.65-2.27,3.85-2.27,6.6,0,2.93.79,5.23,2.38,6.87,1.59,1.65,3.77,2.47,6.56,2.47,1.91,0,3.52-.48,4.83-1.45,1.32-.97,2.28-2.36,2.88-4.17h-9.85v-5.72h16.88v7.22c-.57,1.94-1.55,3.74-2.93,5.4-1.38,1.66-3.12,3.01-5.24,4.04-2.12,1.03-4.51,1.54-7.17,1.54-3.15,0-5.95-.69-8.42-2.06-2.47-1.38-4.39-3.29-5.76-5.74-1.38-2.45-2.06-5.25-2.06-8.4s.69-5.95,2.06-8.42c1.38-2.47,3.29-4.39,5.74-5.76,2.45-1.38,5.25-2.06,8.4-2.06,3.81,0,7.03.92,9.64,2.77,2.62,1.85,4.35,4.4,5.2,7.67h-8.58Z" fill="#94d63a"/>
        <path d="M245.06,109.65c-1.98-1.06-3.54-2.57-4.67-4.54-1.13-1.97-1.7-4.27-1.7-6.9s.57-4.89,1.72-6.87c1.15-1.98,2.72-3.5,4.72-4.56,2-1.06,4.24-1.59,6.72-1.59s4.72.53,6.72,1.59c2,1.06,3.57,2.58,4.72,4.56,1.15,1.98,1.72,4.27,1.72,6.87s-.58,4.89-1.75,6.87c-1.16,1.98-2.75,3.5-4.76,4.56-2.01,1.06-4.26,1.59-6.74,1.59s-4.71-.53-6.69-1.59ZM255.54,102.89c1.04-1.09,1.57-2.65,1.57-4.67s-.51-3.58-1.52-4.67c-1.01-1.09-2.26-1.63-3.74-1.63s-2.77.54-3.77,1.61c-1,1.07-1.5,2.64-1.5,4.7s.49,3.59,1.47,4.67c.98,1.09,2.22,1.63,3.7,1.63s2.75-.54,3.79-1.63Z" fill="#94d63a"/>
      </g>
      <circle cx="162.87" cy="79.13" r="3.88" fill="#fff"/>
      <circle cx="195.71" cy="79.13" r="3.88" fill="#fff"/>
    </g>
    <polygon points="148.1 75.25 139.83 87.68 136.81 83.11 127.79 83.11 134.64 93.47 144.98 93.47 157.12 75.25 148.1 75.25" fill="#94d63a"/>
    <polygon points="134.01 110.88 139.83 102.08 145.68 110.88 154.7 110.88 144.98 96.29 134.64 96.29 125 110.88 134.01 110.88" fill="#fff"/>
  </g>
</svg>