<?xml version="1.0" encoding="UTF-8"?>
<svg xmlns="http://www.w3.org/2000/svg" width="1024" height="1024" viewBox="260.56 1866.29 646.15 646.15">
  <!-- XiriGo App Icon (no rounded corners — for platform icon generation) -->
  <defs>
    <clipPath id="squareClip">
      <rect x="260.56" y="1866.29" width="646.15" height="646.15"/>
    </clipPath>
  </defs>
  <!-- Background -->
  <rect x="260.56" y="1866.29" width="646.15" height="646.15" fill="#6000FE"/>
  <!-- X pattern at 10% opacity, clipped to square -->
  <g opacity="0.1" clip-path="url(#squareClip)">
      <polygon points="-4.3 2055.33 -22.59 2082.79 -29.26 2072.7 -49.17 2072.7 -34.04 2095.6 -11.2 2095.6 15.62 2055.33 -4.3 2055.33" fill="#fff"/>
      <polygon points="-40.94 2142.08 -22.65 2114.61 -15.98 2124.71 3.93 2124.71 -11.19 2101.81 -34.04 2101.81 -60.86 2142.08 -40.94 2142.08" fill="#fff"/>
      <polygon points="33.94 2117.6 15.65 2145.06 8.98 2134.97 -10.93 2134.97 4.19 2157.87 27.04 2157.87 53.86 2117.6 33.94 2117.6" fill="#fff"/>
      <polygon points="-2.7 2204.35 15.59 2176.88 22.26 2186.98 42.17 2186.98 27.04 2164.08 4.2 2164.08 -22.62 2204.35 -2.7 2204.35" fill="#fff"/>
      <polygon points="72.18 2179.87 53.89 2207.33 47.22 2197.24 27.31 2197.24 42.43 2220.13 65.28 2220.13 92.1 2179.87 72.18 2179.87" fill="#fff"/>
      <polygon points="35.54 2266.62 53.83 2239.15 60.5 2249.25 80.41 2249.25 65.28 2226.35 42.44 2226.35 15.62 2266.62 35.54 2266.62" fill="#fff"/>
      <polygon points="110.42 2242.14 92.13 2269.6 85.46 2259.51 65.54 2259.51 80.67 2282.4 103.52 2282.4 130.34 2242.14 110.42 2242.14" fill="#fff"/>
      <polygon points="73.78 2328.89 92.07 2301.42 98.74 2311.52 118.65 2311.52 103.52 2288.62 80.68 2288.62 53.86 2328.89 73.78 2328.89" fill="#fff"/>
      <polygon points="148.66 2304.41 130.37 2331.87 123.7 2321.78 103.78 2321.78 118.91 2344.67 141.76 2344.67 168.58 2304.41 148.66 2304.41" fill="#fff"/>
      <polygon points="112.02 2391.16 130.31 2363.69 136.98 2373.79 156.89 2373.79 141.76 2350.89 118.92 2350.89 92.1 2391.16 112.02 2391.16" fill="#fff"/>
      <polygon points="186.9 2366.68 168.61 2394.14 161.94 2384.05 142.02 2384.05 157.15 2406.94 180 2406.94 206.82 2366.68 186.9 2366.68" fill="#fff"/>
      <polygon points="150.26 2453.43 168.55 2425.96 175.22 2436.06 195.13 2436.06 180 2413.16 157.16 2413.16 130.34 2453.43 150.26 2453.43" fill="#fff"/>
      <polygon points="225.14 2428.95 206.85 2456.41 200.18 2446.32 180.26 2446.32 195.39 2469.21 218.24 2469.21 245.06 2428.95 225.14 2428.95" fill="#fff"/>
      <polygon points="188.49 2515.7 206.79 2488.23 213.46 2498.33 233.37 2498.33 218.24 2475.43 195.4 2475.43 168.58 2515.7 188.49 2515.7" fill="#fff"/>
      <polygon points="-10.14 1891.76 -28.43 1919.23 -35.1 1909.13 -55.02 1909.13 -39.89 1932.03 -17.04 1932.03 9.78 1891.76 -10.14 1891.76" fill="#fff"/>
      <polygon points="28.1 1954.03 9.81 1981.49 3.14 1971.4 -16.78 1971.4 -1.65 1994.3 21.2 1994.3 48.02 1954.03 28.1 1954.03" fill="#fff"/>
      <polygon points="-8.55 2040.78 9.75 2013.32 16.42 2023.41 36.33 2023.41 21.2 2000.51 -1.64 2000.51 -28.46 2040.78 -8.55 2040.78" fill="#fff"/>
      <polygon points="66.34 2016.3 48.05 2043.76 41.38 2033.67 21.46 2033.67 36.59 2056.57 59.44 2056.57 86.26 2016.3 66.34 2016.3" fill="#fff"/>
      <polygon points="29.69 2103.05 47.99 2075.59 54.66 2085.68 74.57 2085.68 59.44 2062.78 36.6 2062.78 9.78 2103.05 29.69 2103.05" fill="#fff"/>
      <polygon points="104.58 2078.57 86.29 2106.03 79.62 2095.94 59.7 2095.94 74.83 2118.84 97.68 2118.84 124.5 2078.57 104.58 2078.57" fill="#fff"/>
      <polygon points="67.93 2165.32 86.23 2137.86 92.9 2147.95 112.81 2147.95 97.68 2125.05 74.84 2125.05 48.02 2165.32 67.93 2165.32" fill="#fff"/>
      <polygon points="142.82 2140.84 124.53 2168.3 117.86 2158.21 97.94 2158.21 113.07 2181.11 135.92 2181.11 162.74 2140.84 142.82 2140.84" fill="#fff"/>
      <polygon points="106.17 2227.59 124.47 2200.13 131.14 2210.22 151.05 2210.22 135.92 2187.32 113.08 2187.32 86.26 2227.59 106.17 2227.59" fill="#fff"/>
      <polygon points="181.06 2203.11 162.77 2230.57 156.1 2220.48 136.18 2220.48 151.31 2243.38 174.16 2243.38 200.98 2203.11 181.06 2203.11" fill="#fff"/>
      <polygon points="144.41 2289.86 162.71 2262.4 169.38 2272.49 189.29 2272.49 174.16 2249.59 151.32 2249.59 124.5 2289.86 144.41 2289.86" fill="#fff"/>
      <polygon points="219.3 2265.38 201.01 2292.84 194.34 2282.75 174.42 2282.75 189.55 2305.65 212.4 2305.65 239.22 2265.38 219.3 2265.38" fill="#fff"/>
      <polygon points="182.65 2352.13 200.94 2324.67 207.62 2334.76 227.53 2334.76 212.4 2311.86 189.56 2311.86 162.74 2352.13 182.65 2352.13" fill="#fff"/>
      <polygon points="257.54 2327.65 239.25 2355.11 232.58 2345.02 212.66 2345.02 227.79 2367.92 250.64 2367.92 277.46 2327.65 257.54 2327.65" fill="#fff"/>
      <polygon points="220.89 2414.4 239.18 2386.94 245.85 2397.03 265.77 2397.03 250.64 2374.13 227.8 2374.13 200.98 2414.4 220.89 2414.4" fill="#fff"/>
      <polygon points="295.78 2389.92 277.49 2417.38 270.82 2407.29 250.9 2407.29 266.03 2430.19 288.88 2430.19 315.7 2389.92 295.78 2389.92" fill="#fff"/>
      <polygon points="259.13 2476.67 277.42 2449.21 284.09 2459.3 304.01 2459.3 288.88 2436.4 266.04 2436.4 239.22 2476.67 259.13 2476.67" fill="#fff"/>
      <polygon points="57.58 1857.23 39.28 1884.69 32.61 1874.6 12.7 1874.6 27.83 1897.5 50.67 1897.5 77.49 1857.23 57.58 1857.23" fill="#fff"/>
      <polygon points="20.93 1943.98 39.22 1916.51 45.89 1926.61 65.81 1926.61 50.68 1903.71 27.83 1903.71 1.01 1943.98 20.93 1943.98" fill="#fff"/>
      <polygon points="95.82 1919.5 77.52 1946.96 70.85 1936.87 50.94 1936.87 66.07 1959.77 88.91 1959.77 115.73 1919.5 95.82 1919.5" fill="#fff"/>
      <polygon points="59.17 2006.25 77.46 1978.78 84.13 1988.88 104.05 1988.88 88.92 1965.98 66.07 1965.98 39.25 2006.25 59.17 2006.25" fill="#fff"/>
      <polygon points="134.06 1981.77 115.76 2009.23 109.09 1999.14 89.18 1999.14 104.31 2022.03 127.15 2022.03 153.97 1981.77 134.06 1981.77" fill="#fff"/>
      <polygon points="97.41 2068.52 115.7 2041.05 122.37 2051.15 142.29 2051.15 127.16 2028.25 104.31 2028.25 77.49 2068.52 97.41 2068.52" fill="#fff"/>
      <polygon points="172.3 2044.04 154 2071.5 147.33 2061.41 127.42 2061.41 142.55 2084.3 165.39 2084.3 192.21 2044.04 172.3 2044.04" fill="#fff"/>
      <polygon points="135.65 2130.79 153.94 2103.32 160.61 2113.42 180.53 2113.42 165.4 2090.52 142.55 2090.52 115.73 2130.79 135.65 2130.79" fill="#fff"/>
      <polygon points="210.54 2106.31 192.24 2133.77 185.57 2123.68 165.66 2123.68 180.79 2146.57 203.63 2146.57 230.45 2106.31 210.54 2106.31" fill="#fff"/>
      <polygon points="173.89 2193.06 192.18 2165.59 198.85 2175.69 218.77 2175.69 203.64 2152.79 180.79 2152.79 153.97 2193.06 173.89 2193.06" fill="#fff"/>
      <polygon points="248.78 2168.58 230.48 2196.04 223.81 2185.95 203.9 2185.95 219.03 2208.84 241.87 2208.84 268.69 2168.58 248.78 2168.58" fill="#fff"/>
      <polygon points="212.13 2255.33 230.42 2227.86 237.09 2237.96 257.01 2237.96 241.88 2215.06 219.03 2215.06 192.21 2255.33 212.13 2255.33" fill="#fff"/>
      <polygon points="287.02 2230.85 268.72 2258.31 262.05 2248.22 242.14 2248.22 257.27 2271.11 280.11 2271.11 306.93 2230.85 287.02 2230.85" fill="#fff"/>
      <polygon points="250.37 2317.6 268.66 2290.13 275.33 2300.23 295.25 2300.23 280.12 2277.33 257.27 2277.33 230.45 2317.6 250.37 2317.6" fill="#fff"/>
      <polygon points="325.26 2293.12 306.96 2320.58 300.29 2310.49 280.38 2310.49 295.51 2333.38 318.35 2333.38 345.17 2293.12 325.26 2293.12" fill="#fff"/>
      <polygon points="288.61 2379.87 306.9 2352.4 313.57 2362.5 333.49 2362.5 318.36 2339.6 295.51 2339.6 268.69 2379.87 288.61 2379.87" fill="#fff"/>
      <polygon points="363.5 2355.39 345.2 2382.85 338.53 2372.76 318.62 2372.76 333.75 2395.65 356.59 2395.65 383.41 2355.39 363.5 2355.39" fill="#fff"/>
      <polygon points="326.85 2442.14 345.14 2414.67 351.81 2424.77 371.73 2424.77 356.6 2401.87 333.75 2401.87 306.93 2442.14 326.85 2442.14" fill="#fff"/>
      <polygon points="128.21 1818.2 109.92 1845.66 103.25 1835.57 83.34 1835.57 98.47 1858.47 121.31 1858.47 148.13 1818.2 128.21 1818.2" fill="#fff"/>
      <polygon points="91.57 1904.95 109.86 1877.49 116.53 1887.58 136.45 1887.58 121.32 1864.68 98.47 1864.68 71.65 1904.95 91.57 1904.95" fill="#fff"/>
      <polygon points="166.45 1880.47 148.16 1907.93 141.49 1897.84 121.58 1897.84 136.71 1920.74 159.55 1920.74 186.37 1880.47 166.45 1880.47" fill="#fff"/>
      <polygon points="129.81 1967.22 148.1 1939.76 154.77 1949.85 174.68 1949.85 159.56 1926.95 136.71 1926.95 109.89 1967.22 129.81 1967.22" fill="#fff"/>
      <polygon points="204.69 1942.74 186.4 1970.2 179.73 1960.11 159.82 1960.11 174.94 1983.01 197.79 1983.01 224.61 1942.74 204.69 1942.74" fill="#fff"/>
      <polygon points="168.05 2029.49 186.34 2002.03 193.01 2012.12 212.92 2012.12 197.79 1989.22 174.95 1989.22 148.13 2029.49 168.05 2029.49" fill="#fff"/>
      <polygon points="242.93 2005.01 224.64 2032.47 217.97 2022.38 198.05 2022.38 213.18 2045.28 236.03 2045.28 262.85 2005.01 242.93 2005.01" fill="#fff"/>
      <polygon points="206.29 2091.76 224.58 2064.3 231.25 2074.39 251.16 2074.39 236.03 2051.49 213.19 2051.49 186.37 2091.76 206.29 2091.76" fill="#fff"/>
      <polygon points="281.17 2067.28 262.88 2094.74 256.21 2084.65 236.29 2084.65 251.42 2107.55 274.27 2107.55 301.09 2067.28 281.17 2067.28" fill="#fff"/>
      <polygon points="244.53 2154.03 262.82 2126.57 269.49 2136.66 289.4 2136.66 274.27 2113.76 251.43 2113.76 224.61 2154.03 244.53 2154.03" fill="#fff"/>
      <polygon points="319.41 2129.55 301.12 2157.01 294.45 2146.92 274.53 2146.92 289.66 2169.82 312.51 2169.82 339.33 2129.55 319.41 2129.55" fill="#fff"/>
      <polygon points="282.77 2216.3 301.06 2188.84 307.73 2198.93 327.64 2198.93 312.51 2176.03 289.67 2176.03 262.85 2216.3 282.77 2216.3" fill="#fff"/>
      <polygon points="357.65 2191.82 339.36 2219.28 332.69 2209.19 312.77 2209.19 327.9 2232.09 350.75 2232.09 377.57 2191.82 357.65 2191.82" fill="#fff"/>
      <polygon points="321.01 2278.57 339.3 2251.11 345.97 2261.2 365.88 2261.2 350.75 2238.3 327.91 2238.3 301.09 2278.57 321.01 2278.57" fill="#fff"/>
      <polygon points="395.89 2254.09 377.6 2281.55 370.93 2271.46 351.01 2271.46 366.14 2294.36 388.99 2294.36 415.81 2254.09 395.89 2254.09" fill="#fff"/>
      <polygon points="359.24 2340.84 377.54 2313.38 384.21 2323.47 404.12 2323.47 388.99 2300.57 366.15 2300.57 339.33 2340.84 359.24 2340.84" fill="#fff"/>
      <polygon points="434.13 2316.36 415.84 2343.82 409.17 2333.73 389.25 2333.73 404.38 2356.63 427.23 2356.63 454.05 2316.36 434.13 2316.36" fill="#fff"/>
      <polygon points="397.48 2403.11 415.78 2375.65 422.45 2385.74 442.36 2385.74 427.23 2362.84 404.39 2362.84 377.57 2403.11 397.48 2403.11" fill="#fff"/>
      <polygon points="195.93 1783.67 177.64 1811.13 170.97 1801.04 151.05 1801.04 166.18 1823.93 189.03 1823.93 215.85 1783.67 195.93 1783.67" fill="#fff"/>
      <polygon points="159.28 1870.42 177.57 1842.95 184.25 1853.05 204.16 1853.05 189.03 1830.15 166.19 1830.15 139.37 1870.42 159.28 1870.42" fill="#fff"/>
      <polygon points="234.17 1845.94 215.88 1873.4 209.21 1863.31 189.29 1863.31 204.42 1886.2 227.27 1886.2 254.09 1845.94 234.17 1845.94" fill="#fff"/>
      <polygon points="197.52 1932.69 215.81 1905.22 222.48 1915.32 242.4 1915.32 227.27 1892.42 204.43 1892.42 177.61 1932.69 197.52 1932.69" fill="#fff"/>
      <polygon points="272.41 1908.21 254.12 1935.67 247.45 1925.58 227.53 1925.58 242.66 1948.47 265.51 1948.47 292.33 1908.21 272.41 1908.21" fill="#fff"/>
      <polygon points="235.76 1994.96 254.05 1967.49 260.72 1977.59 280.64 1977.59 265.51 1954.69 242.67 1954.69 215.85 1994.96 235.76 1994.96" fill="#fff"/>
      <polygon points="310.65 1970.48 292.36 1997.94 285.69 1987.85 265.77 1987.85 280.9 2010.74 303.75 2010.74 330.57 1970.48 310.65 1970.48" fill="#fff"/>
      <polygon points="274 2057.23 292.29 2029.76 298.96 2039.86 318.88 2039.86 303.75 2016.96 280.91 2016.96 254.09 2057.23 274 2057.23" fill="#fff"/>
      <polygon points="348.89 2032.75 330.6 2060.21 323.93 2050.12 304.01 2050.12 319.14 2073.01 341.99 2073.01 368.8 2032.75 348.89 2032.75" fill="#fff"/>
      <polygon points="312.24 2119.5 330.53 2092.03 337.2 2102.13 357.12 2102.13 341.99 2079.23 319.15 2079.23 292.33 2119.5 312.24 2119.5" fill="#fff"/>
      <polygon points="387.13 2095.02 368.84 2122.48 362.17 2112.39 342.25 2112.39 357.38 2135.28 380.23 2135.28 407.04 2095.02 387.13 2095.02" fill="#fff"/>
      <polygon points="350.48 2181.77 368.77 2154.3 375.44 2164.4 395.36 2164.4 380.23 2141.5 357.38 2141.5 330.57 2181.77 350.48 2181.77" fill="#fff"/>
      <polygon points="425.37 2157.29 407.08 2184.75 400.41 2174.66 380.49 2174.66 395.62 2197.55 418.46 2197.55 445.28 2157.29 425.37 2157.29" fill="#fff"/>
      <polygon points="388.72 2244.04 407.01 2216.57 413.68 2226.67 433.6 2226.67 418.47 2203.77 395.62 2203.77 368.8 2244.04 388.72 2244.04" fill="#fff"/>
      <polygon points="463.61 2219.56 445.32 2247.02 438.65 2236.93 418.73 2236.93 433.86 2259.82 456.7 2259.82 483.52 2219.56 463.61 2219.56" fill="#fff"/>
      <polygon points="426.96 2306.31 445.25 2278.84 451.92 2288.94 471.84 2288.94 456.71 2266.04 433.86 2266.04 407.04 2306.31 426.96 2306.31" fill="#fff"/>
      <polygon points="501.85 2281.83 483.56 2309.29 476.89 2299.2 456.97 2299.2 472.1 2322.09 494.94 2322.09 521.76 2281.83 501.85 2281.83" fill="#fff"/>
      <polygon points="465.2 2368.58 483.49 2341.11 490.16 2351.21 510.08 2351.21 494.95 2328.31 472.1 2328.31 445.28 2368.58 465.2 2368.58" fill="#fff"/>
      <polygon points="266.57 1744.64 248.27 1772.1 241.6 1762.01 221.69 1762.01 236.82 1784.91 259.66 1784.91 286.48 1744.64 266.57 1744.64" fill="#fff"/>
      <polygon points="229.92 1831.39 248.21 1803.93 254.88 1814.02 274.8 1814.02 259.67 1791.12 236.82 1791.12 210 1831.39 229.92 1831.39" fill="#fff"/>
      <polygon points="304.81 1806.91 286.51 1834.37 279.84 1824.28 259.93 1824.28 275.06 1847.18 297.9 1847.18 324.72 1806.91 304.81 1806.91" fill="#fff"/>
      <polygon points="268.16 1893.66 286.45 1866.2 293.12 1876.29 313.04 1876.29 297.91 1853.39 275.06 1853.39 248.24 1893.66 268.16 1893.66" fill="#fff"/>
      <polygon points="343.05 1869.18 324.75 1896.64 318.08 1886.55 298.17 1886.55 313.3 1909.45 336.14 1909.45 362.96 1869.18 343.05 1869.18" fill="#fff"/>
      <polygon points="306.4 1955.93 324.69 1928.47 331.36 1938.56 351.28 1938.56 336.15 1915.66 313.3 1915.66 286.48 1955.93 306.4 1955.93" fill="#fff"/>
      <polygon points="381.29 1931.45 362.99 1958.91 356.32 1948.82 336.41 1948.82 351.54 1971.72 374.38 1971.72 401.2 1931.45 381.29 1931.45" fill="#fff"/>
      <polygon points="344.64 2018.2 362.93 1990.74 369.6 2000.83 389.52 2000.83 374.39 1977.93 351.54 1977.93 324.72 2018.2 344.64 2018.2" fill="#fff"/>
      <polygon points="419.53 1993.72 401.23 2021.18 394.56 2011.09 374.65 2011.09 389.78 2033.99 412.62 2033.99 439.44 1993.72 419.53 1993.72" fill="#fff"/>
      <polygon points="382.88 2080.47 401.17 2053.01 407.84 2063.1 427.76 2063.1 412.63 2040.2 389.78 2040.2 362.96 2080.47 382.88 2080.47" fill="#fff"/>
      <polygon points="457.77 2055.99 439.47 2083.45 432.8 2073.36 412.89 2073.36 428.02 2096.26 450.86 2096.26 477.68 2055.99 457.77 2055.99" fill="#fff"/>
      <polygon points="421.12 2142.74 439.41 2115.28 446.08 2125.37 466 2125.37 450.87 2102.47 428.02 2102.47 401.2 2142.74 421.12 2142.74" fill="#fff"/>
      <polygon points="496.01 2118.26 477.71 2145.72 471.04 2135.63 451.13 2135.63 466.26 2158.53 489.1 2158.53 515.92 2118.26 496.01 2118.26" fill="#fff"/>
      <polygon points="459.36 2205.01 477.65 2177.55 484.32 2187.64 504.24 2187.64 489.11 2164.74 466.26 2164.74 439.44 2205.01 459.36 2205.01" fill="#fff"/>
      <polygon points="534.25 2180.53 515.95 2207.99 509.28 2197.9 489.37 2197.9 504.5 2220.8 527.34 2220.8 554.16 2180.53 534.25 2180.53" fill="#fff"/>
      <polygon points="497.6 2267.28 515.89 2239.82 522.56 2249.91 542.48 2249.91 527.35 2227.01 504.5 2227.01 477.68 2267.28 497.6 2267.28" fill="#fff"/>
      <polygon points="572.49 2242.8 554.19 2270.26 547.52 2260.17 527.61 2260.17 542.74 2283.07 565.58 2283.07 592.4 2242.8 572.49 2242.8" fill="#fff"/>
      <polygon points="535.84 2329.55 554.13 2302.08 560.8 2312.18 580.72 2312.18 565.59 2289.28 542.74 2289.28 515.92 2329.55 535.84 2329.55" fill="#fff"/>
      <polygon points="334.28 1710.11 315.99 1737.57 309.32 1727.48 289.4 1727.48 304.53 1750.37 327.38 1750.37 354.2 1710.11 334.28 1710.11" fill="#fff"/>
      <polygon points="297.63 1796.86 315.93 1769.39 322.6 1779.49 342.51 1779.49 327.38 1756.59 304.54 1756.59 277.72 1796.86 297.63 1796.86" fill="#fff"/>
      <polygon points="372.52 1772.38 354.23 1799.84 347.56 1789.75 327.64 1789.75 342.77 1812.64 365.62 1812.64 392.44 1772.38 372.52 1772.38" fill="#fff"/>
      <polygon points="335.87 1859.13 354.17 1831.66 360.84 1841.76 380.75 1841.76 365.62 1818.86 342.78 1818.86 315.96 1859.13 335.87 1859.13" fill="#fff"/>
      <polygon points="410.76 1834.65 392.47 1862.11 385.8 1852.02 365.88 1852.02 381.01 1874.91 403.86 1874.91 430.68 1834.65 410.76 1834.65" fill="#fff"/>
      <polygon points="374.11 1921.4 392.41 1893.93 399.08 1904.03 418.99 1904.03 403.86 1881.13 381.02 1881.13 354.2 1921.4 374.11 1921.4" fill="#fff"/>
      <polygon points="449 1896.92 430.71 1924.38 424.04 1914.29 404.12 1914.29 419.25 1937.18 442.1 1937.18 468.92 1896.92 449 1896.92" fill="#fff"/>
      <polygon points="412.35 1983.67 430.65 1956.2 437.32 1966.3 457.23 1966.3 442.1 1943.4 419.26 1943.4 392.44 1983.67 412.35 1983.67" fill="#fff"/>
      <polygon points="487.24 1959.19 468.95 1986.65 462.28 1976.56 442.36 1976.56 457.49 1999.45 480.34 1999.45 507.16 1959.19 487.24 1959.19" fill="#fff"/>
      <polygon points="450.59 2045.94 468.89 2018.47 475.56 2028.57 495.47 2028.57 480.34 2005.67 457.5 2005.67 430.68 2045.94 450.59 2045.94" fill="#fff"/>
      <polygon points="525.48 2021.46 507.19 2048.92 500.52 2038.83 480.6 2038.83 495.73 2061.72 518.58 2061.72 545.4 2021.46 525.48 2021.46" fill="#fff"/>
      <polygon points="488.83 2108.21 507.13 2080.74 513.8 2090.84 533.71 2090.84 518.58 2067.94 495.74 2067.94 468.92 2108.21 488.83 2108.21" fill="#fff"/>
      <polygon points="563.72 2083.73 545.43 2111.19 538.76 2101.1 518.84 2101.1 533.97 2123.99 556.82 2123.99 583.64 2083.73 563.72 2083.73" fill="#fff"/>
      <polygon points="527.07 2170.48 545.37 2143.01 552.04 2153.11 571.95 2153.11 556.82 2130.21 533.98 2130.21 507.16 2170.48 527.07 2170.48" fill="#fff"/>
      <polygon points="601.96 2146 583.67 2173.46 577 2163.37 557.08 2163.37 572.21 2186.26 595.06 2186.26 621.88 2146 601.96 2146" fill="#fff"/>
      <polygon points="565.31 2232.75 583.61 2205.28 590.28 2215.38 610.19 2215.38 595.06 2192.48 572.22 2192.48 545.4 2232.75 565.31 2232.75" fill="#fff"/>
      <polygon points="640.2 2208.26 621.91 2235.73 615.24 2225.64 595.32 2225.64 610.45 2248.53 633.3 2248.53 660.12 2208.26 640.2 2208.26" fill="#fff"/>
      <polygon points="603.55 2295.02 621.85 2267.55 628.52 2277.65 648.43 2277.65 633.3 2254.75 610.46 2254.75 583.64 2295.02 603.55 2295.02" fill="#fff"/>
      <polygon points="404.92 1671.08 386.63 1698.54 379.96 1688.45 360.04 1688.45 375.17 1711.35 398.02 1711.35 424.84 1671.08 404.92 1671.08" fill="#fff"/>
      <polygon points="368.27 1757.83 386.56 1730.37 393.23 1740.46 413.15 1740.46 398.02 1717.56 375.18 1717.56 348.36 1757.83 368.27 1757.83" fill="#fff"/>
      <polygon points="443.16 1733.35 424.87 1760.81 418.2 1750.72 398.28 1750.72 413.41 1773.62 436.26 1773.62 463.08 1733.35 443.16 1733.35" fill="#fff"/>
      <polygon points="406.51 1820.1 424.8 1792.64 431.47 1802.73 451.39 1802.73 436.26 1779.83 413.42 1779.83 386.6 1820.1 406.51 1820.1" fill="#fff"/>
      <polygon points="481.4 1795.62 463.11 1823.08 456.44 1812.99 436.52 1812.99 451.65 1835.89 474.5 1835.89 501.32 1795.62 481.4 1795.62" fill="#fff"/>
      <polygon points="444.75 1882.37 463.04 1854.91 469.71 1865 489.63 1865 474.5 1842.1 451.66 1842.1 424.84 1882.37 444.75 1882.37" fill="#fff"/>
      <polygon points="519.64 1857.89 501.35 1885.35 494.68 1875.26 474.76 1875.26 489.89 1898.16 512.74 1898.16 539.55 1857.89 519.64 1857.89" fill="#fff"/>
      <polygon points="482.99 1944.64 501.28 1917.18 507.95 1927.27 527.87 1927.27 512.74 1904.37 489.89 1904.37 463.08 1944.64 482.99 1944.64" fill="#fff"/>
      <polygon points="557.88 1920.16 539.59 1947.62 532.92 1937.53 513 1937.53 528.13 1960.43 550.98 1960.43 577.79 1920.16 557.88 1920.16" fill="#fff"/>
      <polygon points="521.23 2006.91 539.52 1979.45 546.19 1989.54 566.11 1989.54 550.98 1966.64 528.13 1966.64 501.32 2006.91 521.23 2006.91" fill="#fff"/>
      <polygon points="596.12 1982.43 577.83 2009.89 571.16 1999.8 551.24 1999.8 566.37 2022.7 589.21 2022.7 616.03 1982.43 596.12 1982.43" fill="#fff"/>
      <polygon points="559.47 2069.18 577.76 2041.72 584.43 2051.81 604.35 2051.81 589.22 2028.91 566.37 2028.91 539.55 2069.18 559.47 2069.18" fill="#fff"/>
      <polygon points="634.36 2044.7 616.07 2072.16 609.4 2062.07 589.48 2062.07 604.61 2084.97 627.45 2084.97 654.27 2044.7 634.36 2044.7" fill="#fff"/>
      <polygon points="597.71 2131.45 616 2103.98 622.67 2114.08 642.59 2114.08 627.46 2091.18 604.61 2091.18 577.79 2131.45 597.71 2131.45" fill="#fff"/>
      <polygon points="672.6 2106.97 654.31 2134.43 647.64 2124.34 627.72 2124.34 642.85 2147.24 665.69 2147.24 692.51 2106.97 672.6 2106.97" fill="#fff"/>
      <polygon points="635.95 2193.72 654.24 2166.25 660.91 2176.35 680.83 2176.35 665.7 2153.45 642.85 2153.45 616.03 2193.72 635.95 2193.72" fill="#fff"/>
      <polygon points="710.84 2169.24 692.55 2196.7 685.88 2186.61 665.96 2186.61 681.09 2209.51 703.93 2209.51 730.75 2169.24 710.84 2169.24" fill="#fff"/>
      <polygon points="674.19 2255.99 692.48 2228.52 699.15 2238.62 719.07 2238.62 703.94 2215.72 681.09 2215.72 654.27 2255.99 674.19 2255.99" fill="#fff"/>
      <polygon points="472.64 1636.55 454.34 1664.01 447.67 1653.92 427.76 1653.92 442.89 1676.81 465.73 1676.81 492.55 1636.55 472.64 1636.55" fill="#fff"/>
      <polygon points="435.99 1723.3 454.28 1695.83 460.95 1705.93 480.87 1705.93 465.74 1683.03 442.89 1683.03 416.07 1723.3 435.99 1723.3" fill="#fff"/>
      <polygon points="510.88 1698.82 492.58 1726.28 485.91 1716.19 466 1716.19 481.13 1739.08 503.97 1739.08 530.79 1698.82 510.88 1698.82" fill="#fff"/>
      <polygon points="474.23 1785.57 492.52 1758.1 499.19 1768.2 519.11 1768.2 503.98 1745.3 481.13 1745.3 454.31 1785.57 474.23 1785.57" fill="#fff"/>
      <polygon points="549.12 1761.09 530.82 1788.55 524.15 1778.46 504.24 1778.46 519.37 1801.35 542.21 1801.35 569.03 1761.09 549.12 1761.09" fill="#fff"/>
      <polygon points="512.47 1847.84 530.76 1820.37 537.43 1830.47 557.35 1830.47 542.22 1807.57 519.37 1807.57 492.55 1847.84 512.47 1847.84" fill="#fff"/>
      <polygon points="587.35 1823.36 569.06 1850.82 562.39 1840.73 542.48 1840.73 557.61 1863.62 580.45 1863.62 607.27 1823.36 587.35 1823.36" fill="#fff"/>
      <polygon points="550.71 1910.11 569 1882.64 575.67 1892.74 595.59 1892.74 580.46 1869.84 557.61 1869.84 530.79 1910.11 550.71 1910.11" fill="#fff"/>
      <polygon points="625.59 1885.63 607.3 1913.09 600.63 1903 580.72 1903 595.85 1925.89 618.69 1925.89 645.51 1885.63 625.59 1885.63" fill="#fff"/>
      <polygon points="588.95 1972.38 607.24 1944.91 613.91 1955.01 633.83 1955.01 618.7 1932.11 595.85 1932.11 569.03 1972.38 588.95 1972.38" fill="#fff"/>
      <polygon points="663.83 1947.9 645.54 1975.36 638.87 1965.27 618.96 1965.27 634.09 1988.16 656.93 1988.16 683.75 1947.9 663.83 1947.9" fill="#fff"/>
      <polygon points="627.19 2034.65 645.48 2007.18 652.15 2017.28 672.07 2017.28 656.94 1994.38 634.09 1994.38 607.27 2034.65 627.19 2034.65" fill="#fff"/>
      <polygon points="702.07 2010.16 683.78 2037.63 677.11 2027.54 657.2 2027.54 672.33 2050.43 695.17 2050.43 721.99 2010.16 702.07 2010.16" fill="#fff"/>
      <polygon points="665.43 2096.92 683.72 2069.45 690.39 2079.55 710.3 2079.55 695.18 2056.65 672.33 2056.65 645.51 2096.92 665.43 2096.92" fill="#fff"/>
      <polygon points="740.31 2072.43 722.02 2099.9 715.35 2089.81 695.44 2089.81 710.56 2112.7 733.41 2112.7 760.23 2072.43 740.31 2072.43" fill="#fff"/>
      <polygon points="703.67 2159.19 721.96 2131.72 728.63 2141.82 748.54 2141.82 733.41 2118.92 710.57 2118.92 683.75 2159.19 703.67 2159.19" fill="#fff"/>
      <polygon points="778.55 2134.7 760.26 2162.17 753.59 2152.08 733.67 2152.08 748.8 2174.97 771.65 2174.97 798.47 2134.7 778.55 2134.7" fill="#fff"/>
      <polygon points="741.91 2221.46 760.2 2193.99 766.87 2204.09 786.78 2204.09 771.65 2181.19 748.81 2181.19 721.99 2221.46 741.91 2221.46" fill="#fff"/>
      <polygon points="543.27 1597.52 524.98 1624.98 518.31 1614.89 498.39 1614.89 513.52 1637.79 536.37 1637.79 563.19 1597.52 543.27 1597.52" fill="#fff"/>
      <polygon points="506.62 1684.27 524.92 1656.81 531.59 1666.9 551.5 1666.9 536.37 1644 513.53 1644 486.71 1684.27 506.62 1684.27" fill="#fff"/>
      <polygon points="581.51 1659.79 563.22 1687.25 556.55 1677.16 536.63 1677.16 551.76 1700.06 574.61 1700.06 601.43 1659.79 581.51 1659.79" fill="#fff"/>
      <polygon points="544.86 1746.54 563.16 1719.08 569.83 1729.17 589.74 1729.17 574.61 1706.27 551.77 1706.27 524.95 1746.54 544.86 1746.54" fill="#fff"/>
      <polygon points="619.75 1722.06 601.46 1749.52 594.79 1739.43 574.87 1739.43 590 1762.33 612.85 1762.33 639.67 1722.06 619.75 1722.06" fill="#fff"/>
      <polygon points="583.1 1808.81 601.4 1781.35 608.07 1791.44 627.98 1791.44 612.85 1768.54 590.01 1768.54 563.19 1808.81 583.1 1808.81" fill="#fff"/>
      <polygon points="657.99 1784.33 639.7 1811.79 633.03 1801.7 613.11 1801.7 628.24 1824.6 651.09 1824.6 677.91 1784.33 657.99 1784.33" fill="#fff"/>
      <polygon points="621.34 1871.08 639.64 1843.62 646.31 1853.71 666.22 1853.71 651.09 1830.81 628.25 1830.81 601.43 1871.08 621.34 1871.08" fill="#fff"/>
      <polygon points="696.23 1846.6 677.94 1874.06 671.27 1863.97 651.35 1863.97 666.48 1886.87 689.33 1886.87 716.15 1846.6 696.23 1846.6" fill="#fff"/>
      <polygon points="659.58 1933.35 677.88 1905.88 684.55 1915.98 704.46 1915.98 689.33 1893.08 666.49 1893.08 639.67 1933.35 659.58 1933.35" fill="#fff"/>
      <polygon points="734.47 1908.87 716.18 1936.33 709.51 1926.24 689.59 1926.24 704.72 1949.14 727.57 1949.14 754.39 1908.87 734.47 1908.87" fill="#fff"/>
      <polygon points="697.82 1995.62 716.12 1968.15 722.79 1978.25 742.7 1978.25 727.57 1955.35 704.73 1955.35 677.91 1995.62 697.82 1995.62" fill="#fff"/>
      <polygon points="772.71 1971.14 754.42 1998.6 747.75 1988.51 727.83 1988.51 742.96 2011.41 765.81 2011.41 792.63 1971.14 772.71 1971.14" fill="#fff"/>
      <polygon points="736.06 2057.89 754.36 2030.42 761.03 2040.52 780.94 2040.52 765.81 2017.62 742.97 2017.62 716.15 2057.89 736.06 2057.89" fill="#fff"/>
      <polygon points="810.95 2033.41 792.66 2060.87 785.99 2050.78 766.07 2050.78 781.2 2073.68 804.05 2073.68 830.87 2033.41 810.95 2033.41" fill="#fff"/>
      <polygon points="774.3 2120.16 792.6 2092.69 799.27 2102.79 819.18 2102.79 804.05 2079.89 781.21 2079.89 754.39 2120.16 774.3 2120.16" fill="#fff"/>
      <polygon points="849.19 2095.68 830.9 2123.14 824.23 2113.05 804.31 2113.05 819.44 2135.95 842.29 2135.95 869.11 2095.68 849.19 2095.68" fill="#fff"/>
      <polygon points="812.54 2182.43 830.84 2154.96 837.51 2165.06 857.42 2165.06 842.29 2142.16 819.45 2142.16 792.63 2182.43 812.54 2182.43" fill="#fff"/>
      <polygon points="610.99 1562.99 592.7 1590.45 586.03 1580.36 566.11 1580.36 581.24 1603.25 604.08 1603.25 630.9 1562.99 610.99 1562.99" fill="#fff"/>
      <polygon points="574.34 1649.74 592.63 1622.27 599.3 1632.37 619.22 1632.37 604.09 1609.47 581.24 1609.47 554.42 1649.74 574.34 1649.74" fill="#fff"/>
      <polygon points="649.23 1625.26 630.94 1652.72 624.27 1642.63 604.35 1642.63 619.48 1665.52 642.32 1665.52 669.14 1625.26 649.23 1625.26" fill="#fff"/>
      <polygon points="612.58 1712.01 630.87 1684.54 637.54 1694.64 657.46 1694.64 642.33 1671.74 619.48 1671.74 592.66 1712.01 612.58 1712.01" fill="#fff"/>
      <polygon points="687.47 1687.53 669.18 1714.99 662.5 1704.9 642.59 1704.9 657.72 1727.79 680.56 1727.79 707.38 1687.53 687.47 1687.53" fill="#fff"/>
      <polygon points="650.82 1774.28 669.11 1746.81 675.78 1756.91 695.7 1756.91 680.57 1734.01 657.72 1734.01 630.9 1774.28 650.82 1774.28" fill="#fff"/>
      <polygon points="725.71 1749.79 707.41 1777.26 700.74 1767.17 680.83 1767.17 695.96 1790.06 718.8 1790.06 745.62 1749.79 725.71 1749.79" fill="#fff"/>
      <polygon points="689.06 1836.55 707.35 1809.08 714.02 1819.18 733.94 1819.18 718.81 1796.28 695.96 1796.28 669.14 1836.55 689.06 1836.55" fill="#fff"/>
      <polygon points="763.95 1812.06 745.65 1839.53 738.98 1829.44 719.07 1829.44 734.2 1852.33 757.04 1852.33 783.86 1812.06 763.95 1812.06" fill="#fff"/>
      <polygon points="727.3 1898.82 745.59 1871.35 752.26 1881.45 772.18 1881.45 757.05 1858.55 734.2 1858.55 707.38 1898.82 727.3 1898.82" fill="#fff"/>
      <polygon points="802.19 1874.33 783.89 1901.8 777.22 1891.71 757.31 1891.71 772.44 1914.6 795.28 1914.6 822.1 1874.33 802.19 1874.33" fill="#fff"/>
      <polygon points="765.54 1961.09 783.83 1933.62 790.5 1943.72 810.42 1943.72 795.29 1920.82 772.44 1920.82 745.62 1961.09 765.54 1961.09" fill="#fff"/>
      <polygon points="840.43 1936.6 822.13 1964.07 815.46 1953.98 795.55 1953.98 810.68 1976.87 833.52 1976.87 860.34 1936.6 840.43 1936.6" fill="#fff"/>
      <polygon points="803.78 2023.36 822.07 1995.89 828.74 2005.99 848.66 2005.99 833.53 1983.09 810.68 1983.09 783.86 2023.36 803.78 2023.36" fill="#fff"/>
      <polygon points="878.67 1998.87 860.37 2026.34 853.7 2016.25 833.79 2016.25 848.92 2039.14 871.76 2039.14 898.58 1998.87 878.67 1998.87" fill="#fff"/>
      <polygon points="842.02 2085.63 860.31 2058.16 866.98 2068.26 886.9 2068.26 871.77 2045.36 848.92 2045.36 822.1 2085.63 842.02 2085.63" fill="#fff"/>
      <polygon points="916.91 2061.14 898.61 2088.61 891.94 2078.52 872.03 2078.52 887.16 2101.41 910 2101.41 936.82 2061.14 916.91 2061.14" fill="#fff"/>
      <polygon points="880.26 2147.9 898.55 2120.43 905.22 2130.53 925.14 2130.53 910.01 2107.63 887.16 2107.63 860.34 2147.9 880.26 2147.9" fill="#fff"/>
      <polygon points="681.63 1523.96 663.33 1551.42 656.66 1541.33 636.75 1541.33 651.88 1564.23 674.72 1564.23 701.54 1523.96 681.63 1523.96" fill="#fff"/>
      <polygon points="644.98 1610.71 663.27 1583.25 669.94 1593.34 689.86 1593.34 674.73 1570.44 651.88 1570.44 625.06 1610.71 644.98 1610.71" fill="#fff"/>
      <polygon points="719.87 1586.23 701.57 1613.69 694.9 1603.6 674.99 1603.6 690.12 1626.5 712.96 1626.5 739.78 1586.23 719.87 1586.23" fill="#fff"/>
      <polygon points="683.22 1672.98 701.51 1645.52 708.18 1655.61 728.1 1655.61 712.97 1632.71 690.12 1632.71 663.3 1672.98 683.22 1672.98" fill="#fff"/>
      <polygon points="758.1 1648.5 739.81 1675.96 733.14 1665.87 713.23 1665.87 728.36 1688.77 751.2 1688.77 778.02 1648.5 758.1 1648.5" fill="#fff"/>
      <polygon points="721.46 1735.25 739.75 1707.78 746.42 1717.88 766.34 1717.88 751.21 1694.98 728.36 1694.98 701.54 1735.25 721.46 1735.25" fill="#fff"/>
      <polygon points="796.34 1710.77 778.05 1738.23 771.38 1728.14 751.47 1728.14 766.6 1751.04 789.44 1751.04 816.26 1710.77 796.34 1710.77" fill="#fff"/>
      <polygon points="759.7 1797.52 777.99 1770.05 784.66 1780.15 804.58 1780.15 789.45 1757.25 766.6 1757.25 739.78 1797.52 759.7 1797.52" fill="#fff"/>
      <polygon points="834.58 1773.04 816.29 1800.5 809.62 1790.41 789.71 1790.41 804.84 1813.31 827.68 1813.31 854.5 1773.04 834.58 1773.04" fill="#fff"/>
      <polygon points="797.94 1859.79 816.23 1832.32 822.9 1842.42 842.82 1842.42 827.69 1819.52 804.84 1819.52 778.02 1859.79 797.94 1859.79" fill="#fff"/>
      <polygon points="872.82 1835.31 854.53 1862.77 847.86 1852.68 827.95 1852.68 843.08 1875.58 865.92 1875.58 892.74 1835.31 872.82 1835.31" fill="#fff"/>
      <polygon points="836.18 1922.06 854.47 1894.59 861.14 1904.69 881.05 1904.69 865.93 1881.79 843.08 1881.79 816.26 1922.06 836.18 1922.06" fill="#fff"/>
      <polygon points="911.06 1897.58 892.77 1925.04 886.1 1914.95 866.19 1914.95 881.31 1937.85 904.16 1937.85 930.98 1897.58 911.06 1897.58" fill="#fff"/>
      <polygon points="874.42 1984.33 892.71 1956.86 899.38 1966.96 919.29 1966.96 904.16 1944.06 881.32 1944.06 854.5 1984.33 874.42 1984.33" fill="#fff"/>
      <polygon points="949.3 1959.85 931.01 1987.31 924.34 1977.22 904.42 1977.22 919.55 2000.12 942.4 2000.12 969.22 1959.85 949.3 1959.85" fill="#fff"/>
      <polygon points="912.66 2046.6 930.95 2019.13 937.62 2029.23 957.53 2029.23 942.4 2006.33 919.56 2006.33 892.74 2046.6 912.66 2046.6" fill="#fff"/>
      <polygon points="987.54 2022.12 969.25 2049.58 962.58 2039.49 942.66 2039.49 957.79 2062.39 980.64 2062.39 1007.46 2022.12 987.54 2022.12" fill="#fff"/>
      <polygon points="950.9 2108.87 969.19 2081.4 975.86 2091.5 995.77 2091.5 980.64 2068.6 957.8 2068.6 930.98 2108.87 950.9 2108.87" fill="#fff"/>
      <polygon points="265.11 2493.52 246.81 2520.98 240.14 2510.89 220.23 2510.89 235.36 2533.78 258.2 2533.78 285.02 2493.52 265.11 2493.52" fill="#fff"/>
      <polygon points="228.46 2580.27 246.75 2552.8 253.42 2562.9 273.34 2562.9 258.21 2540 235.36 2540 208.54 2580.27 228.46 2580.27" fill="#fff"/>
      <polygon points="303.35 2555.79 285.05 2583.25 278.38 2573.16 258.47 2573.16 273.6 2596.05 296.44 2596.05 323.26 2555.79 303.35 2555.79" fill="#fff"/>
      <polygon points="266.7 2642.54 284.99 2615.07 291.66 2625.17 311.58 2625.17 296.45 2602.27 273.6 2602.27 246.78 2642.54 266.7 2642.54" fill="#fff"/>
      <polygon points="341.59 2618.06 323.29 2645.52 316.62 2635.43 296.71 2635.43 311.84 2658.32 334.68 2658.32 361.5 2618.06 341.59 2618.06" fill="#fff"/>
      <polygon points="304.94 2704.81 323.23 2677.34 329.9 2687.44 349.82 2687.44 334.69 2664.54 311.84 2664.54 285.02 2704.81 304.94 2704.81" fill="#fff"/>
      <polygon points="379.83 2680.33 361.53 2707.79 354.86 2697.7 334.95 2697.7 350.08 2720.59 372.92 2720.59 399.74 2680.33 379.83 2680.33" fill="#fff"/>
      <polygon points="343.18 2767.08 361.47 2739.61 368.14 2749.71 388.06 2749.71 372.93 2726.81 350.08 2726.81 323.26 2767.08 343.18 2767.08" fill="#fff"/>
      <polygon points="418.07 2742.6 399.77 2770.06 393.1 2759.97 373.19 2759.97 388.32 2782.86 411.16 2782.86 437.98 2742.6 418.07 2742.6" fill="#fff"/>
      <polygon points="381.42 2829.35 399.71 2801.88 406.38 2811.98 426.3 2811.98 411.17 2789.08 388.32 2789.08 361.5 2829.35 381.42 2829.35" fill="#fff"/>
      <polygon points="456.31 2804.87 438.01 2832.33 431.34 2822.24 411.43 2822.24 426.56 2845.13 449.4 2845.13 476.22 2804.87 456.31 2804.87" fill="#fff"/>
      <polygon points="419.66 2891.62 437.95 2864.15 444.62 2874.25 464.54 2874.25 449.41 2851.35 426.56 2851.35 399.74 2891.62 419.66 2891.62" fill="#fff"/>
      <polygon points="494.55 2867.14 476.25 2894.6 469.58 2884.51 449.67 2884.51 464.8 2907.4 487.64 2907.4 514.46 2867.14 494.55 2867.14" fill="#fff"/>
      <polygon points="457.9 2953.89 476.19 2926.42 482.86 2936.52 502.78 2936.52 487.65 2913.62 464.8 2913.62 437.98 2953.89 457.9 2953.89" fill="#fff"/>
      <polygon points="532.78 2929.41 514.49 2956.87 507.82 2946.78 487.91 2946.78 503.04 2969.67 525.88 2969.67 552.7 2929.41 532.78 2929.41" fill="#fff"/>
      <polygon points="496.14 3016.16 514.43 2988.69 521.1 2998.79 541.02 2998.79 525.89 2975.89 503.04 2975.89 476.22 3016.16 496.14 3016.16" fill="#fff"/>
      <polygon points="571.02 2991.68 552.73 3019.14 546.06 3009.05 526.15 3009.05 541.28 3031.94 564.12 3031.94 590.94 2991.68 571.02 2991.68" fill="#fff"/>
      <polygon points="534.38 3078.43 552.67 3050.96 559.34 3061.06 579.26 3061.06 564.13 3038.16 541.28 3038.16 514.46 3078.43 534.38 3078.43" fill="#fff"/>
      <polygon points="335.74 2454.49 317.45 2481.95 310.78 2471.86 290.86 2471.86 305.99 2494.76 328.84 2494.76 355.66 2454.49 335.74 2454.49" fill="#fff"/>
      <polygon points="299.1 2541.24 317.39 2513.78 324.06 2523.87 343.97 2523.87 328.84 2500.97 306 2500.97 279.18 2541.24 299.1 2541.24" fill="#fff"/>
      <polygon points="373.98 2516.76 355.69 2544.22 349.02 2534.13 329.1 2534.13 344.23 2557.03 367.08 2557.03 393.9 2516.76 373.98 2516.76" fill="#fff"/>
      <polygon points="337.34 2603.51 355.63 2576.05 362.3 2586.14 382.21 2586.14 367.08 2563.24 344.24 2563.24 317.42 2603.51 337.34 2603.51" fill="#fff"/>
      <polygon points="412.22 2579.03 393.93 2606.49 387.26 2596.4 367.34 2596.4 382.47 2619.3 405.32 2619.3 432.14 2579.03 412.22 2579.03" fill="#fff"/>
      <polygon points="375.58 2665.78 393.87 2638.32 400.54 2648.41 420.45 2648.41 405.32 2625.51 382.48 2625.51 355.66 2665.78 375.58 2665.78" fill="#fff"/>
      <polygon points="450.46 2641.3 432.17 2668.76 425.5 2658.67 405.58 2658.67 420.71 2681.57 443.56 2681.57 470.38 2641.3 450.46 2641.3" fill="#fff"/>
      <polygon points="413.81 2728.05 432.11 2700.59 438.78 2710.68 458.69 2710.68 443.56 2687.78 420.72 2687.78 393.9 2728.05 413.81 2728.05" fill="#fff"/>
      <polygon points="488.7 2703.57 470.41 2731.03 463.74 2720.94 443.82 2720.94 458.95 2743.84 481.8 2743.84 508.62 2703.57 488.7 2703.57" fill="#fff"/>
      <polygon points="452.05 2790.32 470.35 2762.86 477.02 2772.95 496.93 2772.95 481.8 2750.05 458.96 2750.05 432.14 2790.32 452.05 2790.32" fill="#fff"/>
      <polygon points="526.94 2765.84 508.65 2793.3 501.98 2783.21 482.06 2783.21 497.19 2806.11 520.04 2806.11 546.86 2765.84 526.94 2765.84" fill="#fff"/>
      <polygon points="490.29 2852.59 508.59 2825.13 515.26 2835.22 535.17 2835.22 520.04 2812.32 497.2 2812.32 470.38 2852.59 490.29 2852.59" fill="#fff"/>
      <polygon points="565.18 2828.11 546.89 2855.57 540.22 2845.48 520.3 2845.48 535.43 2868.38 558.28 2868.38 585.1 2828.11 565.18 2828.11" fill="#fff"/>
      <polygon points="528.53 2914.86 546.83 2887.4 553.5 2897.49 573.41 2897.49 558.28 2874.59 535.44 2874.59 508.62 2914.86 528.53 2914.86" fill="#fff"/>
      <polygon points="603.42 2890.38 585.13 2917.84 578.46 2907.75 558.54 2907.75 573.67 2930.65 596.52 2930.65 623.34 2890.38 603.42 2890.38" fill="#fff"/>
      <polygon points="566.77 2977.13 585.07 2949.67 591.74 2959.76 611.65 2959.76 596.52 2936.86 573.68 2936.86 546.86 2977.13 566.77 2977.13" fill="#fff"/>
      <polygon points="641.66 2952.65 623.37 2980.11 616.7 2970.02 596.78 2970.02 611.91 2992.92 634.76 2992.92 661.58 2952.65 641.66 2952.65" fill="#fff"/>
      <polygon points="605.01 3039.4 623.31 3011.93 629.98 3022.03 649.89 3022.03 634.76 2999.13 611.92 2999.13 585.1 3039.4 605.01 3039.4" fill="#fff"/>
      <polygon points="403.46 2419.96 385.17 2447.42 378.5 2437.33 358.58 2437.33 373.71 2460.22 396.56 2460.22 423.38 2419.96 403.46 2419.96" fill="#fff"/>
      <polygon points="366.81 2506.71 385.1 2479.24 391.77 2489.34 411.69 2489.34 396.56 2466.44 373.72 2466.44 346.9 2506.71 366.81 2506.71" fill="#fff"/>
      <polygon points="441.7 2482.23 423.41 2509.69 416.74 2499.6 396.82 2499.6 411.95 2522.49 434.8 2522.49 461.61 2482.23 441.7 2482.23" fill="#fff"/>
      <polygon points="405.05 2568.98 423.34 2541.51 430.01 2551.61 449.93 2551.61 434.8 2528.71 411.95 2528.71 385.14 2568.98 405.05 2568.98" fill="#fff"/>
      <polygon points="479.94 2544.5 461.65 2571.96 454.98 2561.87 435.06 2561.87 450.19 2584.76 473.03 2584.76 499.85 2544.5 479.94 2544.5" fill="#fff"/>
      <polygon points="443.29 2631.25 461.58 2603.78 468.25 2613.88 488.17 2613.88 473.04 2590.98 450.19 2590.98 423.38 2631.25 443.29 2631.25" fill="#fff"/>
      <polygon points="518.18 2606.77 499.89 2634.23 493.22 2624.14 473.3 2624.14 488.43 2647.03 511.27 2647.03 538.09 2606.77 518.18 2606.77" fill="#fff"/>
      <polygon points="481.53 2693.52 499.82 2666.05 506.49 2676.15 526.41 2676.15 511.28 2653.25 488.43 2653.25 461.61 2693.52 481.53 2693.52" fill="#fff"/>
      <polygon points="556.42 2669.04 538.13 2696.5 531.46 2686.41 511.54 2686.41 526.67 2709.3 549.51 2709.3 576.33 2669.04 556.42 2669.04" fill="#fff"/>
      <polygon points="519.77 2755.79 538.06 2728.32 544.73 2738.42 564.65 2738.42 549.52 2715.52 526.67 2715.52 499.85 2755.79 519.77 2755.79" fill="#fff"/>
      <polygon points="594.66 2731.31 576.37 2758.77 569.7 2748.68 549.78 2748.68 564.91 2771.57 587.75 2771.57 614.57 2731.31 594.66 2731.31" fill="#fff"/>
      <polygon points="558.01 2818.06 576.3 2790.59 582.97 2800.69 602.89 2800.69 587.76 2777.79 564.91 2777.79 538.09 2818.06 558.01 2818.06" fill="#fff"/>
      <polygon points="632.9 2793.58 614.61 2821.04 607.93 2810.95 588.02 2810.95 603.15 2833.84 625.99 2833.84 652.81 2793.58 632.9 2793.58" fill="#fff"/>
      <polygon points="596.25 2880.33 614.54 2852.86 621.21 2862.96 641.13 2862.96 626 2840.06 603.15 2840.06 576.33 2880.33 596.25 2880.33" fill="#fff"/>
      <polygon points="671.14 2855.85 652.84 2883.31 646.17 2873.22 626.26 2873.22 641.39 2896.11 664.23 2896.11 691.05 2855.85 671.14 2855.85" fill="#fff"/>
      <polygon points="634.49 2942.6 652.78 2915.13 659.45 2925.23 679.37 2925.23 664.24 2902.33 641.39 2902.33 614.57 2942.6 634.49 2942.6" fill="#fff"/>
      <polygon points="709.38 2918.11 691.08 2945.58 684.41 2935.49 664.5 2935.49 679.63 2958.38 702.47 2958.38 729.29 2918.11 709.38 2918.11" fill="#fff"/>
      <polygon points="672.73 3004.87 691.02 2977.4 697.69 2987.5 717.61 2987.5 702.48 2964.6 679.63 2964.6 652.81 3004.87 672.73 3004.87" fill="#fff"/>
      <polygon points="474.1 2380.93 455.8 2408.39 449.13 2398.3 429.22 2398.3 444.35 2421.2 467.19 2421.2 494.01 2380.93 474.1 2380.93" fill="#fff"/>
      <polygon points="437.45 2467.68 455.74 2440.22 462.41 2450.31 482.33 2450.31 467.2 2427.41 444.35 2427.41 417.53 2467.68 437.45 2467.68" fill="#fff"/>
      <polygon points="512.34 2443.2 494.04 2470.66 487.37 2460.57 467.46 2460.57 482.59 2483.47 505.43 2483.47 532.25 2443.2 512.34 2443.2" fill="#fff"/>
      <polygon points="475.69 2529.95 493.98 2502.49 500.65 2512.58 520.57 2512.58 505.44 2489.68 482.59 2489.68 455.77 2529.95 475.69 2529.95" fill="#fff"/>
      <polygon points="550.58 2505.47 532.28 2532.93 525.61 2522.84 505.7 2522.84 520.83 2545.74 543.67 2545.74 570.49 2505.47 550.58 2505.47" fill="#fff"/>
      <polygon points="513.93 2592.22 532.22 2564.76 538.89 2574.85 558.81 2574.85 543.68 2551.95 520.83 2551.95 494.01 2592.22 513.93 2592.22" fill="#fff"/>
      <polygon points="588.82 2567.74 570.52 2595.2 563.85 2585.11 543.94 2585.11 559.07 2608.01 581.91 2608.01 608.73 2567.74 588.82 2567.74" fill="#fff"/>
      <polygon points="552.17 2654.49 570.46 2627.03 577.13 2637.12 597.05 2637.12 581.92 2614.22 559.07 2614.22 532.25 2654.49 552.17 2654.49" fill="#fff"/>
      <polygon points="627.06 2630.01 608.76 2657.47 602.09 2647.38 582.18 2647.38 597.31 2670.28 620.15 2670.28 646.97 2630.01 627.06 2630.01" fill="#fff"/>
      <polygon points="590.41 2716.76 608.7 2689.3 615.37 2699.39 635.29 2699.39 620.16 2676.49 597.31 2676.49 570.49 2716.76 590.41 2716.76" fill="#fff"/>
      <polygon points="665.29 2692.28 647 2719.74 640.33 2709.65 620.42 2709.65 635.55 2732.55 658.39 2732.55 685.21 2692.28 665.29 2692.28" fill="#fff"/>
      <polygon points="628.65 2779.03 646.94 2751.57 653.61 2761.66 673.53 2761.66 658.4 2738.76 635.55 2738.76 608.73 2779.03 628.65 2779.03" fill="#fff"/>
      <polygon points="703.53 2754.55 685.24 2782.01 678.57 2771.92 658.66 2771.92 673.79 2794.82 696.63 2794.82 723.45 2754.55 703.53 2754.55" fill="#fff"/>
      <polygon points="666.89 2841.3 685.18 2813.83 691.85 2823.93 711.77 2823.93 696.64 2801.03 673.79 2801.03 646.97 2841.3 666.89 2841.3" fill="#fff"/>
      <polygon points="741.77 2816.82 723.48 2844.28 716.81 2834.19 696.9 2834.19 712.03 2857.09 734.87 2857.09 761.69 2816.82 741.77 2816.82" fill="#fff"/>
      <polygon points="705.13 2903.57 723.42 2876.1 730.09 2886.2 750.01 2886.2 734.88 2863.3 712.03 2863.3 685.21 2903.57 705.13 2903.57" fill="#fff"/>
      <polygon points="780.01 2879.09 761.72 2906.55 755.05 2896.46 735.14 2896.46 750.27 2919.36 773.11 2919.36 799.93 2879.09 780.01 2879.09" fill="#fff"/>
      <polygon points="743.37 2965.84 761.66 2938.37 768.33 2948.47 788.25 2948.47 773.12 2925.57 750.27 2925.57 723.45 2965.84 743.37 2965.84" fill="#fff"/>
      <polygon points="541.81 2346.4 523.52 2373.86 516.85 2363.77 496.93 2363.77 512.06 2386.66 534.91 2386.66 561.73 2346.4 541.81 2346.4" fill="#fff"/>
      <polygon points="505.16 2433.15 523.46 2405.68 530.13 2415.78 550.04 2415.78 534.91 2392.88 512.07 2392.88 485.25 2433.15 505.16 2433.15" fill="#fff"/>
      <polygon points="580.05 2408.67 561.76 2436.13 555.09 2426.04 535.17 2426.04 550.3 2448.93 573.15 2448.93 599.97 2408.67 580.05 2408.67" fill="#fff"/>
      <polygon points="543.4 2495.42 561.7 2467.95 568.37 2478.05 588.28 2478.05 573.15 2455.15 550.31 2455.15 523.49 2495.42 543.4 2495.42" fill="#fff"/>
      <polygon points="618.29 2470.94 600 2498.4 593.33 2488.31 573.41 2488.31 588.54 2511.2 611.39 2511.2 638.21 2470.94 618.29 2470.94" fill="#fff"/>
      <polygon points="581.64 2557.69 599.94 2530.22 606.61 2540.32 626.52 2540.32 611.39 2517.42 588.55 2517.42 561.73 2557.69 581.64 2557.69" fill="#fff"/>
      <polygon points="656.53 2533.21 638.24 2560.67 631.57 2550.58 611.65 2550.58 626.78 2573.47 649.63 2573.47 676.45 2533.21 656.53 2533.21" fill="#fff"/>
      <polygon points="619.88 2619.96 638.18 2592.49 644.85 2602.59 664.76 2602.59 649.63 2579.69 626.79 2579.69 599.97 2619.96 619.88 2619.96" fill="#fff"/>
      <polygon points="694.77 2595.48 676.48 2622.94 669.81 2612.85 649.89 2612.85 665.02 2635.74 687.87 2635.74 714.69 2595.48 694.77 2595.48" fill="#fff"/>
      <polygon points="658.12 2682.23 676.42 2654.76 683.09 2664.86 703 2664.86 687.87 2641.96 665.03 2641.96 638.21 2682.23 658.12 2682.23" fill="#fff"/>
      <polygon points="733.01 2657.74 714.72 2685.21 708.05 2675.12 688.13 2675.12 703.26 2698.01 726.11 2698.01 752.93 2657.74 733.01 2657.74" fill="#fff"/>
      <polygon points="696.36 2744.5 714.66 2717.03 721.33 2727.13 741.24 2727.13 726.11 2704.23 703.27 2704.23 676.45 2744.5 696.36 2744.5" fill="#fff"/>
      <polygon points="771.25 2720.01 752.96 2747.48 746.29 2737.39 726.37 2737.39 741.5 2760.28 764.35 2760.28 791.17 2720.01 771.25 2720.01" fill="#fff"/>
      <polygon points="734.6 2806.77 752.9 2779.3 759.57 2789.4 779.48 2789.4 764.35 2766.5 741.51 2766.5 714.69 2806.77 734.6 2806.77" fill="#fff"/>
      <polygon points="809.49 2782.28 791.2 2809.75 784.53 2799.66 764.61 2799.66 779.74 2822.55 802.59 2822.55 829.41 2782.28 809.49 2782.28" fill="#fff"/>
      <polygon points="772.84 2869.04 791.13 2841.57 797.81 2851.67 817.72 2851.67 802.59 2828.77 779.75 2828.77 752.93 2869.04 772.84 2869.04" fill="#fff"/>
      <polygon points="847.73 2844.55 829.44 2872.02 822.77 2861.93 802.85 2861.93 817.98 2884.82 840.83 2884.82 867.65 2844.55 847.73 2844.55" fill="#fff"/>
      <polygon points="811.08 2931.31 829.37 2903.84 836.04 2913.94 855.96 2913.94 840.83 2891.04 817.99 2891.04 791.17 2931.31 811.08 2931.31" fill="#fff"/>
      <polygon points="612.45 2307.37 594.16 2334.83 587.49 2324.74 567.57 2324.74 582.7 2347.64 605.55 2347.64 632.36 2307.37 612.45 2307.37" fill="#fff"/>
      <polygon points="575.8 2394.12 594.09 2366.66 600.76 2376.75 620.68 2376.75 605.55 2353.85 582.7 2353.85 555.89 2394.12 575.8 2394.12" fill="#fff"/>
      <polygon points="650.69 2369.64 632.4 2397.1 625.73 2387.01 605.81 2387.01 620.94 2409.91 643.78 2409.91 670.6 2369.64 650.69 2369.64" fill="#fff"/>
      <polygon points="614.04 2456.39 632.33 2428.93 639 2439.02 658.92 2439.02 643.79 2416.12 620.94 2416.12 594.12 2456.39 614.04 2456.39" fill="#fff"/>
      <polygon points="688.93 2431.91 670.64 2459.37 663.97 2449.28 644.05 2449.28 659.18 2472.18 682.02 2472.18 708.84 2431.91 688.93 2431.91" fill="#fff"/>
      <polygon points="652.28 2518.66 670.57 2491.2 677.24 2501.29 697.16 2501.29 682.03 2478.39 659.18 2478.39 632.36 2518.66 652.28 2518.66" fill="#fff"/>
      <polygon points="727.17 2494.18 708.88 2521.64 702.21 2511.55 682.29 2511.55 697.42 2534.45 720.26 2534.45 747.08 2494.18 727.17 2494.18" fill="#fff"/>
      <polygon points="690.52 2580.93 708.81 2553.47 715.48 2563.56 735.4 2563.56 720.27 2540.66 697.42 2540.66 670.6 2580.93 690.52 2580.93" fill="#fff"/>
      <polygon points="765.41 2556.45 747.12 2583.91 740.45 2573.82 720.53 2573.82 735.66 2596.72 758.5 2596.72 785.32 2556.45 765.41 2556.45" fill="#fff"/>
      <polygon points="728.76 2643.2 747.05 2615.73 753.72 2625.83 773.64 2625.83 758.51 2602.93 735.66 2602.93 708.84 2643.2 728.76 2643.2" fill="#fff"/>
      <polygon points="803.65 2618.72 785.36 2646.18 778.68 2636.09 758.77 2636.09 773.9 2658.99 796.74 2658.99 823.56 2618.72 803.65 2618.72" fill="#fff"/>
      <polygon points="767 2705.47 785.29 2678 791.96 2688.1 811.88 2688.1 796.75 2665.2 773.9 2665.2 747.08 2705.47 767 2705.47" fill="#fff"/>
      <polygon points="841.89 2680.99 823.59 2708.45 816.92 2698.36 797.01 2698.36 812.14 2721.26 834.98 2721.26 861.8 2680.99 841.89 2680.99" fill="#fff"/>
      <polygon points="805.24 2767.74 823.53 2740.27 830.2 2750.37 850.12 2750.37 834.99 2727.47 812.14 2727.47 785.32 2767.74 805.24 2767.74" fill="#fff"/>
      <polygon points="880.13 2743.26 861.83 2770.72 855.16 2760.63 835.25 2760.63 850.38 2783.53 873.22 2783.53 900.04 2743.26 880.13 2743.26" fill="#fff"/>
      <polygon points="843.48 2830.01 861.77 2802.54 868.44 2812.64 888.36 2812.64 873.23 2789.74 850.38 2789.74 823.56 2830.01 843.48 2830.01" fill="#fff"/>
      <polygon points="918.37 2805.53 900.07 2832.99 893.4 2822.9 873.49 2822.9 888.62 2845.8 911.46 2845.8 938.28 2805.53 918.37 2805.53" fill="#fff"/>
      <polygon points="881.72 2892.28 900.01 2864.81 906.68 2874.91 926.6 2874.91 911.47 2852.01 888.62 2852.01 861.8 2892.28 881.72 2892.28" fill="#fff"/>
      <polygon points="680.16 2272.84 661.87 2300.3 655.2 2290.21 635.29 2290.21 650.42 2313.1 673.26 2313.1 700.08 2272.84 680.16 2272.84" fill="#fff"/>
      <polygon points="643.52 2359.59 661.81 2332.12 668.48 2342.22 688.4 2342.22 673.27 2319.32 650.42 2319.32 623.6 2359.59 643.52 2359.59" fill="#fff"/>
      <polygon points="718.4 2335.11 700.11 2362.57 693.44 2352.48 673.53 2352.48 688.66 2375.37 711.5 2375.37 738.32 2335.11 718.4 2335.11" fill="#fff"/>
      <polygon points="681.76 2421.86 700.05 2394.39 706.72 2404.49 726.64 2404.49 711.51 2381.59 688.66 2381.59 661.84 2421.86 681.76 2421.86" fill="#fff"/>
      <polygon points="756.64 2397.38 738.35 2424.84 731.68 2414.75 711.77 2414.75 726.9 2437.64 749.74 2437.64 776.56 2397.38 756.64 2397.38" fill="#fff"/>
      <polygon points="720 2484.13 738.29 2456.66 744.96 2466.76 764.87 2466.76 749.75 2443.86 726.9 2443.86 700.08 2484.13 720 2484.13" fill="#fff"/>
      <polygon points="794.88 2459.64 776.59 2487.11 769.92 2477.02 750.01 2477.02 765.13 2499.91 787.98 2499.91 814.8 2459.64 794.88 2459.64" fill="#fff"/>
      <polygon points="758.24 2546.4 776.53 2518.93 783.2 2529.03 803.11 2529.03 787.98 2506.13 765.14 2506.13 738.32 2546.4 758.24 2546.4" fill="#fff"/>
      <polygon points="833.12 2521.91 814.83 2549.38 808.16 2539.29 788.25 2539.29 803.37 2562.18 826.22 2562.18 853.04 2521.91 833.12 2521.91" fill="#fff"/>
      <polygon points="796.48 2608.67 814.77 2581.2 821.44 2591.3 841.35 2591.3 826.22 2568.4 803.38 2568.4 776.56 2608.67 796.48 2608.67" fill="#fff"/>
      <polygon points="871.36 2584.18 853.07 2611.65 846.4 2601.56 826.48 2601.56 841.61 2624.45 864.46 2624.45 891.28 2584.18 871.36 2584.18" fill="#fff"/>
      <polygon points="834.72 2670.94 853.01 2643.47 859.68 2653.57 879.59 2653.57 864.46 2630.67 841.62 2630.67 814.8 2670.94 834.72 2670.94" fill="#fff"/>
      <polygon points="909.6 2646.45 891.31 2673.92 884.64 2663.83 864.72 2663.83 879.85 2686.72 902.7 2686.72 929.52 2646.45 909.6 2646.45" fill="#fff"/>
      <polygon points="872.96 2733.21 891.25 2705.74 897.92 2715.84 917.83 2715.84 902.7 2692.94 879.86 2692.94 853.04 2733.21 872.96 2733.21" fill="#fff"/>
      <polygon points="947.84 2708.72 929.55 2736.19 922.88 2726.1 902.96 2726.1 918.09 2748.99 940.94 2748.99 967.76 2708.72 947.84 2708.72" fill="#fff"/>
      <polygon points="911.2 2795.48 929.49 2768.01 936.16 2778.11 956.07 2778.11 940.94 2755.21 918.1 2755.21 891.28 2795.48 911.2 2795.48" fill="#fff"/>
      <polygon points="986.08 2770.99 967.79 2798.46 961.12 2788.37 941.2 2788.37 956.33 2811.26 979.18 2811.26 1006 2770.99 986.08 2770.99" fill="#fff"/>
      <polygon points="949.43 2857.75 967.73 2830.28 974.4 2840.38 994.31 2840.38 979.18 2817.48 956.34 2817.48 929.52 2857.75 949.43 2857.75" fill="#fff"/>
      <polygon points="750.8 2233.81 732.51 2261.27 725.84 2251.18 705.92 2251.18 721.05 2274.08 743.9 2274.08 770.72 2233.81 750.8 2233.81" fill="#fff"/>
      <polygon points="714.15 2320.56 732.45 2293.1 739.12 2303.19 759.03 2303.19 743.9 2280.29 721.06 2280.29 694.24 2320.56 714.15 2320.56" fill="#fff"/>
      <polygon points="789.04 2296.08 770.75 2323.54 764.08 2313.45 744.16 2313.45 759.29 2336.35 782.14 2336.35 808.96 2296.08 789.04 2296.08" fill="#fff"/>
      <polygon points="752.39 2382.83 770.69 2355.37 777.36 2365.46 797.27 2365.46 782.14 2342.56 759.3 2342.56 732.48 2382.83 752.39 2382.83" fill="#fff"/>
      <polygon points="827.28 2358.35 808.99 2385.81 802.32 2375.72 782.4 2375.72 797.53 2398.62 820.38 2398.62 847.2 2358.35 827.28 2358.35" fill="#fff"/>
      <polygon points="790.63 2445.1 808.93 2417.63 815.6 2427.73 835.51 2427.73 820.38 2404.83 797.54 2404.83 770.72 2445.1 790.63 2445.1" fill="#fff"/>
      <polygon points="865.52 2420.62 847.23 2448.08 840.56 2437.99 820.64 2437.99 835.77 2460.89 858.62 2460.89 885.44 2420.62 865.52 2420.62" fill="#fff"/>
      <polygon points="828.87 2507.37 847.17 2479.9 853.84 2490 873.75 2490 858.62 2467.1 835.78 2467.1 808.96 2507.37 828.87 2507.37" fill="#fff"/>
      <polygon points="903.76 2482.89 885.47 2510.35 878.8 2500.26 858.88 2500.26 874.01 2523.16 896.86 2523.16 923.68 2482.89 903.76 2482.89" fill="#fff"/>
      <polygon points="867.11 2569.64 885.41 2542.17 892.08 2552.27 911.99 2552.27 896.86 2529.37 874.02 2529.37 847.2 2569.64 867.11 2569.64" fill="#fff"/>
      <polygon points="942 2545.16 923.71 2572.62 917.04 2562.53 897.12 2562.53 912.25 2585.43 935.1 2585.43 961.92 2545.16 942 2545.16" fill="#fff"/>
      <polygon points="905.35 2631.91 923.65 2604.44 930.32 2614.54 950.23 2614.54 935.1 2591.64 912.26 2591.64 885.44 2631.91 905.35 2631.91" fill="#fff"/>
      <polygon points="980.24 2607.43 961.95 2634.89 955.28 2624.8 935.36 2624.8 950.49 2647.7 973.34 2647.7 1000.16 2607.43 980.24 2607.43" fill="#fff"/>
      <polygon points="943.59 2694.18 961.88 2666.71 968.56 2676.81 988.47 2676.81 973.34 2653.91 950.5 2653.91 923.68 2694.18 943.59 2694.18" fill="#fff"/>
      <polygon points="1018.48 2669.7 1000.19 2697.16 993.52 2687.07 973.6 2687.07 988.73 2709.97 1011.58 2709.97 1038.4 2669.7 1018.48 2669.7" fill="#fff"/>
      <polygon points="981.83 2756.45 1000.12 2728.98 1006.79 2739.08 1026.71 2739.08 1011.58 2716.18 988.74 2716.18 961.92 2756.45 981.83 2756.45" fill="#fff"/>
      <polygon points="1056.72 2731.97 1038.43 2759.43 1031.76 2749.34 1011.84 2749.34 1026.97 2772.24 1049.82 2772.24 1076.64 2731.97 1056.72 2731.97" fill="#fff"/>
      <polygon points="1020.07 2818.72 1038.36 2791.25 1045.03 2801.35 1064.95 2801.35 1049.82 2778.45 1026.98 2778.45 1000.16 2818.72 1020.07 2818.72" fill="#fff"/>
      <polygon points="818.52 2199.28 800.22 2226.74 793.55 2216.65 773.64 2216.65 788.77 2239.54 811.61 2239.54 838.43 2199.28 818.52 2199.28" fill="#fff"/>
      <polygon points="781.87 2286.03 800.16 2258.56 806.83 2268.66 826.75 2268.66 811.62 2245.76 788.77 2245.76 761.95 2286.03 781.87 2286.03" fill="#fff"/>
      <polygon points="856.76 2261.54 838.46 2289.01 831.79 2278.92 811.88 2278.92 827.01 2301.81 849.85 2301.81 876.67 2261.54 856.76 2261.54" fill="#fff"/>
      <polygon points="820.11 2348.3 838.4 2320.83 845.07 2330.93 864.99 2330.93 849.86 2308.03 827.01 2308.03 800.19 2348.3 820.11 2348.3" fill="#fff"/>
      <polygon points="895 2323.81 876.7 2351.28 870.03 2341.19 850.12 2341.19 865.25 2364.08 888.09 2364.08 914.91 2323.81 895 2323.81" fill="#fff"/>
      <polygon points="858.35 2410.57 876.64 2383.1 883.31 2393.2 903.23 2393.2 888.1 2370.3 865.25 2370.3 838.43 2410.57 858.35 2410.57" fill="#fff"/>
      <polygon points="933.24 2386.08 914.94 2413.55 908.27 2403.46 888.36 2403.46 903.49 2426.35 926.33 2426.35 953.15 2386.08 933.24 2386.08" fill="#fff"/>
      <polygon points="896.59 2472.84 914.88 2445.37 921.55 2455.47 941.47 2455.47 926.34 2432.57 903.49 2432.57 876.67 2472.84 896.59 2472.84" fill="#fff"/>
      <polygon points="971.48 2448.35 953.18 2475.82 946.51 2465.73 926.6 2465.73 941.73 2488.62 964.57 2488.62 991.39 2448.35 971.48 2448.35" fill="#fff"/>
      <polygon points="934.83 2535.11 953.12 2507.64 959.79 2517.74 979.71 2517.74 964.58 2494.84 941.73 2494.84 914.91 2535.11 934.83 2535.11" fill="#fff"/>
      <polygon points="1009.72 2510.62 991.42 2538.09 984.75 2528 964.84 2528 979.97 2550.89 1002.81 2550.89 1029.63 2510.62 1009.72 2510.62" fill="#fff"/>
      <polygon points="973.07 2597.38 991.36 2569.91 998.03 2580.01 1017.95 2580.01 1002.82 2557.11 979.97 2557.11 953.15 2597.38 973.07 2597.38" fill="#fff"/>
      <polygon points="1047.96 2572.89 1029.66 2600.36 1022.99 2590.27 1003.08 2590.27 1018.21 2613.16 1041.05 2613.16 1067.87 2572.89 1047.96 2572.89" fill="#fff"/>
      <polygon points="1011.31 2659.65 1029.6 2632.18 1036.27 2642.28 1056.19 2642.28 1041.06 2619.38 1018.21 2619.38 991.39 2659.65 1011.31 2659.65" fill="#fff"/>
      <polygon points="1086.2 2635.16 1067.9 2662.63 1061.23 2652.54 1041.32 2652.54 1056.45 2675.43 1079.29 2675.43 1106.11 2635.16 1086.2 2635.16" fill="#fff"/>
      <polygon points="1049.55 2721.92 1067.84 2694.45 1074.51 2704.55 1094.43 2704.55 1079.3 2681.65 1056.45 2681.65 1029.63 2721.92 1049.55 2721.92" fill="#fff"/>
      <polygon points="1124.44 2697.43 1106.14 2724.9 1099.47 2714.81 1079.56 2714.81 1094.69 2737.7 1117.53 2737.7 1144.35 2697.43 1124.44 2697.43" fill="#fff"/>
      <polygon points="1087.79 2784.19 1106.08 2756.72 1112.75 2766.82 1132.67 2766.82 1117.54 2743.92 1094.69 2743.92 1067.87 2784.19 1087.79 2784.19" fill="#fff"/>
      <polygon points="889.15 2160.25 870.86 2187.71 864.19 2177.62 844.28 2177.62 859.41 2200.52 882.25 2200.52 909.07 2160.25 889.15 2160.25" fill="#fff"/>
      <polygon points="852.51 2247 870.8 2219.53 877.47 2229.63 897.39 2229.63 882.26 2206.73 859.41 2206.73 832.59 2247 852.51 2247" fill="#fff"/>
      <polygon points="927.39 2222.52 909.1 2249.98 902.43 2239.89 882.52 2239.89 897.65 2262.79 920.49 2262.79 947.31 2222.52 927.39 2222.52" fill="#fff"/>
      <polygon points="890.75 2309.27 909.04 2281.8 915.71 2291.9 935.62 2291.9 920.5 2269 897.65 2269 870.83 2309.27 890.75 2309.27" fill="#fff"/>
      <polygon points="965.63 2284.79 947.34 2312.25 940.67 2302.16 920.76 2302.16 935.88 2325.06 958.73 2325.06 985.55 2284.79 965.63 2284.79" fill="#fff"/>
      <polygon points="928.99 2371.54 947.28 2344.07 953.95 2354.17 973.86 2354.17 958.73 2331.27 935.89 2331.27 909.07 2371.54 928.99 2371.54" fill="#fff"/>
      <polygon points="1003.87 2347.06 985.58 2374.52 978.91 2364.43 959 2364.43 974.12 2387.33 996.97 2387.33 1023.79 2347.06 1003.87 2347.06" fill="#fff"/>
      <polygon points="967.23 2433.81 985.52 2406.34 992.19 2416.44 1012.1 2416.44 996.97 2393.54 974.13 2393.54 947.31 2433.81 967.23 2433.81" fill="#fff"/>
      <polygon points="1042.11 2409.33 1023.82 2436.79 1017.15 2426.7 997.23 2426.7 1012.36 2449.6 1035.21 2449.6 1062.03 2409.33 1042.11 2409.33" fill="#fff"/>
      <polygon points="1005.47 2496.08 1023.76 2468.61 1030.43 2478.71 1050.34 2478.71 1035.21 2455.81 1012.37 2455.81 985.55 2496.08 1005.47 2496.08" fill="#fff"/>
      <polygon points="1080.35 2471.6 1062.06 2499.06 1055.39 2488.97 1035.47 2488.97 1050.6 2511.87 1073.45 2511.87 1100.27 2471.6 1080.35 2471.6" fill="#fff"/>
      <polygon points="1043.71 2558.35 1062 2530.88 1068.67 2540.98 1088.58 2540.98 1073.45 2518.08 1050.61 2518.08 1023.79 2558.35 1043.71 2558.35" fill="#fff"/>
      <polygon points="1118.59 2533.87 1100.3 2561.33 1093.63 2551.24 1073.71 2551.24 1088.84 2574.14 1111.69 2574.14 1138.51 2533.87 1118.59 2533.87" fill="#fff"/>
      <polygon points="1081.95 2620.62 1100.24 2593.15 1106.91 2603.25 1126.82 2603.25 1111.69 2580.35 1088.85 2580.35 1062.03 2620.62 1081.95 2620.62" fill="#fff"/>
      <polygon points="1156.83 2596.14 1138.54 2623.6 1131.87 2613.51 1111.95 2613.51 1127.08 2636.41 1149.93 2636.41 1176.75 2596.14 1156.83 2596.14" fill="#fff"/>
      <polygon points="1120.18 2682.89 1138.48 2655.42 1145.15 2665.52 1165.06 2665.52 1149.93 2642.62 1127.09 2642.62 1100.27 2682.89 1120.18 2682.89" fill="#fff"/>
      <polygon points="1195.07 2658.41 1176.78 2685.87 1170.11 2675.78 1150.19 2675.78 1165.32 2698.68 1188.17 2698.68 1214.99 2658.41 1195.07 2658.41" fill="#fff"/>
      <polygon points="1158.42 2745.16 1176.72 2717.69 1183.39 2727.79 1203.3 2727.79 1188.17 2704.89 1165.33 2704.89 1138.51 2745.16 1158.42 2745.16" fill="#fff"/>
      <polygon points="956.87 2125.71 938.58 2153.18 931.91 2143.09 911.99 2143.09 927.12 2165.98 949.97 2165.98 976.79 2125.71 956.87 2125.71" fill="#fff"/>
      <polygon points="920.22 2212.47 938.51 2185 945.19 2195.1 965.1 2195.1 949.97 2172.2 927.13 2172.2 900.31 2212.47 920.22 2212.47" fill="#fff"/>
      <polygon points="995.11 2187.98 976.82 2215.45 970.15 2205.36 950.23 2205.36 965.36 2228.25 988.21 2228.25 1015.03 2187.98 995.11 2187.98" fill="#fff"/>
      <polygon points="958.46 2274.74 976.75 2247.27 983.42 2257.37 1003.34 2257.37 988.21 2234.47 965.37 2234.47 938.55 2274.74 958.46 2274.74" fill="#fff"/>
      <polygon points="1033.35 2250.25 1015.06 2277.72 1008.39 2267.63 988.47 2267.63 1003.6 2290.52 1026.45 2290.52 1053.27 2250.25 1033.35 2250.25" fill="#fff"/>
      <polygon points="996.7 2337.01 1014.99 2309.54 1021.66 2319.64 1041.58 2319.64 1026.45 2296.74 1003.61 2296.74 976.79 2337.01 996.7 2337.01" fill="#fff"/>
      <polygon points="1071.59 2312.52 1053.3 2339.99 1046.63 2329.9 1026.71 2329.9 1041.84 2352.79 1064.69 2352.79 1091.51 2312.52 1071.59 2312.52" fill="#fff"/>
      <polygon points="1034.94 2399.28 1053.23 2371.81 1059.9 2381.91 1079.82 2381.91 1064.69 2359.01 1041.85 2359.01 1015.03 2399.28 1034.94 2399.28" fill="#fff"/>
      <polygon points="1109.83 2374.79 1091.54 2402.26 1084.87 2392.17 1064.95 2392.17 1080.08 2415.06 1102.93 2415.06 1129.74 2374.79 1109.83 2374.79" fill="#fff"/>
      <polygon points="1073.18 2461.55 1091.47 2434.08 1098.14 2444.18 1118.06 2444.18 1102.93 2421.28 1080.09 2421.28 1053.27 2461.55 1073.18 2461.55" fill="#fff"/>
      <polygon points="1148.07 2437.06 1129.78 2464.53 1123.11 2454.44 1103.19 2454.44 1118.32 2477.33 1141.17 2477.33 1167.98 2437.06 1148.07 2437.06" fill="#fff"/>
      <polygon points="1111.42 2523.82 1129.71 2496.35 1136.38 2506.45 1156.3 2506.45 1141.17 2483.55 1118.32 2483.55 1091.51 2523.82 1111.42 2523.82" fill="#fff"/>
      <polygon points="1186.31 2499.33 1168.02 2526.8 1161.35 2516.71 1141.43 2516.71 1156.56 2539.6 1179.4 2539.6 1206.22 2499.33 1186.31 2499.33" fill="#fff"/>
      <polygon points="1149.66 2586.09 1167.95 2558.62 1174.62 2568.72 1194.54 2568.72 1179.41 2545.82 1156.56 2545.82 1129.74 2586.09 1149.66 2586.09" fill="#fff"/>
      <polygon points="1224.55 2561.6 1206.26 2589.07 1199.59 2578.97 1179.67 2578.97 1194.8 2601.87 1217.64 2601.87 1244.46 2561.6 1224.55 2561.6" fill="#fff"/>
      <polygon points="1187.9 2648.36 1206.19 2620.89 1212.86 2630.99 1232.78 2630.99 1217.65 2608.09 1194.8 2608.09 1167.98 2648.36 1187.9 2648.36" fill="#fff"/>
      <polygon points="1262.79 2623.87 1244.5 2651.34 1237.83 2641.24 1217.91 2641.24 1233.04 2664.14 1255.88 2664.14 1282.7 2623.87 1262.79 2623.87" fill="#fff"/>
      <polygon points="1226.14 2710.63 1244.43 2683.16 1251.1 2693.26 1271.02 2693.26 1255.89 2670.36 1233.04 2670.36 1206.22 2710.63 1226.14 2710.63" fill="#fff"/>
      <polygon points="1027.51 2086.69 1009.21 2114.15 1002.54 2104.06 982.63 2104.06 997.76 2126.96 1020.6 2126.96 1047.42 2086.69 1027.51 2086.69" fill="#fff"/>
      <polygon points="990.86 2173.44 1009.15 2145.97 1015.82 2156.07 1035.74 2156.07 1020.61 2133.17 997.76 2133.17 970.94 2173.44 990.86 2173.44" fill="#fff"/>
      <polygon points="1065.75 2148.96 1047.45 2176.42 1040.78 2166.33 1020.87 2166.33 1036 2189.23 1058.84 2189.23 1085.66 2148.96 1065.75 2148.96" fill="#fff"/>
      <polygon points="1029.1 2235.71 1047.39 2208.24 1054.06 2218.34 1073.98 2218.34 1058.85 2195.44 1036 2195.44 1009.18 2235.71 1029.1 2235.71" fill="#fff"/>
      <polygon points="1103.99 2211.23 1085.69 2238.69 1079.02 2228.6 1059.11 2228.6 1074.24 2251.5 1097.08 2251.5 1123.9 2211.23 1103.99 2211.23" fill="#fff"/>
      <polygon points="1067.34 2297.98 1085.63 2270.51 1092.3 2280.61 1112.22 2280.61 1097.09 2257.71 1074.24 2257.71 1047.42 2297.98 1067.34 2297.98" fill="#fff"/>
      <polygon points="1142.23 2273.5 1123.93 2300.96 1117.26 2290.87 1097.35 2290.87 1112.48 2313.77 1135.32 2313.77 1162.14 2273.5 1142.23 2273.5" fill="#fff"/>
      <polygon points="1105.58 2360.25 1123.87 2332.78 1130.54 2342.88 1150.46 2342.88 1135.33 2319.98 1112.48 2319.98 1085.66 2360.25 1105.58 2360.25" fill="#fff"/>
      <polygon points="1180.47 2335.77 1162.17 2363.23 1155.5 2353.14 1135.59 2353.14 1150.72 2376.04 1173.56 2376.04 1200.38 2335.77 1180.47 2335.77" fill="#fff"/>
      <polygon points="1143.82 2422.52 1162.11 2395.05 1168.78 2405.15 1188.7 2405.15 1173.57 2382.25 1150.72 2382.25 1123.9 2422.52 1143.82 2422.52" fill="#fff"/>
      <polygon points="1218.71 2398.04 1200.41 2425.5 1193.74 2415.41 1173.83 2415.41 1188.96 2438.31 1211.8 2438.31 1238.62 2398.04 1218.71 2398.04" fill="#fff"/>
      <polygon points="1182.06 2484.79 1200.35 2457.32 1207.02 2467.42 1226.94 2467.42 1211.81 2444.52 1188.96 2444.52 1162.14 2484.79 1182.06 2484.79" fill="#fff"/>
      <polygon points="1256.95 2460.31 1238.65 2487.77 1231.98 2477.68 1212.07 2477.68 1227.2 2500.58 1250.04 2500.58 1276.86 2460.31 1256.95 2460.31" fill="#fff"/>
      <polygon points="1220.3 2547.06 1238.59 2519.59 1245.26 2529.69 1265.18 2529.69 1250.05 2506.79 1227.2 2506.79 1200.38 2547.06 1220.3 2547.06" fill="#fff"/>
      <polygon points="1295.19 2522.58 1276.89 2550.04 1270.22 2539.95 1250.31 2539.95 1265.44 2562.84 1288.28 2562.84 1315.1 2522.58 1295.19 2522.58" fill="#fff"/>
      <polygon points="1258.54 2609.33 1276.83 2581.86 1283.5 2591.96 1303.42 2591.96 1288.29 2569.06 1265.44 2569.06 1238.62 2609.33 1258.54 2609.33" fill="#fff"/>
      <polygon points="1333.43 2584.85 1315.13 2612.31 1308.46 2602.22 1288.55 2602.22 1303.68 2625.11 1326.52 2625.11 1353.34 2584.85 1333.43 2584.85" fill="#fff"/>
      <polygon points="1296.78 2671.6 1315.07 2644.13 1321.74 2654.23 1341.66 2654.23 1326.53 2631.33 1303.68 2631.33 1276.86 2671.6 1296.78 2671.6" fill="#fff"/>
      <polygon points="565.31 3022.76 583.61 2995.29 590.28 3005.39 610.19 3005.39 595.06 2982.49 572.22 2982.49 545.4 3022.76 565.31 3022.76" fill="#fff"/>
  </g>
  <!-- Top chevron — Brand Green -->
  <polygon points="655.93 2020.77 584.83 2127.53 558.91 2088.29 481.5 2088.29 540.3 2177.29 629.1 2177.29 733.34 2020.77" fill="#94D63A"/>
  <!-- Bottom chevron — White -->
  <polygon points="513.49 2357.97 584.59 2251.21 610.52 2290.45 687.93 2290.45 629.12 2201.45 540.32 2201.45 436.08 2357.97" fill="#FFFFFF"/>
</svg>
